%TF.GenerationSoftware,KiCad,Pcbnew,9.0.6*%
%TF.CreationDate,2026-01-21T19:46:04+05:30*%
%TF.ProjectId,Photonic,50686f74-6f6e-4696-932e-6b696361645f,rev?*%
%TF.SameCoordinates,Original*%
%TF.FileFunction,Copper,L1,Top*%
%TF.FilePolarity,Positive*%
%FSLAX46Y46*%
G04 Gerber Fmt 4.6, Leading zero omitted, Abs format (unit mm)*
G04 Created by KiCad (PCBNEW 9.0.6) date 2026-01-21 19:46:04*
%MOMM*%
%LPD*%
G01*
G04 APERTURE LIST*
G04 Aperture macros list*
%AMRoundRect*
0 Rectangle with rounded corners*
0 $1 Rounding radius*
0 $2 $3 $4 $5 $6 $7 $8 $9 X,Y pos of 4 corners*
0 Add a 4 corners polygon primitive as box body*
4,1,4,$2,$3,$4,$5,$6,$7,$8,$9,$2,$3,0*
0 Add four circle primitives for the rounded corners*
1,1,$1+$1,$2,$3*
1,1,$1+$1,$4,$5*
1,1,$1+$1,$6,$7*
1,1,$1+$1,$8,$9*
0 Add four rect primitives between the rounded corners*
20,1,$1+$1,$2,$3,$4,$5,0*
20,1,$1+$1,$4,$5,$6,$7,0*
20,1,$1+$1,$6,$7,$8,$9,0*
20,1,$1+$1,$8,$9,$2,$3,0*%
%AMRotRect*
0 Rectangle, with rotation*
0 The origin of the aperture is its center*
0 $1 length*
0 $2 width*
0 $3 Rotation angle, in degrees counterclockwise*
0 Add horizontal line*
21,1,$1,$2,0,0,$3*%
G04 Aperture macros list end*
%TA.AperFunction,EtchedComponent*%
%ADD10C,0.000000*%
%TD*%
%TA.AperFunction,ComponentPad*%
%ADD11R,1.700000X1.700000*%
%TD*%
%TA.AperFunction,ComponentPad*%
%ADD12C,1.600000*%
%TD*%
%TA.AperFunction,ComponentPad*%
%ADD13RoundRect,0.250000X0.135067X-0.766001X0.766001X0.135067X-0.135067X0.766001X-0.766001X-0.135067X0*%
%TD*%
%TA.AperFunction,ComponentPad*%
%ADD14RotRect,1.295400X1.295400X350.000000*%
%TD*%
%TA.AperFunction,ComponentPad*%
%ADD15C,1.295400*%
%TD*%
%TA.AperFunction,ComponentPad*%
%ADD16RotRect,1.222000X1.222000X345.000000*%
%TD*%
%TA.AperFunction,ComponentPad*%
%ADD17C,1.222000*%
%TD*%
%TA.AperFunction,ComponentPad*%
%ADD18R,1.800000X1.800000*%
%TD*%
%TA.AperFunction,ComponentPad*%
%ADD19C,1.800000*%
%TD*%
%TA.AperFunction,ComponentPad*%
%ADD20RoundRect,0.250000X-0.550000X-0.550000X0.550000X-0.550000X0.550000X0.550000X-0.550000X0.550000X0*%
%TD*%
%TA.AperFunction,ViaPad*%
%ADD21C,0.600000*%
%TD*%
%TA.AperFunction,Conductor*%
%ADD22C,0.200000*%
%TD*%
G04 APERTURE END LIST*
D10*
%TA.AperFunction,EtchedComponent*%
%TO.C,*%
G36*
X104834500Y-93501000D02*
G01*
X105095500Y-93526000D01*
X105638500Y-93565000D01*
X105832500Y-93546000D01*
X106038500Y-93526000D01*
X106543500Y-93516000D01*
X107204500Y-93513000D01*
X107875500Y-93519000D01*
X108412500Y-93531000D01*
X108670500Y-93551000D01*
X108675500Y-93553000D01*
X108570500Y-93708000D01*
X108436500Y-93867000D01*
X107914500Y-94732000D01*
X107805500Y-95275000D01*
X107778500Y-95692000D01*
X108004500Y-95907000D01*
X108779500Y-96364000D01*
X109253500Y-96456000D01*
X109513500Y-96461000D01*
X109757500Y-96400000D01*
X110152500Y-96219000D01*
X110443500Y-96074000D01*
X111161500Y-95746000D01*
X111615500Y-95632000D01*
X111921500Y-95710000D01*
X112008500Y-95774000D01*
X112273500Y-96072000D01*
X112462500Y-96331000D01*
X112745500Y-96691000D01*
X113056500Y-96889000D01*
X113723500Y-97067000D01*
X114247500Y-97054000D01*
X114605500Y-96856000D01*
X114779500Y-96684000D01*
X115123500Y-96388000D01*
X115209500Y-96367000D01*
X115416500Y-96594000D01*
X115622500Y-97124000D01*
X115792500Y-97818000D01*
X115893500Y-98535000D01*
X115893500Y-99136000D01*
X115881500Y-99214000D01*
X115734500Y-99450000D01*
X115344500Y-99438000D01*
X115270500Y-99422000D01*
X114911500Y-99369000D01*
X114612500Y-99433000D01*
X114071500Y-99732000D01*
X113747500Y-100260000D01*
X113559500Y-100775000D01*
X113305500Y-101544000D01*
X113042500Y-102393000D01*
X112825500Y-103148000D01*
X112822500Y-103159000D01*
X112540500Y-103965000D01*
X112183500Y-104581000D01*
X111575500Y-105520000D01*
X110945500Y-106561000D01*
X110343500Y-107616000D01*
X109815500Y-108597000D01*
X109411500Y-109417000D01*
X109177500Y-109986000D01*
X109142500Y-110129000D01*
X109149500Y-110338000D01*
X109249500Y-110356000D01*
X109431500Y-110261000D01*
X109744500Y-109908000D01*
X109775500Y-109869000D01*
X110480500Y-108933000D01*
X111170500Y-107922000D01*
X111734500Y-107003000D01*
X111920500Y-106658000D01*
X112224500Y-106141000D01*
X112635500Y-105535000D01*
X112686500Y-105467000D01*
X113402500Y-104496000D01*
X114094500Y-103551000D01*
X114705500Y-102710000D01*
X115177500Y-102053000D01*
X115452500Y-101658000D01*
X115477500Y-101619000D01*
X115705500Y-101337000D01*
X115779500Y-101294000D01*
X116128500Y-101368000D01*
X116154500Y-101403000D01*
X116347500Y-101853000D01*
X116568500Y-102553000D01*
X116632500Y-102792000D01*
X116801500Y-104143000D01*
X116666500Y-105729000D01*
X116425500Y-106870000D01*
X116011500Y-108271000D01*
X115565500Y-109286000D01*
X115070500Y-109963000D01*
X114721500Y-110282000D01*
X114257500Y-110618000D01*
X113582500Y-111047000D01*
X113130500Y-111343000D01*
X112644500Y-111705000D01*
X112011500Y-112219000D01*
X111445500Y-112697000D01*
X110762500Y-113262000D01*
X109992500Y-113876000D01*
X109738500Y-114074000D01*
X108946500Y-114679000D01*
X107965500Y-115423000D01*
X106872500Y-116247000D01*
X105747500Y-117092000D01*
X104669500Y-117898000D01*
X103717500Y-118607000D01*
X102971500Y-119158000D01*
X102543500Y-119468000D01*
X101506500Y-120219000D01*
X100803500Y-120762000D01*
X100395500Y-121132000D01*
X100241500Y-121361000D01*
X100238500Y-121390000D01*
X100416500Y-121764000D01*
X100846500Y-122155000D01*
X101230500Y-122362000D01*
X101544500Y-122450000D01*
X102008500Y-122495000D01*
X102377500Y-122509000D01*
X103143500Y-122506000D01*
X103889500Y-122432000D01*
X104774500Y-122264000D01*
X105672500Y-122051000D01*
X106573500Y-121837000D01*
X107719500Y-121578000D01*
X108935500Y-121312000D01*
X110050500Y-121077000D01*
X110821500Y-120923000D01*
X111234500Y-120852000D01*
X111373500Y-120865000D01*
X111394500Y-120917000D01*
X111386500Y-121180000D01*
X111345500Y-121717000D01*
X111327500Y-121922000D01*
X111269500Y-122602000D01*
X111199500Y-123530000D01*
X111130500Y-124510000D01*
X111127500Y-124550000D01*
X111069500Y-125390000D01*
X111020500Y-126054000D01*
X110988500Y-126420000D01*
X110984500Y-126447000D01*
X110957500Y-126622000D01*
X110083500Y-126644000D01*
X109502500Y-126665000D01*
X109188500Y-126706000D01*
X108964500Y-126794000D01*
X108921500Y-126816000D01*
X108110500Y-127386000D01*
X107232500Y-128252000D01*
X106394500Y-129302000D01*
X106172500Y-129630000D01*
X105730500Y-130378000D01*
X105198500Y-131388000D01*
X104653500Y-132507000D01*
X104430500Y-132994000D01*
X103858500Y-134343000D01*
X103332500Y-135754000D01*
X102826500Y-137272000D01*
X102464500Y-138393000D01*
X102189500Y-139206000D01*
X101959500Y-139828000D01*
X101730500Y-140377000D01*
X101474500Y-140939000D01*
X101064500Y-141792000D01*
X100792500Y-142295000D01*
X100624500Y-142504000D01*
X100580500Y-142519000D01*
X100333500Y-142451000D01*
X99820500Y-142281000D01*
X99571500Y-142195000D01*
X97571500Y-141441000D01*
X95299500Y-140493000D01*
X92853500Y-139398000D01*
X91846500Y-138921000D01*
X95572500Y-138921000D01*
X95668500Y-139095000D01*
X96005500Y-139124000D01*
X96220500Y-139090000D01*
X96354500Y-138879000D01*
X96460500Y-138660000D01*
X96721500Y-138192000D01*
X96845500Y-138021000D01*
X97349500Y-137154000D01*
X97577500Y-136183000D01*
X97579500Y-136149000D01*
X97571500Y-135786000D01*
X97552500Y-135702000D01*
X97296500Y-135637000D01*
X97175500Y-135633000D01*
X96841500Y-135633000D01*
X96490500Y-136369000D01*
X96060500Y-137340000D01*
X95744500Y-138185000D01*
X95584500Y-138792000D01*
X95572500Y-138921000D01*
X91846500Y-138921000D01*
X90334500Y-138204000D01*
X87843500Y-136956000D01*
X85480500Y-135703000D01*
X84388500Y-135094000D01*
X83587500Y-134628000D01*
X99738500Y-134628000D01*
X99783500Y-134842000D01*
X99845500Y-134856000D01*
X99988500Y-134911000D01*
X100221500Y-134950000D01*
X100483500Y-134786000D01*
X100694500Y-134506000D01*
X100710500Y-134467000D01*
X100836500Y-134183000D01*
X101086500Y-133674000D01*
X101377500Y-133110000D01*
X101567500Y-132758000D01*
X101737500Y-132315000D01*
X101783500Y-131920000D01*
X101731500Y-131795000D01*
X101471500Y-131746000D01*
X101424500Y-131745000D01*
X101203500Y-131785000D01*
X100972500Y-132000000D01*
X100909500Y-132072000D01*
X100597500Y-132506000D01*
X100493500Y-132697000D01*
X100122500Y-133535000D01*
X99898500Y-134060000D01*
X99783500Y-134365000D01*
X99742500Y-134543000D01*
X99738500Y-134628000D01*
X83587500Y-134628000D01*
X82550500Y-134023000D01*
X80790500Y-132947000D01*
X79254500Y-131953000D01*
X78960500Y-131755000D01*
X77754500Y-130897000D01*
X76948500Y-130278000D01*
X98632500Y-130278000D01*
X98755500Y-130489000D01*
X99006500Y-130522000D01*
X99307500Y-130447000D01*
X99426500Y-130334000D01*
X99659500Y-129972000D01*
X99970500Y-129358000D01*
X100294500Y-128640000D01*
X100567500Y-127963000D01*
X100723500Y-127475000D01*
X100738500Y-127368000D01*
X100555500Y-127177000D01*
X100267500Y-127172000D01*
X100007500Y-127308000D01*
X99889500Y-127461000D01*
X99622500Y-127915000D01*
X99281500Y-128571000D01*
X98960500Y-129241000D01*
X98754500Y-129736000D01*
X98741500Y-129776000D01*
X98632500Y-130278000D01*
X76948500Y-130278000D01*
X76608500Y-130017000D01*
X75620500Y-129194000D01*
X74890500Y-128509000D01*
X74779500Y-128391000D01*
X74362500Y-127967000D01*
X74142500Y-127810000D01*
X74038500Y-127784000D01*
X74041500Y-127639000D01*
X74129500Y-127281000D01*
X74403500Y-126335000D01*
X74746500Y-125493000D01*
X75226500Y-124627000D01*
X75907500Y-123607000D01*
X76250500Y-123127000D01*
X77198500Y-121530000D01*
X77400500Y-121062000D01*
X77527500Y-120703000D01*
X77515500Y-120524000D01*
X77491500Y-120473000D01*
X77437500Y-120232000D01*
X77391500Y-119693000D01*
X77351500Y-118878000D01*
X77307500Y-117659000D01*
X77274500Y-116478000D01*
X77253500Y-115415000D01*
X77246500Y-114551000D01*
X77253500Y-113968000D01*
X77276500Y-113745000D01*
X77277500Y-113744000D01*
X77406500Y-113916000D01*
X77559500Y-114203000D01*
X78268500Y-115221000D01*
X79347500Y-116196000D01*
X80722500Y-117073000D01*
X82318500Y-117800000D01*
X82856500Y-117990000D01*
X83780500Y-118272000D01*
X84353500Y-118384000D01*
X84632500Y-118334000D01*
X84682500Y-118208000D01*
X84639500Y-118123000D01*
X84409500Y-118057000D01*
X84099500Y-118001000D01*
X83467500Y-117833000D01*
X82625500Y-117538000D01*
X81762500Y-117184000D01*
X81536500Y-117080000D01*
X80767500Y-116666000D01*
X80034500Y-116146000D01*
X79179500Y-115407000D01*
X79112500Y-115345000D01*
X78039500Y-114167000D01*
X77357500Y-112941000D01*
X77037500Y-111724000D01*
X77013500Y-111398000D01*
X77999500Y-111398000D01*
X78058500Y-112327000D01*
X78126500Y-112606000D01*
X78704500Y-113910000D01*
X79583500Y-115028000D01*
X80834500Y-116045000D01*
X80904500Y-116092000D01*
X81822500Y-116636000D01*
X82760500Y-117010000D01*
X83765500Y-117269000D01*
X84433500Y-117392000D01*
X84735500Y-117386000D01*
X84760500Y-117365000D01*
X84587500Y-117273000D01*
X84112500Y-117087000D01*
X83695500Y-116937000D01*
X82955500Y-116666000D01*
X82317500Y-116410000D01*
X82100500Y-116312000D01*
X80690500Y-115431000D01*
X79602500Y-114334000D01*
X79188979Y-113620000D01*
X81138500Y-113620000D01*
X81249500Y-113703000D01*
X81489500Y-113711000D01*
X82075500Y-113583000D01*
X82817500Y-113185000D01*
X83010500Y-113058000D01*
X83473500Y-112786000D01*
X83687500Y-112778000D01*
X83716500Y-112824000D01*
X83625500Y-113076000D01*
X83222500Y-113561000D01*
X82969500Y-113827000D01*
X82501500Y-114346000D01*
X82327500Y-114653000D01*
X82357500Y-114782000D01*
X82726500Y-114932000D01*
X82962500Y-114888000D01*
X83231500Y-114838000D01*
X83374500Y-114919000D01*
X83506500Y-115157000D01*
X83409500Y-115377000D01*
X83274500Y-115734000D01*
X83234500Y-115903000D01*
X83194500Y-116218000D01*
X83243500Y-116305000D01*
X83652500Y-116313000D01*
X83826500Y-116242000D01*
X84219500Y-115943000D01*
X84763500Y-115397000D01*
X85353500Y-114715000D01*
X85818500Y-114104000D01*
X86216500Y-113558000D01*
X86536500Y-113148000D01*
X86598500Y-113077000D01*
X86931500Y-112660000D01*
X87123500Y-112222000D01*
X87198500Y-111640000D01*
X87183500Y-110792000D01*
X87155500Y-110322000D01*
X87107500Y-109511000D01*
X87077500Y-108800000D01*
X87071500Y-108495000D01*
X86956500Y-107522000D01*
X86633500Y-106819000D01*
X86393500Y-106592000D01*
X85888500Y-106435000D01*
X85139500Y-106386000D01*
X84330500Y-106438000D01*
X83647500Y-106586000D01*
X83418500Y-106689000D01*
X83270500Y-106841000D01*
X83302500Y-106969000D01*
X83301500Y-107194000D01*
X83005500Y-107352000D01*
X82914500Y-107383000D01*
X82554500Y-107592000D01*
X82513500Y-107650000D01*
X82214500Y-107887000D01*
X82087500Y-107936000D01*
X81797500Y-108082000D01*
X81765500Y-108161000D01*
X81941500Y-108352000D01*
X82486500Y-108482000D01*
X83430500Y-108557000D01*
X83974500Y-108574000D01*
X84127500Y-108620000D01*
X83966500Y-108751000D01*
X83807500Y-108851000D01*
X83253500Y-109209000D01*
X82593500Y-109679000D01*
X82005500Y-110130000D01*
X81722500Y-110373000D01*
X81335500Y-110848000D01*
X81300500Y-111165000D01*
X81312500Y-111181000D01*
X81465500Y-111448000D01*
X81482500Y-111487000D01*
X81556500Y-111638000D01*
X81704500Y-111676000D01*
X82079500Y-111616000D01*
X82305500Y-111572000D01*
X82643500Y-111527000D01*
X82712500Y-111534000D01*
X82605500Y-111704000D01*
X82295500Y-112088000D01*
X82179500Y-112225000D01*
X81584500Y-112932000D01*
X81250500Y-113370000D01*
X81138500Y-113595000D01*
X81138500Y-113620000D01*
X79188979Y-113620000D01*
X79174500Y-113595000D01*
X78872500Y-113074000D01*
X78541500Y-111702000D01*
X78533500Y-111578000D01*
X78566500Y-110842000D01*
X78799500Y-110107000D01*
X78905500Y-109871000D01*
X79769500Y-108530000D01*
X80996500Y-107390000D01*
X82353500Y-106584000D01*
X83110500Y-106268000D01*
X84012500Y-105945000D01*
X84845500Y-105689000D01*
X85205500Y-105602000D01*
X85639500Y-105484000D01*
X85743500Y-105402000D01*
X85765500Y-105243000D01*
X85501500Y-105191000D01*
X84931500Y-105253000D01*
X84171500Y-105408000D01*
X83340500Y-105637000D01*
X83154500Y-105696000D01*
X81594500Y-106366000D01*
X80262500Y-107301000D01*
X79182500Y-108400000D01*
X78631500Y-109132000D01*
X78291500Y-109868000D01*
X78125500Y-110445000D01*
X77999500Y-111398000D01*
X77013500Y-111398000D01*
X76967500Y-110773000D01*
X77101500Y-109887000D01*
X77268500Y-109334000D01*
X77733500Y-108222000D01*
X78354500Y-107305000D01*
X79245500Y-106421000D01*
X79501500Y-106206000D01*
X81436500Y-104872000D01*
X83361500Y-103991000D01*
X92793500Y-103991000D01*
X92902500Y-104260000D01*
X93298500Y-104576000D01*
X93406500Y-104645000D01*
X93795500Y-104910000D01*
X94307500Y-105279000D01*
X94317500Y-105287000D01*
X94960500Y-105735000D01*
X95537500Y-106103000D01*
X96152500Y-106471000D01*
X96764500Y-106438000D01*
X97481500Y-106391000D01*
X98014500Y-106350000D01*
X98541500Y-106286000D01*
X98842500Y-106183000D01*
X98886500Y-106158000D01*
X99132500Y-105990000D01*
X99155500Y-105965000D01*
X99350500Y-105825000D01*
X99631500Y-105655000D01*
X100364500Y-105064000D01*
X100592500Y-104808000D01*
X102460500Y-104808000D01*
X102506500Y-105008000D01*
X102625500Y-105022000D01*
X102859500Y-104887000D01*
X102875500Y-104858000D01*
X102939500Y-104526000D01*
X104793500Y-104526000D01*
X104827500Y-104775000D01*
X104895500Y-104800000D01*
X105123500Y-104667000D01*
X105199500Y-104597000D01*
X105343500Y-104423000D01*
X106636500Y-104423000D01*
X106690500Y-104638000D01*
X106724500Y-104652000D01*
X107007500Y-104670000D01*
X107015500Y-104670000D01*
X107217500Y-104589000D01*
X107259500Y-104460000D01*
X107274500Y-104119000D01*
X107271500Y-104110000D01*
X107146500Y-103973000D01*
X107057500Y-103977000D01*
X106791500Y-104136000D01*
X106636500Y-104423000D01*
X105343500Y-104423000D01*
X105411500Y-104341000D01*
X105433500Y-104296000D01*
X105331500Y-104051000D01*
X105085500Y-103967000D01*
X104856500Y-104090000D01*
X104793500Y-104526000D01*
X102939500Y-104526000D01*
X102953500Y-104454000D01*
X102753500Y-104248000D01*
X102704500Y-104244000D01*
X102513500Y-104440000D01*
X102460500Y-104808000D01*
X100592500Y-104808000D01*
X100762500Y-104617000D01*
X101008500Y-104350000D01*
X101302500Y-103985000D01*
X101330500Y-103887000D01*
X101378500Y-103782000D01*
X101625500Y-103938000D01*
X102023500Y-104179000D01*
X102318500Y-104216000D01*
X102353500Y-104185000D01*
X102345500Y-103855000D01*
X102132500Y-103332000D01*
X101798500Y-102802000D01*
X101261500Y-102160000D01*
X104858500Y-102160000D01*
X104925500Y-102534000D01*
X105029500Y-102595000D01*
X105364500Y-102581000D01*
X105528500Y-102501000D01*
X105508500Y-102307000D01*
X105499500Y-102304000D01*
X106793500Y-102304000D01*
X106849500Y-102626000D01*
X107066500Y-102689000D01*
X107328500Y-102630000D01*
X107338500Y-102622000D01*
X107402500Y-102426000D01*
X107351500Y-102356000D01*
X107300500Y-102253000D01*
X109208500Y-102253000D01*
X109260500Y-102482000D01*
X109289500Y-102503000D01*
X109374500Y-102637000D01*
X109507500Y-102688000D01*
X109540500Y-102689000D01*
X109723500Y-102640000D01*
X109738500Y-102471000D01*
X109671500Y-102116000D01*
X109529500Y-102017000D01*
X109274500Y-102078000D01*
X109208500Y-102253000D01*
X107300500Y-102253000D01*
X107267500Y-102188000D01*
X107262500Y-102163000D01*
X107097500Y-101931000D01*
X106880500Y-102019000D01*
X106793500Y-102304000D01*
X105499500Y-102304000D01*
X105448500Y-102290000D01*
X105294500Y-102139000D01*
X105107500Y-101922000D01*
X104894500Y-102037000D01*
X104858500Y-102160000D01*
X101261500Y-102160000D01*
X101246500Y-102142000D01*
X100700500Y-101596000D01*
X100563500Y-101482000D01*
X99961500Y-101090000D01*
X99177500Y-100670000D01*
X98967500Y-100572000D01*
X106415500Y-100572000D01*
X106455500Y-100905000D01*
X106471500Y-100919000D01*
X106754500Y-100956000D01*
X106892500Y-100879000D01*
X107075500Y-100725000D01*
X107218500Y-100544000D01*
X109081500Y-100544000D01*
X109131500Y-100666000D01*
X109388500Y-100740000D01*
X109563500Y-100647000D01*
X109590500Y-100548000D01*
X111271500Y-100548000D01*
X111432500Y-100640000D01*
X111678500Y-100636000D01*
X111710500Y-100462000D01*
X111643500Y-100273000D01*
X111554500Y-100254000D01*
X111285500Y-100343000D01*
X111271500Y-100548000D01*
X109590500Y-100548000D01*
X109635500Y-100383000D01*
X109577500Y-100208000D01*
X109540500Y-100200000D01*
X109214500Y-100291000D01*
X109081500Y-100544000D01*
X107218500Y-100544000D01*
X107223500Y-100538000D01*
X107060500Y-100438000D01*
X106784500Y-100317000D01*
X106562500Y-100254000D01*
X106443500Y-100339000D01*
X106415500Y-100572000D01*
X98967500Y-100572000D01*
X98778500Y-100485000D01*
X98407500Y-100342000D01*
X98045500Y-100281000D01*
X97627500Y-100258000D01*
X96993500Y-100257000D01*
X96587500Y-100319000D01*
X95680500Y-100701000D01*
X94711500Y-101357000D01*
X94347500Y-101672000D01*
X93997500Y-102065000D01*
X93577500Y-102630000D01*
X93177500Y-103232000D01*
X92887500Y-103737000D01*
X92793500Y-103991000D01*
X83361500Y-103991000D01*
X83615500Y-103875000D01*
X84932500Y-103460000D01*
X85543500Y-103295000D01*
X85117500Y-103324000D01*
X83720500Y-103571000D01*
X82203500Y-104089000D01*
X80733500Y-104807000D01*
X79472500Y-105652000D01*
X79172500Y-105908000D01*
X78875500Y-106156000D01*
X78783500Y-106149000D01*
X78783500Y-106148000D01*
X78786500Y-105780000D01*
X78850500Y-105302000D01*
X78922500Y-105042000D01*
X79208500Y-104733000D01*
X79815500Y-104240000D01*
X80678500Y-103607000D01*
X81735500Y-102875000D01*
X82923500Y-102087000D01*
X84177500Y-101285000D01*
X85436500Y-100510000D01*
X86636500Y-99806000D01*
X87391500Y-99386000D01*
X88971500Y-98587000D01*
X90856500Y-97723000D01*
X92920500Y-96847000D01*
X95040500Y-96008000D01*
X97090500Y-95258000D01*
X98793500Y-94696000D01*
X100280500Y-94258000D01*
X101527500Y-93943000D01*
X102706500Y-93709000D01*
X103377500Y-93602000D01*
X104017500Y-93512000D01*
X104432500Y-93482000D01*
X104834500Y-93501000D01*
G37*
%TD.AperFunction*%
%TA.AperFunction,EtchedComponent*%
G36*
X79630500Y-59789000D02*
G01*
X80018500Y-60278000D01*
X80632500Y-61060000D01*
X81450500Y-62105000D01*
X82450500Y-63384000D01*
X83608500Y-64868000D01*
X84901500Y-66527000D01*
X86308500Y-68331000D01*
X87805500Y-70253000D01*
X89368500Y-72262000D01*
X90977500Y-74329000D01*
X92607500Y-76424000D01*
X94236500Y-78519000D01*
X95841500Y-80584000D01*
X97399500Y-82590000D01*
X98888500Y-84507000D01*
X100285500Y-86307000D01*
X101566500Y-87959000D01*
X102710500Y-89435000D01*
X103693500Y-90705000D01*
X104492500Y-91740000D01*
X105085500Y-92511000D01*
X105449500Y-92988000D01*
X105562500Y-93141000D01*
X105407500Y-93159000D01*
X105340500Y-93149000D01*
X104649500Y-93102000D01*
X103724500Y-93138000D01*
X102767500Y-93248000D01*
X102654500Y-93267000D01*
X100803500Y-93668000D01*
X98657500Y-94277000D01*
X96296500Y-95066000D01*
X93802500Y-96008000D01*
X91256500Y-97076000D01*
X90599500Y-97369000D01*
X87225500Y-98985000D01*
X84259500Y-100595000D01*
X81715500Y-102195000D01*
X80114500Y-103364000D01*
X79756500Y-103640000D01*
X79609500Y-103744000D01*
X79604500Y-103530000D01*
X79597500Y-102920000D01*
X79589500Y-101961000D01*
X79581500Y-100703000D01*
X79572500Y-99194000D01*
X79562500Y-97480000D01*
X79554500Y-95612000D01*
X79552500Y-95286000D01*
X79537500Y-91688000D01*
X79523500Y-88146000D01*
X79511500Y-84688000D01*
X79500500Y-81341000D01*
X79491500Y-78132000D01*
X79483500Y-75089000D01*
X79477500Y-72238000D01*
X79472500Y-69607000D01*
X79469500Y-67224000D01*
X79468500Y-65114000D01*
X79469500Y-63307000D01*
X79471500Y-61828000D01*
X79476500Y-60705000D01*
X79482500Y-59965000D01*
X79490500Y-59636000D01*
X79492500Y-59621000D01*
X79630500Y-59789000D01*
G37*
%TD.AperFunction*%
%TD*%
D11*
%TO.P,TP1,1,1*%
%TO.N,+5V*%
X90424000Y-122936000D03*
%TD*%
D12*
%TO.P,U1,8,VCC*%
%TO.N,+5V*%
X80855225Y-121689607D03*
%TO.P,U1,7,DIS*%
%TO.N,Net-(U1-DIS)*%
X82935871Y-123146492D03*
%TO.P,U1,6,THR*%
%TO.N,/TR*%
X85016517Y-124603376D03*
%TO.P,U1,5,CV*%
%TO.N,Net-(U1-CV)*%
X87097162Y-126060261D03*
%TO.P,U1,4,R*%
%TO.N,+5V*%
X82726511Y-132302199D03*
%TO.P,U1,3,Q*%
%TO.N,/out*%
X80645864Y-130845313D03*
%TO.P,U1,2,TR*%
%TO.N,/TR*%
X78565220Y-129388431D03*
D13*
%TO.P,U1,1,GND*%
%TO.N,GND*%
X76484572Y-127931546D03*
%TD*%
D14*
%TO.P,U2,1,Q5*%
%TO.N,Net-(D6-A)*%
X81453333Y-100776943D03*
D15*
%TO.P,U2,2,Q1*%
%TO.N,Net-(D10-A)*%
X81012265Y-103278354D03*
%TO.P,U2,3,Q0*%
%TO.N,Net-(D1-A)*%
X80571198Y-105779765D03*
%TO.P,U2,4,Q2*%
%TO.N,Net-(D9-A)*%
X80130133Y-108281177D03*
%TO.P,U2,5,Q6*%
%TO.N,Net-(D5-A)*%
X79689066Y-110782589D03*
%TO.P,U2,6,Q7*%
%TO.N,Net-(D4-A)*%
X79248000Y-113284000D03*
%TO.P,U2,7,Q3*%
%TO.N,Net-(D8-A)*%
X78806933Y-115785412D03*
%TO.P,U2,8,VSS*%
%TO.N,GND*%
X78365867Y-118286824D03*
%TO.P,U2,9,Q8*%
%TO.N,Net-(D3-A)*%
X85870102Y-119610023D03*
%TO.P,U2,10,Q4*%
%TO.N,Net-(D7-A)*%
X86311169Y-117108610D03*
%TO.P,U2,11,Q9*%
%TO.N,Net-(D2-A)*%
X86752235Y-114607200D03*
%TO.P,U2,12,Cout*%
%TO.N,unconnected-(U2-Cout-Pad12)*%
X87193301Y-112105788D03*
%TO.P,U2,13,CKEN*%
%TO.N,GND*%
X87634367Y-109604376D03*
%TO.P,U2,14,CLK*%
%TO.N,/out*%
X88075434Y-107102964D03*
%TO.P,U2,15,Reset*%
%TO.N,GND*%
X88516501Y-104601553D03*
%TO.P,U2,16,VDD*%
%TO.N,+5V*%
X88957567Y-102100141D03*
%TD*%
D16*
%TO.P,RV1,1,1*%
%TO.N,Net-(U1-DIS)*%
X101686547Y-137518599D03*
D17*
%TO.P,RV1,2,2*%
X104797401Y-135722547D03*
%TO.P,RV1,3,3*%
%TO.N,/TR*%
X106593453Y-138833401D03*
%TD*%
D18*
%TO.P,D9,1,K*%
%TO.N,Net-(D1-K)*%
X84582000Y-78740000D03*
D19*
%TO.P,D9,2,A*%
%TO.N,Net-(D9-A)*%
X87122000Y-78740000D03*
%TD*%
D18*
%TO.P,D10,1,K*%
%TO.N,Net-(D1-K)*%
X110490000Y-94488000D03*
D19*
%TO.P,D10,2,A*%
%TO.N,Net-(D10-A)*%
X113030000Y-94488000D03*
%TD*%
D11*
%TO.P,TP2,1,1*%
%TO.N,GND*%
X96012000Y-123952000D03*
%TD*%
D12*
%TO.P,R1,2*%
%TO.N,Net-(U1-DIS)*%
X101509021Y-106809371D03*
%TO.P,R1,1*%
%TO.N,+5V*%
X96610979Y-112646629D03*
%TD*%
D18*
%TO.P,D5,1,K*%
%TO.N,Net-(D1-K)*%
X81280000Y-71120000D03*
D19*
%TO.P,D5,2,A*%
%TO.N,Net-(D5-A)*%
X83820000Y-71120000D03*
%TD*%
D18*
%TO.P,D2,1,K*%
%TO.N,Net-(D1-K)*%
X81280000Y-96012000D03*
D19*
%TO.P,D2,2,A*%
%TO.N,Net-(D2-A)*%
X83820000Y-96012000D03*
%TD*%
D20*
%TO.P,C1,1*%
%TO.N,/TR*%
X100616000Y-94488000D03*
D12*
%TO.P,C1,2*%
%TO.N,GND*%
X102616000Y-94488000D03*
%TD*%
D18*
%TO.P,D4,1,K*%
%TO.N,Net-(D1-K)*%
X95758000Y-103124000D03*
D19*
%TO.P,D4,2,A*%
%TO.N,Net-(D4-A)*%
X98298000Y-103124000D03*
%TD*%
D20*
%TO.P,C2,1*%
%TO.N,GND*%
X95028000Y-96520000D03*
D12*
%TO.P,C2,2*%
%TO.N,Net-(U1-CV)*%
X97028000Y-96520000D03*
%TD*%
D18*
%TO.P,D8,1,K*%
%TO.N,Net-(D1-K)*%
X85344000Y-86360000D03*
D19*
%TO.P,D8,2,A*%
%TO.N,Net-(D8-A)*%
X87884000Y-86360000D03*
%TD*%
D18*
%TO.P,D6,1,K*%
%TO.N,Net-(D1-K)*%
X111506000Y-105664000D03*
D19*
%TO.P,D6,2,A*%
%TO.N,Net-(D6-A)*%
X114046000Y-105664000D03*
%TD*%
D18*
%TO.P,D1,1,K*%
%TO.N,Net-(D1-K)*%
X111506000Y-100584000D03*
D19*
%TO.P,D1,2,A*%
%TO.N,Net-(D1-A)*%
X114046000Y-100584000D03*
%TD*%
D18*
%TO.P,D7,1,K*%
%TO.N,Net-(D1-K)*%
X93726000Y-84328000D03*
D19*
%TO.P,D7,2,A*%
%TO.N,Net-(D7-A)*%
X96266000Y-84328000D03*
%TD*%
D12*
%TO.P,R2,2*%
%TO.N,GND*%
X105996066Y-107456497D03*
%TO.P,R2,1*%
%TO.N,Net-(D1-K)*%
X105331938Y-115047501D03*
%TD*%
D18*
%TO.P,D3,1,K*%
%TO.N,Net-(D1-K)*%
X108966000Y-110236000D03*
D19*
%TO.P,D3,2,A*%
%TO.N,Net-(D3-A)*%
X111506000Y-110236000D03*
%TD*%
D11*
%TO.P,TP3,1,1*%
%TO.N,/out*%
X105156000Y-122936000D03*
%TD*%
D21*
%TO.N,Net-(U1-DIS)*%
X100584000Y-114300000D03*
X88484000Y-120961687D03*
X92456000Y-121412000D03*
X98044000Y-115824000D03*
X89408000Y-118364000D03*
%TO.N,Net-(D3-A)*%
X92456000Y-119380000D03*
%TO.N,Net-(D6-A)*%
X106128735Y-112224735D03*
X108204000Y-98044000D03*
%TO.N,/out*%
X99568000Y-118872000D03*
%TO.N,Net-(U1-CV)*%
X92964000Y-102108000D03*
X87884000Y-120396000D03*
X93980000Y-108712000D03*
X87376000Y-122428000D03*
X93472000Y-104648000D03*
%TO.N,/TR*%
X101600000Y-100076000D03*
X99568000Y-105664000D03*
%TO.N,Net-(D4-A)*%
X92456000Y-108204000D03*
X80264000Y-112268000D03*
X83220000Y-107696000D03*
%TO.N,Net-(D8-A)*%
X82296000Y-109728000D03*
%TD*%
D22*
%TO.N,Net-(U1-DIS)*%
X87507451Y-123146492D02*
X87314440Y-123146492D01*
X100584000Y-114300000D02*
X99568000Y-114300000D01*
X99568000Y-114300000D02*
X98044000Y-115824000D01*
X92456000Y-121412000D02*
X89408000Y-118364000D01*
X88484000Y-120961687D02*
X88484000Y-122169943D01*
X88484000Y-122169943D02*
X87507451Y-123146492D01*
%TO.N,Net-(D3-A)*%
X89408000Y-117348000D02*
X88219910Y-116159910D01*
X88219910Y-116159910D02*
X85918204Y-116159910D01*
X85918204Y-116159910D02*
X85362469Y-116715645D01*
X85362469Y-116715645D02*
X85362469Y-119102390D01*
X85362469Y-119102390D02*
X85870102Y-119610023D01*
X90424000Y-117348000D02*
X89408000Y-117348000D01*
X92456000Y-119380000D02*
X90424000Y-117348000D01*
%TO.N,Net-(D6-A)*%
X106128735Y-112224735D02*
X107765000Y-110588470D01*
X107765000Y-110588470D02*
X107765000Y-98483000D01*
X107765000Y-98483000D02*
X108204000Y-98044000D01*
%TO.N,/out*%
X99568000Y-118872000D02*
X99568000Y-118595530D01*
X99568000Y-118595530D02*
X88075434Y-107102964D01*
X80645864Y-130845313D02*
X87157313Y-130845313D01*
X87157313Y-130845313D02*
X96057401Y-139745401D01*
X96057401Y-139745401D02*
X106971216Y-139745401D01*
X107505453Y-139211164D02*
X107505453Y-125285453D01*
X106971216Y-139745401D02*
X107505453Y-139211164D01*
X107505453Y-125285453D02*
X105156000Y-122936000D01*
%TO.N,Net-(U1-CV)*%
X92964000Y-102108000D02*
X97028000Y-98044000D01*
X97028000Y-98044000D02*
X97028000Y-96520000D01*
X93980000Y-108712000D02*
X93980000Y-105156000D01*
X87376000Y-122428000D02*
X87884000Y-121920000D01*
X93980000Y-105156000D02*
X93472000Y-104648000D01*
X93472000Y-104648000D02*
X93696530Y-104648000D01*
X87884000Y-121920000D02*
X87884000Y-120396000D01*
%TO.N,/TR*%
X100076000Y-105156000D02*
X99568000Y-105664000D01*
X100076000Y-104648000D02*
X100076000Y-105156000D01*
X101600000Y-100076000D02*
X100076000Y-101600000D01*
X100076000Y-101600000D02*
X100076000Y-104648000D01*
%TO.N,Net-(D4-A)*%
X81695000Y-109221000D02*
X83220000Y-107696000D01*
X80264000Y-112268000D02*
X81695000Y-110837000D01*
X81695000Y-110837000D02*
X81695000Y-109221000D01*
X97097000Y-101923000D02*
X98298000Y-103124000D01*
X92456000Y-108204000D02*
X92456000Y-104024000D01*
X92456000Y-104024000D02*
X94557000Y-101923000D01*
X94557000Y-101923000D02*
X97097000Y-101923000D01*
%TO.N,Net-(D8-A)*%
X82296000Y-109728000D02*
X82296000Y-112296345D01*
X82296000Y-112296345D02*
X78806933Y-115785412D01*
%TO.N,Net-(D5-A)*%
X83820000Y-71120000D02*
X82619000Y-69919000D01*
X82619000Y-69919000D02*
X80079000Y-69919000D01*
X80079000Y-69919000D02*
X79481662Y-70516338D01*
X78740000Y-109833523D02*
X79689066Y-110782589D01*
X79481662Y-70516338D02*
X79481662Y-107587983D01*
X78740000Y-108329645D02*
X78740000Y-109833523D01*
X79481662Y-107587983D02*
X78740000Y-108329645D01*
%TO.N,Net-(D1-K)*%
X84582000Y-78740000D02*
X84582000Y-75184000D01*
X81280000Y-71882000D02*
X81280000Y-71120000D01*
X84582000Y-75184000D02*
X81280000Y-71882000D01*
X83905000Y-93387000D02*
X83905000Y-92879000D01*
X83905000Y-92879000D02*
X85344000Y-91440000D01*
X85344000Y-91440000D02*
X85344000Y-86360000D01*
X85344000Y-86360000D02*
X85344000Y-85852000D01*
X84582000Y-85090000D02*
X84582000Y-78740000D01*
X85344000Y-85852000D02*
X84582000Y-85090000D01*
X93726000Y-84328000D02*
X87376000Y-84328000D01*
X87376000Y-84328000D02*
X85344000Y-86360000D01*
%TO.N,Net-(D7-A)*%
X96266000Y-84328000D02*
X107627000Y-95689000D01*
X110167000Y-112099000D02*
X97163000Y-125103000D01*
X107627000Y-95689000D02*
X109289000Y-95689000D01*
X109289000Y-95689000D02*
X109289000Y-93287000D01*
X109289000Y-93287000D02*
X111691000Y-93287000D01*
X111691000Y-93287000D02*
X111691000Y-95121900D01*
X97163000Y-125103000D02*
X94861000Y-125103000D01*
X111691000Y-95121900D02*
X112707000Y-96137900D01*
X112707000Y-96137900D02*
X112707000Y-106865000D01*
X112707000Y-106865000D02*
X110167000Y-109405000D01*
X110167000Y-109405000D02*
X110167000Y-112099000D01*
X94861000Y-125103000D02*
X86866610Y-117108610D01*
X86866610Y-117108610D02*
X86311169Y-117108610D01*
%TO.N,Net-(D1-K)*%
X111506000Y-100584000D02*
X111506000Y-95504000D01*
X111506000Y-95504000D02*
X110490000Y-94488000D01*
X111506000Y-105664000D02*
X111506000Y-100584000D01*
X108966000Y-110236000D02*
X108966000Y-108204000D01*
X108966000Y-108204000D02*
X111506000Y-105664000D01*
X105331938Y-115047501D02*
X105331938Y-113870062D01*
X105331938Y-113870062D02*
X108966000Y-110236000D01*
X95758000Y-103124000D02*
X95758000Y-105473563D01*
X95758000Y-105473563D02*
X105331938Y-115047501D01*
X81280000Y-96012000D02*
X83905000Y-93387000D01*
X101191497Y-108557497D02*
X95758000Y-103124000D01*
X83905000Y-93387000D02*
X103072050Y-93387000D01*
X103072050Y-93387000D02*
X107097066Y-97412016D01*
X106452116Y-108557497D02*
X101191497Y-108557497D01*
X107097066Y-97412016D02*
X107097066Y-107912547D01*
X107097066Y-107912547D02*
X106452116Y-108557497D01*
%TO.N,Net-(D2-A)*%
X83820000Y-96012000D02*
X83820000Y-112276956D01*
X79314567Y-118491276D02*
X83198643Y-114607200D01*
X83198643Y-114607200D02*
X86752235Y-114607200D01*
X83820000Y-112276956D02*
X78758832Y-117338124D01*
X78758832Y-117338124D02*
X77972902Y-117338124D01*
X77417167Y-125317975D02*
X75166546Y-127568596D01*
X77972902Y-117338124D02*
X77417167Y-117893859D01*
X77417167Y-117893859D02*
X77417167Y-125317975D01*
X75166546Y-127568596D02*
X75166546Y-128294496D01*
X75166546Y-128294496D02*
X76121622Y-129249572D01*
X76121622Y-129249572D02*
X76847522Y-129249572D01*
X76847522Y-129249572D02*
X79314567Y-126782527D01*
X79314567Y-126782527D02*
X79314567Y-118491276D01*
%TO.N,GND*%
X87634367Y-109604376D02*
X96012000Y-117982009D01*
X96012000Y-117982009D02*
X96012000Y-123952000D01*
X102616000Y-94488000D02*
X102616000Y-94996000D01*
X102616000Y-94996000D02*
X105996066Y-98376066D01*
X105996066Y-98376066D02*
X105996066Y-107456497D01*
X95028000Y-96520000D02*
X96552000Y-94996000D01*
X96552000Y-94996000D02*
X99237840Y-94996000D01*
X99237840Y-94996000D02*
X99830840Y-95589000D01*
X99830840Y-95589000D02*
X101515000Y-95589000D01*
X101515000Y-95589000D02*
X102616000Y-94488000D01*
X88516501Y-104601553D02*
X95028000Y-98090054D01*
X95028000Y-98090054D02*
X95028000Y-96520000D01*
X87634367Y-109604376D02*
X87126734Y-109096743D01*
X87126734Y-109096743D02*
X87126734Y-105991320D01*
X87126734Y-105991320D02*
X88516501Y-104601553D01*
X78365867Y-118286824D02*
X78951919Y-118286824D01*
X78951919Y-118286824D02*
X87634367Y-109604376D01*
X76484572Y-127931546D02*
X78365867Y-126050251D01*
X78365867Y-126050251D02*
X78365867Y-118286824D01*
%TO.N,/TR*%
X78565220Y-129388431D02*
X80231462Y-129388431D01*
X80231462Y-129388431D02*
X85016517Y-124603376D01*
X106593453Y-138833401D02*
X101395309Y-138833401D01*
X101395309Y-138833401D02*
X88198162Y-125636254D01*
X88198162Y-125636254D02*
X88198162Y-125282162D01*
X88198162Y-125282162D02*
X87519376Y-124603376D01*
X87519376Y-124603376D02*
X85016517Y-124603376D01*
%TO.N,Net-(U1-DIS)*%
X104797401Y-135722547D02*
X103482599Y-135722547D01*
X103482599Y-135722547D02*
X101686547Y-137518599D01*
X101686547Y-137518599D02*
X87314440Y-123146492D01*
X87314440Y-123146492D02*
X82935871Y-123146492D01*
%TD*%
M02*
