%TF.GenerationSoftware,KiCad,Pcbnew,9.0.6*%
%TF.CreationDate,2026-01-21T19:46:04+05:30*%
%TF.ProjectId,Photonic,50686f74-6f6e-4696-932e-6b696361645f,rev?*%
%TF.SameCoordinates,Original*%
%TF.FileFunction,Legend,Top*%
%TF.FilePolarity,Positive*%
%FSLAX46Y46*%
G04 Gerber Fmt 4.6, Leading zero omitted, Abs format (unit mm)*
G04 Created by KiCad (PCBNEW 9.0.6) date 2026-01-21 19:46:04*
%MOMM*%
%LPD*%
G01*
G04 APERTURE LIST*
%ADD10C,0.150000*%
%ADD11C,0.000000*%
%ADD12C,0.120000*%
%ADD13C,0.152400*%
%ADD14C,0.200000*%
%ADD15C,0.127000*%
G04 APERTURE END LIST*
D10*
X89162095Y-119620820D02*
X89733523Y-119620820D01*
X89447809Y-120620820D02*
X89447809Y-119620820D01*
X90066857Y-120620820D02*
X90066857Y-119620820D01*
X90066857Y-119620820D02*
X90447809Y-119620820D01*
X90447809Y-119620820D02*
X90543047Y-119668439D01*
X90543047Y-119668439D02*
X90590666Y-119716058D01*
X90590666Y-119716058D02*
X90638285Y-119811296D01*
X90638285Y-119811296D02*
X90638285Y-119954153D01*
X90638285Y-119954153D02*
X90590666Y-120049391D01*
X90590666Y-120049391D02*
X90543047Y-120097010D01*
X90543047Y-120097010D02*
X90447809Y-120144629D01*
X90447809Y-120144629D02*
X90066857Y-120144629D01*
X91590666Y-120620820D02*
X91019238Y-120620820D01*
X91304952Y-120620820D02*
X91304952Y-119620820D01*
X91304952Y-119620820D02*
X91209714Y-119763677D01*
X91209714Y-119763677D02*
X91114476Y-119858915D01*
X91114476Y-119858915D02*
X91019238Y-119906534D01*
X75877677Y-123785556D02*
X76540800Y-124249880D01*
X76540800Y-124249880D02*
X76646128Y-124265499D01*
X76646128Y-124265499D02*
X76712448Y-124253805D01*
X76712448Y-124253805D02*
X76806081Y-124203104D01*
X76806081Y-124203104D02*
X76915334Y-124047075D01*
X76915334Y-124047075D02*
X76930953Y-123941747D01*
X76930953Y-123941747D02*
X76919259Y-123875427D01*
X76919259Y-123875427D02*
X76868558Y-123781793D01*
X76868558Y-123781793D02*
X76205435Y-123317470D01*
X77598163Y-123071894D02*
X77270405Y-123539981D01*
X77434284Y-123305937D02*
X76615132Y-122732361D01*
X76615132Y-122732361D02*
X76677528Y-122892315D01*
X76677528Y-122892315D02*
X76700916Y-123024956D01*
X76700916Y-123024956D02*
X76685297Y-123130283D01*
X83006056Y-109524283D02*
X82865484Y-110321508D01*
X82865484Y-110321508D02*
X82895842Y-110423568D01*
X82895842Y-110423568D02*
X82934468Y-110478733D01*
X82934468Y-110478733D02*
X83019991Y-110542166D01*
X83019991Y-110542166D02*
X83207573Y-110575242D01*
X83207573Y-110575242D02*
X83309633Y-110544884D01*
X83309633Y-110544884D02*
X83364798Y-110506258D01*
X83364798Y-110506258D02*
X83428231Y-110420736D01*
X83428231Y-110420736D02*
X83568804Y-109623510D01*
X83974326Y-109791722D02*
X84029491Y-109753095D01*
X84029491Y-109753095D02*
X84131551Y-109722738D01*
X84131551Y-109722738D02*
X84366029Y-109764083D01*
X84366029Y-109764083D02*
X84451551Y-109827516D01*
X84451551Y-109827516D02*
X84490178Y-109882681D01*
X84490178Y-109882681D02*
X84520536Y-109984741D01*
X84520536Y-109984741D02*
X84503998Y-110078532D01*
X84503998Y-110078532D02*
X84432295Y-110210950D01*
X84432295Y-110210950D02*
X83770320Y-110674470D01*
X83770320Y-110674470D02*
X84379963Y-110781966D01*
X81792793Y-98851760D02*
X81751448Y-99086238D01*
X81533508Y-98951102D02*
X81751448Y-99086238D01*
X81751448Y-99086238D02*
X82002464Y-99033792D01*
X81577685Y-99249014D02*
X81751448Y-99086238D01*
X81751448Y-99086238D02*
X81859059Y-99298627D01*
X81792793Y-98851760D02*
X81751448Y-99086238D01*
X81533508Y-98951102D02*
X81751448Y-99086238D01*
X81751448Y-99086238D02*
X82002464Y-99033792D01*
X81577685Y-99249014D02*
X81751448Y-99086238D01*
X81751448Y-99086238D02*
X81859059Y-99298627D01*
X104817842Y-134018063D02*
X104618566Y-133470320D01*
X104264363Y-133869759D02*
X104523895Y-132901171D01*
X104523895Y-132901171D02*
X104892881Y-133000041D01*
X104892881Y-133000041D02*
X104972769Y-133070881D01*
X104972769Y-133070881D02*
X105006533Y-133129363D01*
X105006533Y-133129363D02*
X105027939Y-133233968D01*
X105027939Y-133233968D02*
X104990863Y-133372338D01*
X104990863Y-133372338D02*
X104920023Y-133452226D01*
X104920023Y-133452226D02*
X104861541Y-133485990D01*
X104861541Y-133485990D02*
X104756935Y-133507396D01*
X104756935Y-133507396D02*
X104387950Y-133408527D01*
X105354113Y-133123628D02*
X105417444Y-134178726D01*
X105417444Y-134178726D02*
X105999839Y-133296649D01*
X106570524Y-134487693D02*
X106017046Y-134339389D01*
X106293785Y-134413541D02*
X106553317Y-133444953D01*
X106553317Y-133444953D02*
X106423995Y-133558606D01*
X106423995Y-133558606D02*
X106307031Y-133626135D01*
X106307031Y-133626135D02*
X106202426Y-133647541D01*
X85113905Y-76234819D02*
X85113905Y-75234819D01*
X85113905Y-75234819D02*
X85352000Y-75234819D01*
X85352000Y-75234819D02*
X85494857Y-75282438D01*
X85494857Y-75282438D02*
X85590095Y-75377676D01*
X85590095Y-75377676D02*
X85637714Y-75472914D01*
X85637714Y-75472914D02*
X85685333Y-75663390D01*
X85685333Y-75663390D02*
X85685333Y-75806247D01*
X85685333Y-75806247D02*
X85637714Y-75996723D01*
X85637714Y-75996723D02*
X85590095Y-76091961D01*
X85590095Y-76091961D02*
X85494857Y-76187200D01*
X85494857Y-76187200D02*
X85352000Y-76234819D01*
X85352000Y-76234819D02*
X85113905Y-76234819D01*
X86161524Y-76234819D02*
X86352000Y-76234819D01*
X86352000Y-76234819D02*
X86447238Y-76187200D01*
X86447238Y-76187200D02*
X86494857Y-76139580D01*
X86494857Y-76139580D02*
X86590095Y-75996723D01*
X86590095Y-75996723D02*
X86637714Y-75806247D01*
X86637714Y-75806247D02*
X86637714Y-75425295D01*
X86637714Y-75425295D02*
X86590095Y-75330057D01*
X86590095Y-75330057D02*
X86542476Y-75282438D01*
X86542476Y-75282438D02*
X86447238Y-75234819D01*
X86447238Y-75234819D02*
X86256762Y-75234819D01*
X86256762Y-75234819D02*
X86161524Y-75282438D01*
X86161524Y-75282438D02*
X86113905Y-75330057D01*
X86113905Y-75330057D02*
X86066286Y-75425295D01*
X86066286Y-75425295D02*
X86066286Y-75663390D01*
X86066286Y-75663390D02*
X86113905Y-75758628D01*
X86113905Y-75758628D02*
X86161524Y-75806247D01*
X86161524Y-75806247D02*
X86256762Y-75853866D01*
X86256762Y-75853866D02*
X86447238Y-75853866D01*
X86447238Y-75853866D02*
X86542476Y-75806247D01*
X86542476Y-75806247D02*
X86590095Y-75758628D01*
X86590095Y-75758628D02*
X86637714Y-75663390D01*
X110545714Y-91982819D02*
X110545714Y-90982819D01*
X110545714Y-90982819D02*
X110783809Y-90982819D01*
X110783809Y-90982819D02*
X110926666Y-91030438D01*
X110926666Y-91030438D02*
X111021904Y-91125676D01*
X111021904Y-91125676D02*
X111069523Y-91220914D01*
X111069523Y-91220914D02*
X111117142Y-91411390D01*
X111117142Y-91411390D02*
X111117142Y-91554247D01*
X111117142Y-91554247D02*
X111069523Y-91744723D01*
X111069523Y-91744723D02*
X111021904Y-91839961D01*
X111021904Y-91839961D02*
X110926666Y-91935200D01*
X110926666Y-91935200D02*
X110783809Y-91982819D01*
X110783809Y-91982819D02*
X110545714Y-91982819D01*
X112069523Y-91982819D02*
X111498095Y-91982819D01*
X111783809Y-91982819D02*
X111783809Y-90982819D01*
X111783809Y-90982819D02*
X111688571Y-91125676D01*
X111688571Y-91125676D02*
X111593333Y-91220914D01*
X111593333Y-91220914D02*
X111498095Y-91268533D01*
X112688571Y-90982819D02*
X112783809Y-90982819D01*
X112783809Y-90982819D02*
X112879047Y-91030438D01*
X112879047Y-91030438D02*
X112926666Y-91078057D01*
X112926666Y-91078057D02*
X112974285Y-91173295D01*
X112974285Y-91173295D02*
X113021904Y-91363771D01*
X113021904Y-91363771D02*
X113021904Y-91601866D01*
X113021904Y-91601866D02*
X112974285Y-91792342D01*
X112974285Y-91792342D02*
X112926666Y-91887580D01*
X112926666Y-91887580D02*
X112879047Y-91935200D01*
X112879047Y-91935200D02*
X112783809Y-91982819D01*
X112783809Y-91982819D02*
X112688571Y-91982819D01*
X112688571Y-91982819D02*
X112593333Y-91935200D01*
X112593333Y-91935200D02*
X112545714Y-91887580D01*
X112545714Y-91887580D02*
X112498095Y-91792342D01*
X112498095Y-91792342D02*
X112450476Y-91601866D01*
X112450476Y-91601866D02*
X112450476Y-91363771D01*
X112450476Y-91363771D02*
X112498095Y-91173295D01*
X112498095Y-91173295D02*
X112545714Y-91078057D01*
X112545714Y-91078057D02*
X112593333Y-91030438D01*
X112593333Y-91030438D02*
X112688571Y-90982819D01*
X94750095Y-120636820D02*
X95321523Y-120636820D01*
X95035809Y-121636820D02*
X95035809Y-120636820D01*
X95654857Y-121636820D02*
X95654857Y-120636820D01*
X95654857Y-120636820D02*
X96035809Y-120636820D01*
X96035809Y-120636820D02*
X96131047Y-120684439D01*
X96131047Y-120684439D02*
X96178666Y-120732058D01*
X96178666Y-120732058D02*
X96226285Y-120827296D01*
X96226285Y-120827296D02*
X96226285Y-120970153D01*
X96226285Y-120970153D02*
X96178666Y-121065391D01*
X96178666Y-121065391D02*
X96131047Y-121113010D01*
X96131047Y-121113010D02*
X96035809Y-121160629D01*
X96035809Y-121160629D02*
X95654857Y-121160629D01*
X96607238Y-120732058D02*
X96654857Y-120684439D01*
X96654857Y-120684439D02*
X96750095Y-120636820D01*
X96750095Y-120636820D02*
X96988190Y-120636820D01*
X96988190Y-120636820D02*
X97083428Y-120684439D01*
X97083428Y-120684439D02*
X97131047Y-120732058D01*
X97131047Y-120732058D02*
X97178666Y-120827296D01*
X97178666Y-120827296D02*
X97178666Y-120922534D01*
X97178666Y-120922534D02*
X97131047Y-121065391D01*
X97131047Y-121065391D02*
X96559619Y-121636820D01*
X96559619Y-121636820D02*
X97178666Y-121636820D01*
X97485755Y-108624616D02*
X96906710Y-108573875D01*
X97118448Y-109062356D02*
X96352403Y-108419568D01*
X96352403Y-108419568D02*
X96597275Y-108127742D01*
X96597275Y-108127742D02*
X96694971Y-108085394D01*
X96694971Y-108085394D02*
X96762058Y-108079525D01*
X96762058Y-108079525D02*
X96865624Y-108104264D01*
X96865624Y-108104264D02*
X96975059Y-108196091D01*
X96975059Y-108196091D02*
X97017407Y-108293787D01*
X97017407Y-108293787D02*
X97023276Y-108360875D01*
X97023276Y-108360875D02*
X96998536Y-108464440D01*
X96998536Y-108464440D02*
X96753665Y-108756267D01*
X98097934Y-107895050D02*
X97730627Y-108332790D01*
X97914280Y-108113920D02*
X97148236Y-107471132D01*
X97148236Y-107471132D02*
X97196453Y-107635916D01*
X97196453Y-107635916D02*
X97208192Y-107770090D01*
X97208192Y-107770090D02*
X97183452Y-107873656D01*
X81811905Y-68614819D02*
X81811905Y-67614819D01*
X81811905Y-67614819D02*
X82050000Y-67614819D01*
X82050000Y-67614819D02*
X82192857Y-67662438D01*
X82192857Y-67662438D02*
X82288095Y-67757676D01*
X82288095Y-67757676D02*
X82335714Y-67852914D01*
X82335714Y-67852914D02*
X82383333Y-68043390D01*
X82383333Y-68043390D02*
X82383333Y-68186247D01*
X82383333Y-68186247D02*
X82335714Y-68376723D01*
X82335714Y-68376723D02*
X82288095Y-68471961D01*
X82288095Y-68471961D02*
X82192857Y-68567200D01*
X82192857Y-68567200D02*
X82050000Y-68614819D01*
X82050000Y-68614819D02*
X81811905Y-68614819D01*
X83288095Y-67614819D02*
X82811905Y-67614819D01*
X82811905Y-67614819D02*
X82764286Y-68091009D01*
X82764286Y-68091009D02*
X82811905Y-68043390D01*
X82811905Y-68043390D02*
X82907143Y-67995771D01*
X82907143Y-67995771D02*
X83145238Y-67995771D01*
X83145238Y-67995771D02*
X83240476Y-68043390D01*
X83240476Y-68043390D02*
X83288095Y-68091009D01*
X83288095Y-68091009D02*
X83335714Y-68186247D01*
X83335714Y-68186247D02*
X83335714Y-68424342D01*
X83335714Y-68424342D02*
X83288095Y-68519580D01*
X83288095Y-68519580D02*
X83240476Y-68567200D01*
X83240476Y-68567200D02*
X83145238Y-68614819D01*
X83145238Y-68614819D02*
X82907143Y-68614819D01*
X82907143Y-68614819D02*
X82811905Y-68567200D01*
X82811905Y-68567200D02*
X82764286Y-68519580D01*
X81811905Y-93506819D02*
X81811905Y-92506819D01*
X81811905Y-92506819D02*
X82050000Y-92506819D01*
X82050000Y-92506819D02*
X82192857Y-92554438D01*
X82192857Y-92554438D02*
X82288095Y-92649676D01*
X82288095Y-92649676D02*
X82335714Y-92744914D01*
X82335714Y-92744914D02*
X82383333Y-92935390D01*
X82383333Y-92935390D02*
X82383333Y-93078247D01*
X82383333Y-93078247D02*
X82335714Y-93268723D01*
X82335714Y-93268723D02*
X82288095Y-93363961D01*
X82288095Y-93363961D02*
X82192857Y-93459200D01*
X82192857Y-93459200D02*
X82050000Y-93506819D01*
X82050000Y-93506819D02*
X81811905Y-93506819D01*
X82764286Y-92602057D02*
X82811905Y-92554438D01*
X82811905Y-92554438D02*
X82907143Y-92506819D01*
X82907143Y-92506819D02*
X83145238Y-92506819D01*
X83145238Y-92506819D02*
X83240476Y-92554438D01*
X83240476Y-92554438D02*
X83288095Y-92602057D01*
X83288095Y-92602057D02*
X83335714Y-92697295D01*
X83335714Y-92697295D02*
X83335714Y-92792533D01*
X83335714Y-92792533D02*
X83288095Y-92935390D01*
X83288095Y-92935390D02*
X82716667Y-93506819D01*
X82716667Y-93506819D02*
X83335714Y-93506819D01*
X101449333Y-91097580D02*
X101401714Y-91145200D01*
X101401714Y-91145200D02*
X101258857Y-91192819D01*
X101258857Y-91192819D02*
X101163619Y-91192819D01*
X101163619Y-91192819D02*
X101020762Y-91145200D01*
X101020762Y-91145200D02*
X100925524Y-91049961D01*
X100925524Y-91049961D02*
X100877905Y-90954723D01*
X100877905Y-90954723D02*
X100830286Y-90764247D01*
X100830286Y-90764247D02*
X100830286Y-90621390D01*
X100830286Y-90621390D02*
X100877905Y-90430914D01*
X100877905Y-90430914D02*
X100925524Y-90335676D01*
X100925524Y-90335676D02*
X101020762Y-90240438D01*
X101020762Y-90240438D02*
X101163619Y-90192819D01*
X101163619Y-90192819D02*
X101258857Y-90192819D01*
X101258857Y-90192819D02*
X101401714Y-90240438D01*
X101401714Y-90240438D02*
X101449333Y-90288057D01*
X102401714Y-91192819D02*
X101830286Y-91192819D01*
X102116000Y-91192819D02*
X102116000Y-90192819D01*
X102116000Y-90192819D02*
X102020762Y-90335676D01*
X102020762Y-90335676D02*
X101925524Y-90430914D01*
X101925524Y-90430914D02*
X101830286Y-90478533D01*
X96289905Y-100618819D02*
X96289905Y-99618819D01*
X96289905Y-99618819D02*
X96528000Y-99618819D01*
X96528000Y-99618819D02*
X96670857Y-99666438D01*
X96670857Y-99666438D02*
X96766095Y-99761676D01*
X96766095Y-99761676D02*
X96813714Y-99856914D01*
X96813714Y-99856914D02*
X96861333Y-100047390D01*
X96861333Y-100047390D02*
X96861333Y-100190247D01*
X96861333Y-100190247D02*
X96813714Y-100380723D01*
X96813714Y-100380723D02*
X96766095Y-100475961D01*
X96766095Y-100475961D02*
X96670857Y-100571200D01*
X96670857Y-100571200D02*
X96528000Y-100618819D01*
X96528000Y-100618819D02*
X96289905Y-100618819D01*
X97718476Y-99952152D02*
X97718476Y-100618819D01*
X97480381Y-99571200D02*
X97242286Y-100285485D01*
X97242286Y-100285485D02*
X97861333Y-100285485D01*
X95861333Y-93129580D02*
X95813714Y-93177200D01*
X95813714Y-93177200D02*
X95670857Y-93224819D01*
X95670857Y-93224819D02*
X95575619Y-93224819D01*
X95575619Y-93224819D02*
X95432762Y-93177200D01*
X95432762Y-93177200D02*
X95337524Y-93081961D01*
X95337524Y-93081961D02*
X95289905Y-92986723D01*
X95289905Y-92986723D02*
X95242286Y-92796247D01*
X95242286Y-92796247D02*
X95242286Y-92653390D01*
X95242286Y-92653390D02*
X95289905Y-92462914D01*
X95289905Y-92462914D02*
X95337524Y-92367676D01*
X95337524Y-92367676D02*
X95432762Y-92272438D01*
X95432762Y-92272438D02*
X95575619Y-92224819D01*
X95575619Y-92224819D02*
X95670857Y-92224819D01*
X95670857Y-92224819D02*
X95813714Y-92272438D01*
X95813714Y-92272438D02*
X95861333Y-92320057D01*
X96242286Y-92320057D02*
X96289905Y-92272438D01*
X96289905Y-92272438D02*
X96385143Y-92224819D01*
X96385143Y-92224819D02*
X96623238Y-92224819D01*
X96623238Y-92224819D02*
X96718476Y-92272438D01*
X96718476Y-92272438D02*
X96766095Y-92320057D01*
X96766095Y-92320057D02*
X96813714Y-92415295D01*
X96813714Y-92415295D02*
X96813714Y-92510533D01*
X96813714Y-92510533D02*
X96766095Y-92653390D01*
X96766095Y-92653390D02*
X96194667Y-93224819D01*
X96194667Y-93224819D02*
X96813714Y-93224819D01*
X85875905Y-83854819D02*
X85875905Y-82854819D01*
X85875905Y-82854819D02*
X86114000Y-82854819D01*
X86114000Y-82854819D02*
X86256857Y-82902438D01*
X86256857Y-82902438D02*
X86352095Y-82997676D01*
X86352095Y-82997676D02*
X86399714Y-83092914D01*
X86399714Y-83092914D02*
X86447333Y-83283390D01*
X86447333Y-83283390D02*
X86447333Y-83426247D01*
X86447333Y-83426247D02*
X86399714Y-83616723D01*
X86399714Y-83616723D02*
X86352095Y-83711961D01*
X86352095Y-83711961D02*
X86256857Y-83807200D01*
X86256857Y-83807200D02*
X86114000Y-83854819D01*
X86114000Y-83854819D02*
X85875905Y-83854819D01*
X87018762Y-83283390D02*
X86923524Y-83235771D01*
X86923524Y-83235771D02*
X86875905Y-83188152D01*
X86875905Y-83188152D02*
X86828286Y-83092914D01*
X86828286Y-83092914D02*
X86828286Y-83045295D01*
X86828286Y-83045295D02*
X86875905Y-82950057D01*
X86875905Y-82950057D02*
X86923524Y-82902438D01*
X86923524Y-82902438D02*
X87018762Y-82854819D01*
X87018762Y-82854819D02*
X87209238Y-82854819D01*
X87209238Y-82854819D02*
X87304476Y-82902438D01*
X87304476Y-82902438D02*
X87352095Y-82950057D01*
X87352095Y-82950057D02*
X87399714Y-83045295D01*
X87399714Y-83045295D02*
X87399714Y-83092914D01*
X87399714Y-83092914D02*
X87352095Y-83188152D01*
X87352095Y-83188152D02*
X87304476Y-83235771D01*
X87304476Y-83235771D02*
X87209238Y-83283390D01*
X87209238Y-83283390D02*
X87018762Y-83283390D01*
X87018762Y-83283390D02*
X86923524Y-83331009D01*
X86923524Y-83331009D02*
X86875905Y-83378628D01*
X86875905Y-83378628D02*
X86828286Y-83473866D01*
X86828286Y-83473866D02*
X86828286Y-83664342D01*
X86828286Y-83664342D02*
X86875905Y-83759580D01*
X86875905Y-83759580D02*
X86923524Y-83807200D01*
X86923524Y-83807200D02*
X87018762Y-83854819D01*
X87018762Y-83854819D02*
X87209238Y-83854819D01*
X87209238Y-83854819D02*
X87304476Y-83807200D01*
X87304476Y-83807200D02*
X87352095Y-83759580D01*
X87352095Y-83759580D02*
X87399714Y-83664342D01*
X87399714Y-83664342D02*
X87399714Y-83473866D01*
X87399714Y-83473866D02*
X87352095Y-83378628D01*
X87352095Y-83378628D02*
X87304476Y-83331009D01*
X87304476Y-83331009D02*
X87209238Y-83283390D01*
X112037905Y-103158819D02*
X112037905Y-102158819D01*
X112037905Y-102158819D02*
X112276000Y-102158819D01*
X112276000Y-102158819D02*
X112418857Y-102206438D01*
X112418857Y-102206438D02*
X112514095Y-102301676D01*
X112514095Y-102301676D02*
X112561714Y-102396914D01*
X112561714Y-102396914D02*
X112609333Y-102587390D01*
X112609333Y-102587390D02*
X112609333Y-102730247D01*
X112609333Y-102730247D02*
X112561714Y-102920723D01*
X112561714Y-102920723D02*
X112514095Y-103015961D01*
X112514095Y-103015961D02*
X112418857Y-103111200D01*
X112418857Y-103111200D02*
X112276000Y-103158819D01*
X112276000Y-103158819D02*
X112037905Y-103158819D01*
X113466476Y-102158819D02*
X113276000Y-102158819D01*
X113276000Y-102158819D02*
X113180762Y-102206438D01*
X113180762Y-102206438D02*
X113133143Y-102254057D01*
X113133143Y-102254057D02*
X113037905Y-102396914D01*
X113037905Y-102396914D02*
X112990286Y-102587390D01*
X112990286Y-102587390D02*
X112990286Y-102968342D01*
X112990286Y-102968342D02*
X113037905Y-103063580D01*
X113037905Y-103063580D02*
X113085524Y-103111200D01*
X113085524Y-103111200D02*
X113180762Y-103158819D01*
X113180762Y-103158819D02*
X113371238Y-103158819D01*
X113371238Y-103158819D02*
X113466476Y-103111200D01*
X113466476Y-103111200D02*
X113514095Y-103063580D01*
X113514095Y-103063580D02*
X113561714Y-102968342D01*
X113561714Y-102968342D02*
X113561714Y-102730247D01*
X113561714Y-102730247D02*
X113514095Y-102635009D01*
X113514095Y-102635009D02*
X113466476Y-102587390D01*
X113466476Y-102587390D02*
X113371238Y-102539771D01*
X113371238Y-102539771D02*
X113180762Y-102539771D01*
X113180762Y-102539771D02*
X113085524Y-102587390D01*
X113085524Y-102587390D02*
X113037905Y-102635009D01*
X113037905Y-102635009D02*
X112990286Y-102730247D01*
X112037905Y-98078819D02*
X112037905Y-97078819D01*
X112037905Y-97078819D02*
X112276000Y-97078819D01*
X112276000Y-97078819D02*
X112418857Y-97126438D01*
X112418857Y-97126438D02*
X112514095Y-97221676D01*
X112514095Y-97221676D02*
X112561714Y-97316914D01*
X112561714Y-97316914D02*
X112609333Y-97507390D01*
X112609333Y-97507390D02*
X112609333Y-97650247D01*
X112609333Y-97650247D02*
X112561714Y-97840723D01*
X112561714Y-97840723D02*
X112514095Y-97935961D01*
X112514095Y-97935961D02*
X112418857Y-98031200D01*
X112418857Y-98031200D02*
X112276000Y-98078819D01*
X112276000Y-98078819D02*
X112037905Y-98078819D01*
X113561714Y-98078819D02*
X112990286Y-98078819D01*
X113276000Y-98078819D02*
X113276000Y-97078819D01*
X113276000Y-97078819D02*
X113180762Y-97221676D01*
X113180762Y-97221676D02*
X113085524Y-97316914D01*
X113085524Y-97316914D02*
X112990286Y-97364533D01*
X94257905Y-81822819D02*
X94257905Y-80822819D01*
X94257905Y-80822819D02*
X94496000Y-80822819D01*
X94496000Y-80822819D02*
X94638857Y-80870438D01*
X94638857Y-80870438D02*
X94734095Y-80965676D01*
X94734095Y-80965676D02*
X94781714Y-81060914D01*
X94781714Y-81060914D02*
X94829333Y-81251390D01*
X94829333Y-81251390D02*
X94829333Y-81394247D01*
X94829333Y-81394247D02*
X94781714Y-81584723D01*
X94781714Y-81584723D02*
X94734095Y-81679961D01*
X94734095Y-81679961D02*
X94638857Y-81775200D01*
X94638857Y-81775200D02*
X94496000Y-81822819D01*
X94496000Y-81822819D02*
X94257905Y-81822819D01*
X95162667Y-80822819D02*
X95829333Y-80822819D01*
X95829333Y-80822819D02*
X95400762Y-81822819D01*
X103741582Y-111251111D02*
X103238152Y-111541673D01*
X103691779Y-111820365D02*
X102695584Y-111733209D01*
X102695584Y-111733209D02*
X102728786Y-111353706D01*
X102728786Y-111353706D02*
X102784525Y-111262981D01*
X102784525Y-111262981D02*
X102836113Y-111219693D01*
X102836113Y-111219693D02*
X102935139Y-111180556D01*
X102935139Y-111180556D02*
X103077452Y-111193007D01*
X103077452Y-111193007D02*
X103168178Y-111248745D01*
X103168178Y-111248745D02*
X103211465Y-111300333D01*
X103211465Y-111300333D02*
X103250602Y-111399359D01*
X103250602Y-111399359D02*
X103217400Y-111778862D01*
X102873465Y-110792753D02*
X102830178Y-110741165D01*
X102830178Y-110741165D02*
X102791040Y-110642139D01*
X102791040Y-110642139D02*
X102811792Y-110404949D01*
X102811792Y-110404949D02*
X102867530Y-110314224D01*
X102867530Y-110314224D02*
X102919118Y-110270936D01*
X102919118Y-110270936D02*
X103018144Y-110231799D01*
X103018144Y-110231799D02*
X103113020Y-110240100D01*
X103113020Y-110240100D02*
X103251183Y-110299988D01*
X103251183Y-110299988D02*
X103770634Y-110919046D01*
X103770634Y-110919046D02*
X103824587Y-110302354D01*
X109497905Y-107730819D02*
X109497905Y-106730819D01*
X109497905Y-106730819D02*
X109736000Y-106730819D01*
X109736000Y-106730819D02*
X109878857Y-106778438D01*
X109878857Y-106778438D02*
X109974095Y-106873676D01*
X109974095Y-106873676D02*
X110021714Y-106968914D01*
X110021714Y-106968914D02*
X110069333Y-107159390D01*
X110069333Y-107159390D02*
X110069333Y-107302247D01*
X110069333Y-107302247D02*
X110021714Y-107492723D01*
X110021714Y-107492723D02*
X109974095Y-107587961D01*
X109974095Y-107587961D02*
X109878857Y-107683200D01*
X109878857Y-107683200D02*
X109736000Y-107730819D01*
X109736000Y-107730819D02*
X109497905Y-107730819D01*
X110402667Y-106730819D02*
X111021714Y-106730819D01*
X111021714Y-106730819D02*
X110688381Y-107111771D01*
X110688381Y-107111771D02*
X110831238Y-107111771D01*
X110831238Y-107111771D02*
X110926476Y-107159390D01*
X110926476Y-107159390D02*
X110974095Y-107207009D01*
X110974095Y-107207009D02*
X111021714Y-107302247D01*
X111021714Y-107302247D02*
X111021714Y-107540342D01*
X111021714Y-107540342D02*
X110974095Y-107635580D01*
X110974095Y-107635580D02*
X110926476Y-107683200D01*
X110926476Y-107683200D02*
X110831238Y-107730819D01*
X110831238Y-107730819D02*
X110545524Y-107730819D01*
X110545524Y-107730819D02*
X110450286Y-107683200D01*
X110450286Y-107683200D02*
X110402667Y-107635580D01*
X103894095Y-119620820D02*
X104465523Y-119620820D01*
X104179809Y-120620820D02*
X104179809Y-119620820D01*
X104798857Y-120620820D02*
X104798857Y-119620820D01*
X104798857Y-119620820D02*
X105179809Y-119620820D01*
X105179809Y-119620820D02*
X105275047Y-119668439D01*
X105275047Y-119668439D02*
X105322666Y-119716058D01*
X105322666Y-119716058D02*
X105370285Y-119811296D01*
X105370285Y-119811296D02*
X105370285Y-119954153D01*
X105370285Y-119954153D02*
X105322666Y-120049391D01*
X105322666Y-120049391D02*
X105275047Y-120097010D01*
X105275047Y-120097010D02*
X105179809Y-120144629D01*
X105179809Y-120144629D02*
X104798857Y-120144629D01*
X105703619Y-119620820D02*
X106322666Y-119620820D01*
X106322666Y-119620820D02*
X105989333Y-120001772D01*
X105989333Y-120001772D02*
X106132190Y-120001772D01*
X106132190Y-120001772D02*
X106227428Y-120049391D01*
X106227428Y-120049391D02*
X106275047Y-120097010D01*
X106275047Y-120097010D02*
X106322666Y-120192248D01*
X106322666Y-120192248D02*
X106322666Y-120430343D01*
X106322666Y-120430343D02*
X106275047Y-120525581D01*
X106275047Y-120525581D02*
X106227428Y-120573201D01*
X106227428Y-120573201D02*
X106132190Y-120620820D01*
X106132190Y-120620820D02*
X105846476Y-120620820D01*
X105846476Y-120620820D02*
X105751238Y-120573201D01*
X105751238Y-120573201D02*
X105703619Y-120525581D01*
D11*
%TO.C,*%
G36*
X77317500Y-113882000D02*
G01*
X78173500Y-115059000D01*
X79278500Y-116158000D01*
X80369500Y-116950000D01*
X81215500Y-117385000D01*
X82175500Y-117792000D01*
X82501500Y-117908000D01*
X82997500Y-118050000D01*
X83722500Y-118230000D01*
X84154500Y-118329000D01*
X84810500Y-118478000D01*
X85255500Y-118585000D01*
X85368500Y-118618000D01*
X85507500Y-118882000D01*
X85598500Y-119302000D01*
X85599500Y-119619000D01*
X85525500Y-119746000D01*
X85414500Y-119883000D01*
X83423500Y-119918000D01*
X82403500Y-119932000D01*
X81743500Y-119930000D01*
X81359500Y-119910000D01*
X81191500Y-119880000D01*
X80733500Y-119667000D01*
X80078500Y-119274000D01*
X79433500Y-118832000D01*
X79071500Y-118575000D01*
X78930500Y-118524000D01*
X78885500Y-118592000D01*
X78847500Y-118875000D01*
X78814500Y-119421000D01*
X78808500Y-119578000D01*
X78802500Y-120252000D01*
X78844500Y-120690000D01*
X78873500Y-120827000D01*
X78942500Y-121256000D01*
X79024500Y-121950000D01*
X79075500Y-122486000D01*
X79538500Y-125614000D01*
X79933500Y-127217000D01*
X80234500Y-128175000D01*
X80617500Y-129144000D01*
X81149500Y-130287000D01*
X81330500Y-130653000D01*
X81758500Y-131478000D01*
X82194500Y-132243000D01*
X82739500Y-133114000D01*
X83109500Y-133682000D01*
X83462500Y-134226000D01*
X83685500Y-134583000D01*
X83726500Y-134662000D01*
X83545500Y-134577000D01*
X83128500Y-134351000D01*
X83099500Y-134334000D01*
X82213500Y-133807000D01*
X81091500Y-133095000D01*
X79852500Y-132278000D01*
X78619500Y-131437000D01*
X77510500Y-130650000D01*
X77176500Y-130404000D01*
X76295500Y-129738000D01*
X75678500Y-129246000D01*
X75229500Y-128844000D01*
X74850500Y-128449000D01*
X74748500Y-128333000D01*
X74393500Y-127954000D01*
X74175500Y-127770000D01*
X74172500Y-127769000D01*
X74079500Y-127668000D01*
X74094500Y-127460000D01*
X74241500Y-126812000D01*
X74494500Y-126046000D01*
X74604500Y-125772000D01*
X74874500Y-125221000D01*
X75268500Y-124556000D01*
X75845500Y-123679000D01*
X76171500Y-123203000D01*
X76833500Y-122205000D01*
X77249500Y-121458000D01*
X77458500Y-120872000D01*
X77499500Y-120355000D01*
X77473500Y-120121000D01*
X77439500Y-119730000D01*
X77401500Y-119016000D01*
X77366500Y-118101000D01*
X77351500Y-117578000D01*
X77314500Y-116195000D01*
X77289500Y-115197000D01*
X77276500Y-114524000D01*
X77273500Y-114117000D01*
X77280500Y-113915000D01*
X77296500Y-113859000D01*
X77317500Y-113882000D01*
G37*
G36*
X105015500Y-105789000D02*
G01*
X105015500Y-105811000D01*
X104919500Y-106097000D01*
X104656500Y-106701000D01*
X104262500Y-107544000D01*
X103778500Y-108550000D01*
X103239500Y-109640000D01*
X102684500Y-110737000D01*
X102151500Y-111764000D01*
X101683500Y-112633000D01*
X101107500Y-113690000D01*
X100657500Y-114559000D01*
X100271500Y-115376000D01*
X99889500Y-116275000D01*
X99447500Y-117390000D01*
X99184500Y-118073000D01*
X98774500Y-119125000D01*
X98343500Y-120206000D01*
X97968500Y-121117000D01*
X97895500Y-121291000D01*
X97574500Y-122054000D01*
X97307500Y-122706000D01*
X97174500Y-123046000D01*
X96914500Y-123680000D01*
X96626500Y-124271000D01*
X96397500Y-124644000D01*
X96374500Y-124668000D01*
X96091500Y-124800000D01*
X95997500Y-124763000D01*
X95980500Y-124521000D01*
X96195500Y-123998000D01*
X96240500Y-123907000D01*
X96500500Y-123353000D01*
X96819500Y-122630000D01*
X96930500Y-122366000D01*
X97239500Y-121643000D01*
X97523500Y-120999000D01*
X97602500Y-120828000D01*
X97752500Y-120496000D01*
X97937500Y-120058000D01*
X98187500Y-119442000D01*
X98529500Y-118576000D01*
X98993500Y-117391000D01*
X99180500Y-116911000D01*
X99630500Y-115838000D01*
X100185500Y-114638000D01*
X100752500Y-113501000D01*
X101170500Y-112739000D01*
X101639500Y-111905000D01*
X102200500Y-110842000D01*
X102897500Y-109469000D01*
X103052500Y-109159000D01*
X103518500Y-108242000D01*
X103989500Y-107346000D01*
X104417500Y-106560000D01*
X104752500Y-105974000D01*
X104947500Y-105676000D01*
X104965500Y-105658000D01*
X105015500Y-105789000D01*
G37*
G36*
X102178500Y-106228000D02*
G01*
X102013500Y-106479000D01*
X101672500Y-106947000D01*
X101114500Y-107688000D01*
X100816500Y-108080000D01*
X100226500Y-108873000D01*
X99651500Y-109676000D01*
X99281500Y-110217000D01*
X98801500Y-110910000D01*
X98209500Y-111722000D01*
X97854500Y-112189000D01*
X97348500Y-112854000D01*
X97017500Y-113338000D01*
X96756500Y-113803000D01*
X96622500Y-114071000D01*
X96249500Y-114772000D01*
X95788500Y-115558000D01*
X95641500Y-115793000D01*
X95113500Y-116643000D01*
X94477500Y-117701000D01*
X93819500Y-118820000D01*
X93226500Y-119852000D01*
X92794500Y-120633000D01*
X92369500Y-121371000D01*
X91886500Y-122136000D01*
X91813500Y-122244000D01*
X91401500Y-122849000D01*
X91055500Y-123360000D01*
X90986500Y-123462000D01*
X90647500Y-123872000D01*
X90406500Y-123912000D01*
X90405500Y-123912000D01*
X90362500Y-123855000D01*
X90405500Y-123714000D01*
X90577500Y-123402000D01*
X90923500Y-122830000D01*
X91096500Y-122550000D01*
X91522500Y-121841000D01*
X92070500Y-120907000D01*
X92644500Y-119911000D01*
X92849500Y-119550000D01*
X93461500Y-118480000D01*
X94137500Y-117320000D01*
X94751500Y-116281000D01*
X94887500Y-116054000D01*
X95375500Y-115235000D01*
X95804500Y-114496000D01*
X96095500Y-113970000D01*
X96138500Y-113888000D01*
X96315500Y-113543000D01*
X96487500Y-113245000D01*
X96724500Y-112888000D01*
X97096500Y-112364000D01*
X97545500Y-111744000D01*
X98081500Y-111000000D01*
X98601500Y-110269000D01*
X98852500Y-109913000D01*
X99357500Y-109221000D01*
X99885500Y-108545000D01*
X99926500Y-108496000D01*
X100327500Y-108036000D01*
X100836500Y-107484000D01*
X101365500Y-106930000D01*
X101826500Y-106467000D01*
X102132500Y-106183000D01*
X102205500Y-106138000D01*
X102178500Y-106228000D01*
G37*
G36*
X107277500Y-105482000D02*
G01*
X107318500Y-105590000D01*
X107315500Y-105871000D01*
X107263500Y-106444000D01*
X107242500Y-106639000D01*
X107160500Y-107479000D01*
X107070500Y-108490000D01*
X107016500Y-109133000D01*
X106927500Y-110184000D01*
X106824500Y-111320000D01*
X106767500Y-111911000D01*
X106667500Y-112977000D01*
X106558500Y-114248000D01*
X106445500Y-115645000D01*
X106334500Y-117093000D01*
X106230500Y-118516000D01*
X106139500Y-119836000D01*
X106066500Y-120976000D01*
X106018500Y-121861000D01*
X105998500Y-122413000D01*
X106001500Y-122532000D01*
X105995500Y-122824000D01*
X105895500Y-122929000D01*
X105549500Y-123056000D01*
X105369500Y-122995000D01*
X105358500Y-122723000D01*
X105372500Y-122538000D01*
X105440500Y-121813000D01*
X105535500Y-120737000D01*
X105647500Y-119405000D01*
X105770500Y-117908000D01*
X105895500Y-116341000D01*
X105987500Y-115161000D01*
X106088500Y-113894000D01*
X106190500Y-112687000D01*
X106284500Y-111656000D01*
X106359500Y-110918000D01*
X106376500Y-110772000D01*
X106476500Y-109888000D01*
X106579500Y-108863000D01*
X106627500Y-108328000D01*
X106703500Y-107476000D01*
X106779500Y-106702000D01*
X106820500Y-106328000D01*
X106889500Y-105843000D01*
X106966500Y-105622000D01*
X107049500Y-105532000D01*
X107225500Y-105443000D01*
X107277500Y-105482000D01*
G37*
G36*
X85512500Y-103553000D02*
G01*
X85384500Y-103635000D01*
X85196500Y-103732000D01*
X85126500Y-103816000D01*
X85356500Y-103828000D01*
X85629500Y-103866000D01*
X85684500Y-103944000D01*
X85686500Y-104127000D01*
X85462500Y-104203000D01*
X84973500Y-104294000D01*
X84927500Y-104301000D01*
X83368500Y-104657000D01*
X81879500Y-105229000D01*
X80641500Y-105947000D01*
X80599500Y-105978000D01*
X79985500Y-106504000D01*
X79333500Y-107164000D01*
X78820500Y-107776000D01*
X78746500Y-107883000D01*
X77967500Y-109387000D01*
X77625500Y-110875000D01*
X77722500Y-112333000D01*
X77853500Y-112814000D01*
X78309500Y-113911000D01*
X78885500Y-114772000D01*
X79476500Y-115456000D01*
X80050500Y-115964000D01*
X80408500Y-116222000D01*
X81834500Y-117028000D01*
X83449500Y-117574000D01*
X83800500Y-117657000D01*
X84288500Y-117759000D01*
X84536500Y-117800000D01*
X84627500Y-117939000D01*
X84566500Y-118059000D01*
X84312500Y-118055000D01*
X83750500Y-117924000D01*
X83706500Y-117913000D01*
X82966500Y-117669000D01*
X82067500Y-117305000D01*
X81223500Y-116914000D01*
X80759500Y-116659000D01*
X79651500Y-115870000D01*
X78676500Y-114994000D01*
X78160500Y-114404000D01*
X77674500Y-113590000D01*
X77269500Y-112620000D01*
X77095500Y-111972000D01*
X77033500Y-110658000D01*
X77212500Y-109494000D01*
X77417500Y-108944000D01*
X77758500Y-108246000D01*
X78123500Y-107621000D01*
X78232500Y-107467000D01*
X79132500Y-106478000D01*
X80306500Y-105558000D01*
X80744500Y-105270000D01*
X81568500Y-104777000D01*
X82295500Y-104429000D01*
X83181500Y-104103000D01*
X83182500Y-104103000D01*
X83783500Y-103915000D01*
X84477500Y-103718000D01*
X85104500Y-103556000D01*
X85507500Y-103471000D01*
X85556500Y-103467000D01*
X85512500Y-103553000D01*
G37*
G36*
X96904500Y-101314000D02*
G01*
X96744500Y-101441000D01*
X96438500Y-101652000D01*
X95803500Y-102169000D01*
X95458500Y-102671000D01*
X95342500Y-103010000D01*
X95327500Y-103368000D01*
X95362500Y-103772000D01*
X95513500Y-104095000D01*
X95521500Y-104108000D01*
X96101500Y-104843000D01*
X96547500Y-105130000D01*
X97413500Y-105234000D01*
X98306500Y-104972000D01*
X98668500Y-104745000D01*
X99022500Y-104500000D01*
X99123500Y-104441000D01*
X99373500Y-104195000D01*
X99495500Y-103768000D01*
X99567500Y-103186000D01*
X99571500Y-103043000D01*
X99521500Y-102733000D01*
X99350500Y-102481000D01*
X98957500Y-102094000D01*
X98511500Y-101996000D01*
X98207500Y-102023000D01*
X97493500Y-102219000D01*
X97060500Y-102501000D01*
X96797500Y-102918000D01*
X96604500Y-103417000D01*
X96590500Y-103484000D01*
X96715500Y-103934000D01*
X96939500Y-104105000D01*
X97217500Y-104179000D01*
X97595500Y-104166000D01*
X98064500Y-104075000D01*
X98260500Y-103842000D01*
X98289500Y-103736000D01*
X98226500Y-103328000D01*
X98099500Y-103235000D01*
X97909500Y-103229000D01*
X97799500Y-103323000D01*
X97495500Y-103455000D01*
X97301500Y-103337000D01*
X97384500Y-103069000D01*
X97386500Y-103067000D01*
X97855500Y-102811000D01*
X98363500Y-102878000D01*
X98638500Y-103124000D01*
X98759500Y-103639000D01*
X98646500Y-104141000D01*
X98383500Y-104410000D01*
X97920500Y-104530000D01*
X97396500Y-104550000D01*
X96901500Y-104544000D01*
X96664500Y-104503000D01*
X96497500Y-104392000D01*
X96485500Y-104382000D01*
X96142500Y-103942000D01*
X96071500Y-103443000D01*
X96199500Y-102795000D01*
X96603500Y-102267000D01*
X97033500Y-101956000D01*
X97161500Y-101913000D01*
X97591500Y-101796000D01*
X97902500Y-101710000D01*
X98679500Y-101582000D01*
X99198500Y-101653000D01*
X99550500Y-101924000D01*
X99877500Y-102327000D01*
X99936500Y-102440000D01*
X100001500Y-102822000D01*
X100015500Y-103370000D01*
X99989500Y-104038000D01*
X99847500Y-104442000D01*
X99493500Y-104763000D01*
X99167500Y-104973000D01*
X98115500Y-105508000D01*
X97217500Y-105684000D01*
X96560500Y-105582000D01*
X95662500Y-105094000D01*
X95262500Y-104628000D01*
X94953500Y-103824000D01*
X94933500Y-102967000D01*
X95199500Y-102237000D01*
X95297500Y-102110000D01*
X95683500Y-101794000D01*
X96206500Y-101485000D01*
X96636500Y-101316000D01*
X96659500Y-101313000D01*
X96894500Y-101307000D01*
X96904500Y-101314000D01*
G37*
G36*
X79667500Y-59745000D02*
G01*
X79983500Y-60146000D01*
X80017500Y-60189000D01*
X80471500Y-60772000D01*
X80432500Y-62078000D01*
X80411500Y-62964000D01*
X80399500Y-63807000D01*
X80398500Y-64197000D01*
X80376500Y-64968000D01*
X80321500Y-65559000D01*
X80246500Y-66144000D01*
X80267500Y-66463000D01*
X80397500Y-66687000D01*
X80418500Y-66713000D01*
X80829500Y-67196000D01*
X81288500Y-67729000D01*
X81704500Y-68203000D01*
X81983500Y-68514000D01*
X82047500Y-68578000D01*
X82236500Y-68494000D01*
X82393500Y-68417000D01*
X82832500Y-68230000D01*
X82960500Y-68189000D01*
X83479500Y-67982000D01*
X84044500Y-67674000D01*
X84067500Y-67659000D01*
X84548500Y-67462000D01*
X85085500Y-67365000D01*
X85174500Y-67366000D01*
X85377500Y-67383000D01*
X85419500Y-67893000D01*
X85461500Y-68403000D01*
X84990500Y-69532000D01*
X84520500Y-70660000D01*
X84741500Y-70911000D01*
X85044500Y-71288000D01*
X85111500Y-71383000D01*
X85363500Y-71706000D01*
X85684500Y-72078000D01*
X86008500Y-72449000D01*
X86159500Y-72641000D01*
X86354500Y-72841000D01*
X86525500Y-72987000D01*
X86839500Y-73313000D01*
X86932500Y-73521000D01*
X87050500Y-73799000D01*
X87075500Y-73830000D01*
X87126500Y-74036000D01*
X87127500Y-74051000D01*
X87067500Y-74241000D01*
X86890500Y-74309000D01*
X86279500Y-74374000D01*
X85599500Y-74303000D01*
X85488500Y-74274000D01*
X85108500Y-74147000D01*
X84468500Y-73918000D01*
X83884500Y-73705000D01*
X83211500Y-73465000D01*
X82735500Y-73313000D01*
X82572500Y-73281000D01*
X82471500Y-73494000D01*
X82248500Y-74001000D01*
X81990500Y-74606000D01*
X81630500Y-75440000D01*
X81383500Y-75953000D01*
X81199500Y-76234000D01*
X81027500Y-76374000D01*
X80987500Y-76395000D01*
X80777500Y-76453000D01*
X80692500Y-76392000D01*
X80546500Y-76139000D01*
X80448500Y-75625000D01*
X80402500Y-75156000D01*
X80337500Y-74426000D01*
X80271500Y-73808000D01*
X80219500Y-73432000D01*
X80200500Y-73374000D01*
X80201500Y-73588000D01*
X80221500Y-74141000D01*
X80255500Y-74928000D01*
X80269500Y-75222000D01*
X80309500Y-76255000D01*
X80335500Y-77380000D01*
X80349500Y-78497000D01*
X80348500Y-79509000D01*
X80334500Y-80315000D01*
X80305500Y-80819000D01*
X80288500Y-80917000D01*
X80236500Y-81265000D01*
X80208500Y-81689000D01*
X80135500Y-84471000D01*
X80132500Y-86986000D01*
X80181500Y-88939000D01*
X80211500Y-89795000D01*
X80248500Y-90895000D01*
X80285500Y-92039000D01*
X80294500Y-92356000D01*
X80334500Y-93465000D01*
X80374500Y-94188000D01*
X80417500Y-94582000D01*
X80437500Y-94663000D01*
X80503500Y-95070000D01*
X80515500Y-95371000D01*
X80536500Y-95754000D01*
X80568500Y-95856000D01*
X80771500Y-95753000D01*
X80973500Y-95630000D01*
X81327500Y-95404000D01*
X81229500Y-95018000D01*
X81090500Y-94329000D01*
X80956500Y-93448000D01*
X80861500Y-92620000D01*
X80839500Y-92272000D01*
X80821500Y-91717000D01*
X81105500Y-91700000D01*
X81369500Y-91716000D01*
X81626500Y-91883000D01*
X81717500Y-91958000D01*
X82546500Y-92892000D01*
X82792500Y-93269000D01*
X83120500Y-93744000D01*
X83279500Y-93940000D01*
X83530500Y-94225000D01*
X84221500Y-93868000D01*
X85025500Y-93484000D01*
X85589500Y-93298000D01*
X85791500Y-93267000D01*
X86242500Y-93223000D01*
X86362500Y-93211000D01*
X86659500Y-93210000D01*
X86714500Y-93263000D01*
X86660500Y-93526000D01*
X86469500Y-94039000D01*
X86197500Y-94652000D01*
X86112500Y-94828000D01*
X85754500Y-95462000D01*
X85421500Y-95923000D01*
X85356500Y-95989000D01*
X85251500Y-96170000D01*
X85430500Y-96377000D01*
X85683500Y-96641000D01*
X86098500Y-97103000D01*
X86293500Y-97328000D01*
X86880500Y-98060000D01*
X87188500Y-98565000D01*
X87221500Y-98763000D01*
X86956500Y-98880000D01*
X86379500Y-98855000D01*
X85591500Y-98707000D01*
X84694500Y-98452000D01*
X84036500Y-98212000D01*
X83656500Y-98071000D01*
X83511500Y-98073000D01*
X83482500Y-98104000D01*
X83378500Y-98350000D01*
X83193500Y-98870000D01*
X83098500Y-99149000D01*
X82737500Y-100165000D01*
X82460500Y-100780000D01*
X82255500Y-101026000D01*
X82252500Y-101027000D01*
X81908500Y-101076000D01*
X81651500Y-101017000D01*
X81644500Y-101008000D01*
X81620500Y-100768000D01*
X81603500Y-100210000D01*
X81597500Y-99550000D01*
X81595500Y-98161000D01*
X81429500Y-98168000D01*
X81094500Y-98260000D01*
X80987500Y-98307000D01*
X80710500Y-98439000D01*
X80665500Y-99744000D01*
X80645500Y-100688000D01*
X80646500Y-101577000D01*
X80666500Y-102288000D01*
X80704500Y-102695000D01*
X80710500Y-102717000D01*
X80660500Y-102857000D01*
X80384500Y-103122000D01*
X80204500Y-103272000D01*
X79805500Y-103597000D01*
X79586500Y-103764000D01*
X79584500Y-103765000D01*
X79559500Y-103738000D01*
X79540500Y-103590000D01*
X79526500Y-103274000D01*
X79517500Y-102740000D01*
X79513500Y-101940000D01*
X79512500Y-100826000D01*
X79515500Y-99349000D01*
X79519500Y-98126000D01*
X79521500Y-96936000D01*
X79522500Y-95355000D01*
X79522500Y-93433000D01*
X79520500Y-91224000D01*
X79517500Y-88781000D01*
X79514500Y-86155000D01*
X79509500Y-83399000D01*
X79504500Y-80565000D01*
X79497500Y-77706000D01*
X79493500Y-75967000D01*
X79484500Y-72415000D01*
X79478500Y-69304000D01*
X79474500Y-66630000D01*
X79474500Y-64389000D01*
X79475500Y-62578000D01*
X79479500Y-61193000D01*
X79486500Y-60231000D01*
X79496500Y-59686000D01*
X79506500Y-59550000D01*
X79667500Y-59745000D01*
G37*
G36*
X93951500Y-78240000D02*
G01*
X94154500Y-78448000D01*
X94327500Y-78674000D01*
X94628500Y-79077000D01*
X95168500Y-79782000D01*
X95912500Y-80741000D01*
X96824500Y-81908000D01*
X97657500Y-82970000D01*
X98215500Y-83682000D01*
X98728500Y-84339000D01*
X99043500Y-84746000D01*
X99518500Y-85361000D01*
X100045500Y-86044000D01*
X100538500Y-86681000D01*
X100911500Y-87161000D01*
X101057500Y-87348000D01*
X101171500Y-87534000D01*
X101096500Y-87616000D01*
X100786500Y-87677000D01*
X100249500Y-87674000D01*
X99697500Y-87617000D01*
X99432500Y-87555000D01*
X98835500Y-87300000D01*
X98116500Y-86937000D01*
X97478500Y-86571000D01*
X97210500Y-86388000D01*
X96821500Y-86083000D01*
X96785500Y-86289000D01*
X96719500Y-86674000D01*
X96685500Y-86880000D01*
X96551500Y-87444000D01*
X96487500Y-87646000D01*
X96168500Y-88363000D01*
X95745500Y-89086000D01*
X95332500Y-89618000D01*
X95268500Y-89679000D01*
X95041500Y-89827000D01*
X94698500Y-89850000D01*
X94694500Y-89850000D01*
X94363500Y-89822000D01*
X94161500Y-89663000D01*
X94104500Y-89599000D01*
X93925500Y-89352000D01*
X93812500Y-89035000D01*
X93744500Y-88538000D01*
X93703500Y-87752000D01*
X93688500Y-87299000D01*
X93650500Y-86358000D01*
X93605500Y-85817000D01*
X93578500Y-85702000D01*
X93430500Y-85590000D01*
X93211500Y-85578000D01*
X92731500Y-85627000D01*
X92533500Y-85666000D01*
X91658500Y-85694000D01*
X91293500Y-85586000D01*
X90824500Y-85224000D01*
X90694500Y-84776000D01*
X90756500Y-84311000D01*
X91096500Y-83847000D01*
X91131500Y-83812000D01*
X91511500Y-83487000D01*
X92024500Y-83204000D01*
X92730500Y-82909000D01*
X93472500Y-82621000D01*
X93433500Y-80585000D01*
X93417500Y-79422000D01*
X93424500Y-78695000D01*
X93451500Y-78402000D01*
X93714500Y-78209000D01*
X93951500Y-78240000D01*
G37*
G36*
X87505500Y-77783000D02*
G01*
X87499500Y-77873000D01*
X87412500Y-78027000D01*
X87182500Y-78335000D01*
X86746500Y-78891000D01*
X86682500Y-78972000D01*
X86300500Y-79471000D01*
X86054500Y-79866000D01*
X85808500Y-80387000D01*
X85730500Y-80564000D01*
X85388500Y-81412000D01*
X85210500Y-82075000D01*
X85143500Y-82691000D01*
X85166500Y-83409000D01*
X85370500Y-84054000D01*
X85498500Y-84321000D01*
X85984500Y-85078000D01*
X86644500Y-85659000D01*
X87090500Y-85934000D01*
X87972500Y-86323000D01*
X88939500Y-86576000D01*
X89512500Y-86633000D01*
X89962500Y-86708000D01*
X90179500Y-86876000D01*
X90063500Y-87058000D01*
X90042500Y-87068000D01*
X89841500Y-87267000D01*
X89583500Y-87443000D01*
X88941500Y-87625000D01*
X88483500Y-87719000D01*
X87975500Y-87774000D01*
X87350500Y-87794000D01*
X86868500Y-87772000D01*
X86821500Y-87764000D01*
X85873500Y-87543000D01*
X85197500Y-87307000D01*
X84624500Y-86993000D01*
X84479500Y-86898000D01*
X83583500Y-86118000D01*
X82938500Y-85121000D01*
X82754500Y-84708000D01*
X82548500Y-84092000D01*
X82470500Y-83464000D01*
X82475500Y-82828000D01*
X82517500Y-82171000D01*
X82612500Y-81687000D01*
X82648500Y-81562000D01*
X83287500Y-80176000D01*
X84284500Y-79008000D01*
X85559500Y-78139000D01*
X86290500Y-77831000D01*
X86932500Y-77666000D01*
X87373500Y-77663000D01*
X87505500Y-77783000D01*
G37*
D12*
%TO.C,TP1*%
X91754000Y-124146000D02*
X91754000Y-124266000D01*
X91754000Y-121606000D02*
X91754000Y-122936000D01*
X90424000Y-121606000D02*
X91754000Y-121606000D01*
X89094000Y-124266000D02*
X91754000Y-124266000D01*
X89094000Y-124146000D02*
X89094000Y-124266000D01*
%TO.C,U1*%
X78154002Y-123228566D02*
G75*
G02*
X77006850Y-124866874I-573576J-819154D01*
G01*
X87521285Y-127773334D02*
X79100402Y-121876967D01*
X79100402Y-121876967D02*
X78154002Y-123228566D01*
X77006851Y-124866872D02*
X76060449Y-126218474D01*
X84481331Y-132114841D02*
X87521285Y-127773334D01*
X76060449Y-126218474D02*
X84481331Y-132114841D01*
D13*
%TO.C,U2*%
X81783362Y-101830700D02*
X81658164Y-102540738D01*
X81366932Y-104192396D02*
X81217097Y-105042151D01*
X80925865Y-106693808D02*
X80776031Y-107543561D01*
X80484799Y-109195219D02*
X80334964Y-110044973D01*
X80043732Y-111696632D02*
X79893898Y-112546384D01*
X79602666Y-114198043D02*
X79452832Y-115047796D01*
X79161600Y-116699455D02*
X79011765Y-117549208D01*
X78700749Y-119313067D02*
X85204420Y-120459839D01*
X88622684Y-101073900D02*
X82388029Y-99974560D01*
X88161834Y-103687511D02*
X88311668Y-102837757D01*
X87720767Y-106188922D02*
X87870601Y-105339170D01*
X87279702Y-108690334D02*
X87429535Y-107840579D01*
X86838635Y-111191745D02*
X86988469Y-110341992D01*
X86397568Y-113693157D02*
X86547403Y-112843403D01*
X85956502Y-116194568D02*
X86106336Y-115344816D01*
X85515435Y-118695981D02*
X85665271Y-117846227D01*
X85671018Y-100553442D02*
G75*
G02*
X85070680Y-100447584I-300169J52930D01*
G01*
D14*
%TO.C,RV1*%
X100314477Y-137124160D02*
G75*
G02*
X100114479Y-137124160I-99999J0D01*
G01*
X100114479Y-137124160D02*
G75*
G02*
X100314477Y-137124160I99999J0D01*
G01*
D15*
X106413925Y-142439821D02*
X100038814Y-140731615D01*
X107007914Y-140223022D02*
X106416512Y-142430161D01*
X108225658Y-135678340D02*
X107665315Y-137769570D01*
X101850547Y-133970134D02*
X108225658Y-135678340D01*
X101290204Y-136061364D02*
X101850547Y-133970134D01*
X100041402Y-140721956D02*
X100632803Y-138514816D01*
D12*
%TO.C,D9*%
X84292000Y-77504000D02*
X84292000Y-77660000D01*
X84292000Y-79820000D02*
X84292000Y-79976000D01*
X84292000Y-77504484D02*
G75*
G02*
X87523437Y-77660000I1560000J-1235516D01*
G01*
X84811039Y-77660000D02*
G75*
G02*
X86892961Y-77660000I1040961J-1080000D01*
G01*
X86892961Y-79820000D02*
G75*
G02*
X84811039Y-79820000I-1040961J1080000D01*
G01*
X87523437Y-79820000D02*
G75*
G02*
X84292000Y-79975516I-1671437J1080000D01*
G01*
%TO.C,D10*%
X110200000Y-93252000D02*
X110200000Y-93408000D01*
X110200000Y-95568000D02*
X110200000Y-95724000D01*
X110200000Y-93252484D02*
G75*
G02*
X113431437Y-93408000I1560000J-1235516D01*
G01*
X110719039Y-93408000D02*
G75*
G02*
X112800961Y-93408000I1040961J-1080000D01*
G01*
X112800961Y-95568000D02*
G75*
G02*
X110719039Y-95568000I-1040961J1080000D01*
G01*
X113431437Y-95568000D02*
G75*
G02*
X110200000Y-95723516I-1671437J1080000D01*
G01*
%TO.C,TP2*%
X97342000Y-125162000D02*
X97342000Y-125282000D01*
X97342000Y-122622000D02*
X97342000Y-123952000D01*
X96012000Y-122622000D02*
X97342000Y-122622000D01*
X94682000Y-125282000D02*
X97342000Y-125282000D01*
X94682000Y-125162000D02*
X94682000Y-125282000D01*
%TO.C,R1*%
X102211396Y-108103653D02*
X101958601Y-107891535D01*
X100112435Y-106342416D02*
X100365228Y-106554537D01*
X98007567Y-113113583D02*
X102211396Y-108103653D01*
X97754771Y-112901464D02*
X98007567Y-113113583D01*
X96161399Y-111564467D02*
X95908604Y-111352345D01*
X95908604Y-111352345D02*
X100112435Y-106342416D01*
%TO.C,D5*%
X80990000Y-69884000D02*
X80990000Y-70040000D01*
X80990000Y-72200000D02*
X80990000Y-72356000D01*
X80990000Y-69884484D02*
G75*
G02*
X84221437Y-70040000I1560000J-1235516D01*
G01*
X81509039Y-70040000D02*
G75*
G02*
X83590961Y-70040000I1040961J-1080000D01*
G01*
X83590961Y-72200000D02*
G75*
G02*
X81509039Y-72200000I-1040961J1080000D01*
G01*
X84221437Y-72200000D02*
G75*
G02*
X80990000Y-72355516I-1671437J1080000D01*
G01*
%TO.C,D2*%
X80990000Y-94776000D02*
X80990000Y-94932000D01*
X80990000Y-97092000D02*
X80990000Y-97248000D01*
X80990000Y-94776484D02*
G75*
G02*
X84221437Y-94932000I1560000J-1235516D01*
G01*
X81509039Y-94932000D02*
G75*
G02*
X83590961Y-94932000I1040961J-1080000D01*
G01*
X83590961Y-97092000D02*
G75*
G02*
X81509039Y-97092000I-1040961J1080000D01*
G01*
X84221437Y-97092000D02*
G75*
G02*
X80990000Y-97247516I-1671437J1080000D01*
G01*
%TO.C,C1*%
X98811225Y-93013000D02*
X99311225Y-93013000D01*
X99061225Y-92763000D02*
X99061225Y-93263000D01*
X101616000Y-91908000D02*
X101616000Y-93448000D01*
X101616000Y-95528000D02*
X101616000Y-97068000D01*
X101656000Y-91908000D02*
X101656000Y-93448000D01*
X101656000Y-95528000D02*
X101656000Y-97068000D01*
X101696000Y-91909000D02*
X101696000Y-93448000D01*
X101696000Y-95528000D02*
X101696000Y-97067000D01*
X101736000Y-91911000D02*
X101736000Y-93448000D01*
X101736000Y-95528000D02*
X101736000Y-97065000D01*
X101776000Y-91913000D02*
X101776000Y-93448000D01*
X101776000Y-95528000D02*
X101776000Y-97063000D01*
X101816000Y-91916000D02*
X101816000Y-93448000D01*
X101816000Y-95528000D02*
X101816000Y-97060000D01*
X101856000Y-91919000D02*
X101856000Y-93448000D01*
X101856000Y-95528000D02*
X101856000Y-97057000D01*
X101896000Y-91923000D02*
X101896000Y-93448000D01*
X101896000Y-95528000D02*
X101896000Y-97053000D01*
X101936000Y-91928000D02*
X101936000Y-93448000D01*
X101936000Y-95528000D02*
X101936000Y-97048000D01*
X101976000Y-91933000D02*
X101976000Y-93448000D01*
X101976000Y-95528000D02*
X101976000Y-97043000D01*
X102016000Y-91939000D02*
X102016000Y-93448000D01*
X102016000Y-95528000D02*
X102016000Y-97037000D01*
X102056000Y-91945000D02*
X102056000Y-93448000D01*
X102056000Y-95528000D02*
X102056000Y-97031000D01*
X102096000Y-91952000D02*
X102096000Y-93448000D01*
X102096000Y-95528000D02*
X102096000Y-97024000D01*
X102136000Y-91960000D02*
X102136000Y-93448000D01*
X102136000Y-95528000D02*
X102136000Y-97016000D01*
X102176000Y-91969000D02*
X102176000Y-93448000D01*
X102176000Y-95528000D02*
X102176000Y-97007000D01*
X102216000Y-91978000D02*
X102216000Y-93448000D01*
X102216000Y-95528000D02*
X102216000Y-96998000D01*
X102256000Y-91987000D02*
X102256000Y-93448000D01*
X102256000Y-95528000D02*
X102256000Y-96989000D01*
X102296000Y-91998000D02*
X102296000Y-93448000D01*
X102296000Y-95528000D02*
X102296000Y-96978000D01*
X102336000Y-92009000D02*
X102336000Y-93448000D01*
X102336000Y-95528000D02*
X102336000Y-96967000D01*
X102376000Y-92021000D02*
X102376000Y-93448000D01*
X102376000Y-95528000D02*
X102376000Y-96955000D01*
X102416000Y-92033000D02*
X102416000Y-93448000D01*
X102416000Y-95528000D02*
X102416000Y-96943000D01*
X102456000Y-92046000D02*
X102456000Y-93448000D01*
X102456000Y-95528000D02*
X102456000Y-96930000D01*
X102496000Y-92060000D02*
X102496000Y-93448000D01*
X102496000Y-95528000D02*
X102496000Y-96916000D01*
X102536000Y-92075000D02*
X102536000Y-93448000D01*
X102536000Y-95528000D02*
X102536000Y-96901000D01*
X102576000Y-92090000D02*
X102576000Y-93448000D01*
X102576000Y-95528000D02*
X102576000Y-96886000D01*
X102616000Y-92106000D02*
X102616000Y-93448000D01*
X102616000Y-95528000D02*
X102616000Y-96870000D01*
X102656000Y-92123000D02*
X102656000Y-93448000D01*
X102656000Y-95528000D02*
X102656000Y-96853000D01*
X102696000Y-92141000D02*
X102696000Y-93448000D01*
X102696000Y-95528000D02*
X102696000Y-96835000D01*
X102736000Y-92159000D02*
X102736000Y-93448000D01*
X102736000Y-95528000D02*
X102736000Y-96817000D01*
X102776000Y-92179000D02*
X102776000Y-93448000D01*
X102776000Y-95528000D02*
X102776000Y-96797000D01*
X102816000Y-92199000D02*
X102816000Y-93448000D01*
X102816000Y-95528000D02*
X102816000Y-96777000D01*
X102856000Y-92220000D02*
X102856000Y-93448000D01*
X102856000Y-95528000D02*
X102856000Y-96756000D01*
X102896000Y-92242000D02*
X102896000Y-93448000D01*
X102896000Y-95528000D02*
X102896000Y-96734000D01*
X102936000Y-92265000D02*
X102936000Y-93448000D01*
X102936000Y-95528000D02*
X102936000Y-96711000D01*
X102976000Y-92289000D02*
X102976000Y-93448000D01*
X102976000Y-95528000D02*
X102976000Y-96687000D01*
X103016000Y-92313000D02*
X103016000Y-93448000D01*
X103016000Y-95528000D02*
X103016000Y-96663000D01*
X103056000Y-92339000D02*
X103056000Y-93448000D01*
X103056000Y-95528000D02*
X103056000Y-96637000D01*
X103096000Y-92366000D02*
X103096000Y-93448000D01*
X103096000Y-95528000D02*
X103096000Y-96610000D01*
X103136000Y-92394000D02*
X103136000Y-93448000D01*
X103136000Y-95528000D02*
X103136000Y-96582000D01*
X103176000Y-92423000D02*
X103176000Y-93448000D01*
X103176000Y-95528000D02*
X103176000Y-96553000D01*
X103216000Y-92453000D02*
X103216000Y-93448000D01*
X103216000Y-95528000D02*
X103216000Y-96523000D01*
X103256000Y-92485000D02*
X103256000Y-93448000D01*
X103256000Y-95528000D02*
X103256000Y-96491000D01*
X103296000Y-92518000D02*
X103296000Y-93448000D01*
X103296000Y-95528000D02*
X103296000Y-96458000D01*
X103336000Y-92552000D02*
X103336000Y-93448000D01*
X103336000Y-95528000D02*
X103336000Y-96424000D01*
X103376000Y-92587000D02*
X103376000Y-93448000D01*
X103376000Y-95528000D02*
X103376000Y-96389000D01*
X103416000Y-92624000D02*
X103416000Y-93448000D01*
X103416000Y-95528000D02*
X103416000Y-96352000D01*
X103456000Y-92663000D02*
X103456000Y-93448000D01*
X103456000Y-95528000D02*
X103456000Y-96313000D01*
X103496000Y-92703000D02*
X103496000Y-93448000D01*
X103496000Y-95528000D02*
X103496000Y-96273000D01*
X103536000Y-92745000D02*
X103536000Y-93448000D01*
X103536000Y-95528000D02*
X103536000Y-96231000D01*
X103576000Y-92789000D02*
X103576000Y-93448000D01*
X103576000Y-95528000D02*
X103576000Y-96187000D01*
X103616000Y-92836000D02*
X103616000Y-93448000D01*
X103616000Y-95528000D02*
X103616000Y-96140000D01*
X103656000Y-92884000D02*
X103656000Y-96092000D01*
X103696000Y-92935000D02*
X103696000Y-96041000D01*
X103736000Y-92989000D02*
X103736000Y-95987000D01*
X103776000Y-93045000D02*
X103776000Y-95931000D01*
X103816000Y-93105000D02*
X103816000Y-95871000D01*
X103856000Y-93169000D02*
X103856000Y-95807000D01*
X103896000Y-93237000D02*
X103896000Y-95739000D01*
X103936000Y-93311000D02*
X103936000Y-95665000D01*
X103976000Y-93390000D02*
X103976000Y-95586000D01*
X104016000Y-93477000D02*
X104016000Y-95499000D01*
X104056000Y-93574000D02*
X104056000Y-95402000D01*
X104096000Y-93683000D02*
X104096000Y-95293000D01*
X104136000Y-93811000D02*
X104136000Y-95165000D01*
X104176000Y-93971000D02*
X104176000Y-95005000D01*
X104216000Y-94205000D02*
X104216000Y-94771000D01*
X104236000Y-94488000D02*
G75*
G02*
X98996000Y-94488000I-2620000J0D01*
G01*
X98996000Y-94488000D02*
G75*
G02*
X104236000Y-94488000I2620000J0D01*
G01*
%TO.C,D4*%
X95468000Y-101888000D02*
X95468000Y-102044000D01*
X95468000Y-104204000D02*
X95468000Y-104360000D01*
X95468000Y-101888484D02*
G75*
G02*
X98699437Y-102044000I1560000J-1235516D01*
G01*
X95987039Y-102044000D02*
G75*
G02*
X98068961Y-102044000I1040961J-1080000D01*
G01*
X98068961Y-104204000D02*
G75*
G02*
X95987039Y-104204000I-1040961J1080000D01*
G01*
X98699437Y-104204000D02*
G75*
G02*
X95468000Y-104359516I-1671437J1080000D01*
G01*
%TO.C,C2*%
X93223225Y-95045000D02*
X93723225Y-95045000D01*
X93473225Y-94795000D02*
X93473225Y-95295000D01*
X96028000Y-93940000D02*
X96028000Y-95480000D01*
X96028000Y-97560000D02*
X96028000Y-99100000D01*
X96068000Y-93940000D02*
X96068000Y-95480000D01*
X96068000Y-97560000D02*
X96068000Y-99100000D01*
X96108000Y-93941000D02*
X96108000Y-95480000D01*
X96108000Y-97560000D02*
X96108000Y-99099000D01*
X96148000Y-93943000D02*
X96148000Y-95480000D01*
X96148000Y-97560000D02*
X96148000Y-99097000D01*
X96188000Y-93945000D02*
X96188000Y-95480000D01*
X96188000Y-97560000D02*
X96188000Y-99095000D01*
X96228000Y-93948000D02*
X96228000Y-95480000D01*
X96228000Y-97560000D02*
X96228000Y-99092000D01*
X96268000Y-93951000D02*
X96268000Y-95480000D01*
X96268000Y-97560000D02*
X96268000Y-99089000D01*
X96308000Y-93955000D02*
X96308000Y-95480000D01*
X96308000Y-97560000D02*
X96308000Y-99085000D01*
X96348000Y-93960000D02*
X96348000Y-95480000D01*
X96348000Y-97560000D02*
X96348000Y-99080000D01*
X96388000Y-93965000D02*
X96388000Y-95480000D01*
X96388000Y-97560000D02*
X96388000Y-99075000D01*
X96428000Y-93971000D02*
X96428000Y-95480000D01*
X96428000Y-97560000D02*
X96428000Y-99069000D01*
X96468000Y-93977000D02*
X96468000Y-95480000D01*
X96468000Y-97560000D02*
X96468000Y-99063000D01*
X96508000Y-93984000D02*
X96508000Y-95480000D01*
X96508000Y-97560000D02*
X96508000Y-99056000D01*
X96548000Y-93992000D02*
X96548000Y-95480000D01*
X96548000Y-97560000D02*
X96548000Y-99048000D01*
X96588000Y-94001000D02*
X96588000Y-95480000D01*
X96588000Y-97560000D02*
X96588000Y-99039000D01*
X96628000Y-94010000D02*
X96628000Y-95480000D01*
X96628000Y-97560000D02*
X96628000Y-99030000D01*
X96668000Y-94019000D02*
X96668000Y-95480000D01*
X96668000Y-97560000D02*
X96668000Y-99021000D01*
X96708000Y-94030000D02*
X96708000Y-95480000D01*
X96708000Y-97560000D02*
X96708000Y-99010000D01*
X96748000Y-94041000D02*
X96748000Y-95480000D01*
X96748000Y-97560000D02*
X96748000Y-98999000D01*
X96788000Y-94053000D02*
X96788000Y-95480000D01*
X96788000Y-97560000D02*
X96788000Y-98987000D01*
X96828000Y-94065000D02*
X96828000Y-95480000D01*
X96828000Y-97560000D02*
X96828000Y-98975000D01*
X96868000Y-94078000D02*
X96868000Y-95480000D01*
X96868000Y-97560000D02*
X96868000Y-98962000D01*
X96908000Y-94092000D02*
X96908000Y-95480000D01*
X96908000Y-97560000D02*
X96908000Y-98948000D01*
X96948000Y-94107000D02*
X96948000Y-95480000D01*
X96948000Y-97560000D02*
X96948000Y-98933000D01*
X96988000Y-94122000D02*
X96988000Y-95480000D01*
X96988000Y-97560000D02*
X96988000Y-98918000D01*
X97028000Y-94138000D02*
X97028000Y-95480000D01*
X97028000Y-97560000D02*
X97028000Y-98902000D01*
X97068000Y-94155000D02*
X97068000Y-95480000D01*
X97068000Y-97560000D02*
X97068000Y-98885000D01*
X97108000Y-94173000D02*
X97108000Y-95480000D01*
X97108000Y-97560000D02*
X97108000Y-98867000D01*
X97148000Y-94191000D02*
X97148000Y-95480000D01*
X97148000Y-97560000D02*
X97148000Y-98849000D01*
X97188000Y-94211000D02*
X97188000Y-95480000D01*
X97188000Y-97560000D02*
X97188000Y-98829000D01*
X97228000Y-94231000D02*
X97228000Y-95480000D01*
X97228000Y-97560000D02*
X97228000Y-98809000D01*
X97268000Y-94252000D02*
X97268000Y-95480000D01*
X97268000Y-97560000D02*
X97268000Y-98788000D01*
X97308000Y-94274000D02*
X97308000Y-95480000D01*
X97308000Y-97560000D02*
X97308000Y-98766000D01*
X97348000Y-94297000D02*
X97348000Y-95480000D01*
X97348000Y-97560000D02*
X97348000Y-98743000D01*
X97388000Y-94321000D02*
X97388000Y-95480000D01*
X97388000Y-97560000D02*
X97388000Y-98719000D01*
X97428000Y-94345000D02*
X97428000Y-95480000D01*
X97428000Y-97560000D02*
X97428000Y-98695000D01*
X97468000Y-94371000D02*
X97468000Y-95480000D01*
X97468000Y-97560000D02*
X97468000Y-98669000D01*
X97508000Y-94398000D02*
X97508000Y-95480000D01*
X97508000Y-97560000D02*
X97508000Y-98642000D01*
X97548000Y-94426000D02*
X97548000Y-95480000D01*
X97548000Y-97560000D02*
X97548000Y-98614000D01*
X97588000Y-94455000D02*
X97588000Y-95480000D01*
X97588000Y-97560000D02*
X97588000Y-98585000D01*
X97628000Y-94485000D02*
X97628000Y-95480000D01*
X97628000Y-97560000D02*
X97628000Y-98555000D01*
X97668000Y-94517000D02*
X97668000Y-95480000D01*
X97668000Y-97560000D02*
X97668000Y-98523000D01*
X97708000Y-94550000D02*
X97708000Y-95480000D01*
X97708000Y-97560000D02*
X97708000Y-98490000D01*
X97748000Y-94584000D02*
X97748000Y-95480000D01*
X97748000Y-97560000D02*
X97748000Y-98456000D01*
X97788000Y-94619000D02*
X97788000Y-95480000D01*
X97788000Y-97560000D02*
X97788000Y-98421000D01*
X97828000Y-94656000D02*
X97828000Y-95480000D01*
X97828000Y-97560000D02*
X97828000Y-98384000D01*
X97868000Y-94695000D02*
X97868000Y-95480000D01*
X97868000Y-97560000D02*
X97868000Y-98345000D01*
X97908000Y-94735000D02*
X97908000Y-95480000D01*
X97908000Y-97560000D02*
X97908000Y-98305000D01*
X97948000Y-94777000D02*
X97948000Y-95480000D01*
X97948000Y-97560000D02*
X97948000Y-98263000D01*
X97988000Y-94821000D02*
X97988000Y-95480000D01*
X97988000Y-97560000D02*
X97988000Y-98219000D01*
X98028000Y-94868000D02*
X98028000Y-95480000D01*
X98028000Y-97560000D02*
X98028000Y-98172000D01*
X98068000Y-94916000D02*
X98068000Y-98124000D01*
X98108000Y-94967000D02*
X98108000Y-98073000D01*
X98148000Y-95021000D02*
X98148000Y-98019000D01*
X98188000Y-95077000D02*
X98188000Y-97963000D01*
X98228000Y-95137000D02*
X98228000Y-97903000D01*
X98268000Y-95201000D02*
X98268000Y-97839000D01*
X98308000Y-95269000D02*
X98308000Y-97771000D01*
X98348000Y-95343000D02*
X98348000Y-97697000D01*
X98388000Y-95422000D02*
X98388000Y-97618000D01*
X98428000Y-95509000D02*
X98428000Y-97531000D01*
X98468000Y-95606000D02*
X98468000Y-97434000D01*
X98508000Y-95715000D02*
X98508000Y-97325000D01*
X98548000Y-95843000D02*
X98548000Y-97197000D01*
X98588000Y-96003000D02*
X98588000Y-97037000D01*
X98628000Y-96237000D02*
X98628000Y-96803000D01*
X98648000Y-96520000D02*
G75*
G02*
X93408000Y-96520000I-2620000J0D01*
G01*
X93408000Y-96520000D02*
G75*
G02*
X98648000Y-96520000I2620000J0D01*
G01*
D11*
%TO.C,DESIGN1*%
G36*
X79206000Y-59525000D02*
G01*
X79522000Y-59926000D01*
X79556000Y-59969000D01*
X80010000Y-60552000D01*
X79971000Y-61858000D01*
X79950000Y-62744000D01*
X79938000Y-63587000D01*
X79937000Y-63977000D01*
X79915000Y-64748000D01*
X79860000Y-65339000D01*
X79785000Y-65924000D01*
X79806000Y-66243000D01*
X79936000Y-66467000D01*
X79957000Y-66493000D01*
X80368000Y-66976000D01*
X80827000Y-67509000D01*
X81243000Y-67983000D01*
X81522000Y-68294000D01*
X81586000Y-68358000D01*
X81775000Y-68274000D01*
X81932000Y-68197000D01*
X82371000Y-68010000D01*
X82499000Y-67969000D01*
X83018000Y-67762000D01*
X83583000Y-67454000D01*
X83606000Y-67439000D01*
X84087000Y-67242000D01*
X84624000Y-67145000D01*
X84713000Y-67146000D01*
X84916000Y-67163000D01*
X84958000Y-67673000D01*
X85000000Y-68183000D01*
X84529000Y-69312000D01*
X84059000Y-70440000D01*
X84280000Y-70691000D01*
X84583000Y-71068000D01*
X84650000Y-71163000D01*
X84902000Y-71486000D01*
X85223000Y-71858000D01*
X85547000Y-72229000D01*
X85698000Y-72421000D01*
X85893000Y-72621000D01*
X86064000Y-72767000D01*
X86378000Y-73093000D01*
X86471000Y-73301000D01*
X86589000Y-73579000D01*
X86614000Y-73610000D01*
X86665000Y-73816000D01*
X86666000Y-73831000D01*
X86606000Y-74021000D01*
X86429000Y-74089000D01*
X85818000Y-74154000D01*
X85138000Y-74083000D01*
X85027000Y-74054000D01*
X84647000Y-73927000D01*
X84007000Y-73698000D01*
X83423000Y-73485000D01*
X82750000Y-73245000D01*
X82274000Y-73093000D01*
X82111000Y-73061000D01*
X82010000Y-73274000D01*
X81787000Y-73781000D01*
X81529000Y-74386000D01*
X81169000Y-75220000D01*
X80922000Y-75733000D01*
X80738000Y-76014000D01*
X80566000Y-76154000D01*
X80526000Y-76175000D01*
X80316000Y-76233000D01*
X80231000Y-76172000D01*
X80085000Y-75919000D01*
X79987000Y-75405000D01*
X79941000Y-74936000D01*
X79876000Y-74206000D01*
X79810000Y-73588000D01*
X79758000Y-73212000D01*
X79739000Y-73154000D01*
X79740000Y-73368000D01*
X79760000Y-73921000D01*
X79794000Y-74708000D01*
X79808000Y-75002000D01*
X79848000Y-76035000D01*
X79874000Y-77160000D01*
X79888000Y-78277000D01*
X79887000Y-79289000D01*
X79873000Y-80095000D01*
X79844000Y-80599000D01*
X79827000Y-80697000D01*
X79775000Y-81045000D01*
X79747000Y-81469000D01*
X79674000Y-84251000D01*
X79671000Y-86766000D01*
X79720000Y-88719000D01*
X79750000Y-89575000D01*
X79787000Y-90675000D01*
X79824000Y-91819000D01*
X79833000Y-92136000D01*
X79873000Y-93245000D01*
X79913000Y-93968000D01*
X79956000Y-94362000D01*
X79976000Y-94443000D01*
X80042000Y-94850000D01*
X80054000Y-95151000D01*
X80075000Y-95534000D01*
X80107000Y-95636000D01*
X80310000Y-95533000D01*
X80512000Y-95410000D01*
X80866000Y-95184000D01*
X80768000Y-94798000D01*
X80629000Y-94109000D01*
X80495000Y-93228000D01*
X80400000Y-92400000D01*
X80378000Y-92052000D01*
X80360000Y-91497000D01*
X80644000Y-91480000D01*
X80908000Y-91496000D01*
X81165000Y-91663000D01*
X81256000Y-91738000D01*
X82085000Y-92672000D01*
X82331000Y-93049000D01*
X82659000Y-93524000D01*
X82818000Y-93720000D01*
X83069000Y-94005000D01*
X83760000Y-93648000D01*
X84564000Y-93264000D01*
X85128000Y-93078000D01*
X85330000Y-93047000D01*
X85781000Y-93003000D01*
X85901000Y-92991000D01*
X86198000Y-92990000D01*
X86253000Y-93043000D01*
X86199000Y-93306000D01*
X86008000Y-93819000D01*
X85736000Y-94432000D01*
X85651000Y-94608000D01*
X85293000Y-95242000D01*
X84960000Y-95703000D01*
X84895000Y-95769000D01*
X84790000Y-95950000D01*
X84969000Y-96157000D01*
X85222000Y-96421000D01*
X85637000Y-96883000D01*
X85832000Y-97108000D01*
X86419000Y-97840000D01*
X86727000Y-98345000D01*
X86760000Y-98543000D01*
X86495000Y-98660000D01*
X85918000Y-98635000D01*
X85130000Y-98487000D01*
X84233000Y-98232000D01*
X83575000Y-97992000D01*
X83195000Y-97851000D01*
X83050000Y-97853000D01*
X83021000Y-97884000D01*
X82917000Y-98130000D01*
X82732000Y-98650000D01*
X82637000Y-98929000D01*
X82276000Y-99945000D01*
X81999000Y-100560000D01*
X81794000Y-100806000D01*
X81791000Y-100807000D01*
X81447000Y-100856000D01*
X81190000Y-100797000D01*
X81183000Y-100788000D01*
X81159000Y-100548000D01*
X81142000Y-99990000D01*
X81136000Y-99330000D01*
X81134000Y-97941000D01*
X80968000Y-97948000D01*
X80633000Y-98040000D01*
X80526000Y-98087000D01*
X80249000Y-98219000D01*
X80204000Y-99524000D01*
X80184000Y-100468000D01*
X80185000Y-101357000D01*
X80205000Y-102068000D01*
X80243000Y-102475000D01*
X80249000Y-102497000D01*
X80199000Y-102637000D01*
X79923000Y-102902000D01*
X79743000Y-103052000D01*
X79344000Y-103377000D01*
X79125000Y-103544000D01*
X79123000Y-103545000D01*
X79098000Y-103518000D01*
X79079000Y-103370000D01*
X79065000Y-103054000D01*
X79056000Y-102520000D01*
X79052000Y-101720000D01*
X79051000Y-100606000D01*
X79054000Y-99129000D01*
X79058000Y-97906000D01*
X79060000Y-96716000D01*
X79061000Y-95135000D01*
X79061000Y-93213000D01*
X79059000Y-91004000D01*
X79056000Y-88561000D01*
X79053000Y-85935000D01*
X79048000Y-83179000D01*
X79043000Y-80345000D01*
X79036000Y-77486000D01*
X79032000Y-75747000D01*
X79023000Y-72195000D01*
X79017000Y-69084000D01*
X79013000Y-66410000D01*
X79013000Y-64169000D01*
X79014000Y-62358000D01*
X79018000Y-60973000D01*
X79025000Y-60011000D01*
X79035000Y-59466000D01*
X79045000Y-59330000D01*
X79206000Y-59525000D01*
G37*
G36*
X76856000Y-113662000D02*
G01*
X77712000Y-114839000D01*
X78817000Y-115938000D01*
X79908000Y-116730000D01*
X80754000Y-117165000D01*
X81714000Y-117572000D01*
X82040000Y-117688000D01*
X82536000Y-117830000D01*
X83261000Y-118010000D01*
X83693000Y-118109000D01*
X84349000Y-118258000D01*
X84794000Y-118365000D01*
X84907000Y-118398000D01*
X85046000Y-118662000D01*
X85137000Y-119082000D01*
X85138000Y-119399000D01*
X85064000Y-119526000D01*
X84953000Y-119663000D01*
X82962000Y-119698000D01*
X81942000Y-119712000D01*
X81282000Y-119710000D01*
X80898000Y-119690000D01*
X80730000Y-119660000D01*
X80272000Y-119447000D01*
X79617000Y-119054000D01*
X78972000Y-118612000D01*
X78610000Y-118355000D01*
X78469000Y-118304000D01*
X78424000Y-118372000D01*
X78386000Y-118655000D01*
X78353000Y-119201000D01*
X78347000Y-119358000D01*
X78341000Y-120032000D01*
X78383000Y-120470000D01*
X78412000Y-120607000D01*
X78481000Y-121036000D01*
X78563000Y-121730000D01*
X78614000Y-122266000D01*
X79077000Y-125394000D01*
X79472000Y-126997000D01*
X79773000Y-127955000D01*
X80156000Y-128924000D01*
X80688000Y-130067000D01*
X80869000Y-130433000D01*
X81297000Y-131258000D01*
X81733000Y-132023000D01*
X82278000Y-132894000D01*
X82648000Y-133462000D01*
X83001000Y-134006000D01*
X83224000Y-134363000D01*
X83265000Y-134442000D01*
X83084000Y-134357000D01*
X82667000Y-134131000D01*
X82638000Y-134114000D01*
X81752000Y-133587000D01*
X80630000Y-132875000D01*
X79391000Y-132058000D01*
X78158000Y-131217000D01*
X77049000Y-130430000D01*
X76715000Y-130184000D01*
X75834000Y-129518000D01*
X75217000Y-129026000D01*
X74768000Y-128624000D01*
X74389000Y-128229000D01*
X74287000Y-128113000D01*
X73932000Y-127734000D01*
X73714000Y-127550000D01*
X73711000Y-127549000D01*
X73618000Y-127448000D01*
X73633000Y-127240000D01*
X73780000Y-126592000D01*
X74033000Y-125826000D01*
X74143000Y-125552000D01*
X74413000Y-125001000D01*
X74807000Y-124336000D01*
X75384000Y-123459000D01*
X75710000Y-122983000D01*
X76372000Y-121985000D01*
X76788000Y-121238000D01*
X76997000Y-120652000D01*
X77038000Y-120135000D01*
X77012000Y-119901000D01*
X76978000Y-119510000D01*
X76940000Y-118796000D01*
X76905000Y-117881000D01*
X76890000Y-117358000D01*
X76853000Y-115975000D01*
X76828000Y-114977000D01*
X76815000Y-114304000D01*
X76812000Y-113897000D01*
X76819000Y-113695000D01*
X76835000Y-113639000D01*
X76856000Y-113662000D01*
G37*
G36*
X96443000Y-101094000D02*
G01*
X96283000Y-101221000D01*
X95977000Y-101432000D01*
X95342000Y-101949000D01*
X94997000Y-102451000D01*
X94881000Y-102790000D01*
X94866000Y-103148000D01*
X94901000Y-103552000D01*
X95052000Y-103875000D01*
X95060000Y-103888000D01*
X95640000Y-104623000D01*
X96086000Y-104910000D01*
X96952000Y-105014000D01*
X97845000Y-104752000D01*
X98207000Y-104525000D01*
X98561000Y-104280000D01*
X98662000Y-104221000D01*
X98912000Y-103975000D01*
X99034000Y-103548000D01*
X99106000Y-102966000D01*
X99110000Y-102823000D01*
X99060000Y-102513000D01*
X98889000Y-102261000D01*
X98496000Y-101874000D01*
X98050000Y-101776000D01*
X97746000Y-101803000D01*
X97032000Y-101999000D01*
X96599000Y-102281000D01*
X96336000Y-102698000D01*
X96143000Y-103197000D01*
X96129000Y-103264000D01*
X96254000Y-103714000D01*
X96478000Y-103885000D01*
X96756000Y-103959000D01*
X97134000Y-103946000D01*
X97603000Y-103855000D01*
X97799000Y-103622000D01*
X97828000Y-103516000D01*
X97765000Y-103108000D01*
X97638000Y-103015000D01*
X97448000Y-103009000D01*
X97338000Y-103103000D01*
X97034000Y-103235000D01*
X96840000Y-103117000D01*
X96923000Y-102849000D01*
X96925000Y-102847000D01*
X97394000Y-102591000D01*
X97902000Y-102658000D01*
X98177000Y-102904000D01*
X98298000Y-103419000D01*
X98185000Y-103921000D01*
X97922000Y-104190000D01*
X97459000Y-104310000D01*
X96935000Y-104330000D01*
X96440000Y-104324000D01*
X96203000Y-104283000D01*
X96036000Y-104172000D01*
X96024000Y-104162000D01*
X95681000Y-103722000D01*
X95610000Y-103223000D01*
X95738000Y-102575000D01*
X96142000Y-102047000D01*
X96572000Y-101736000D01*
X96700000Y-101693000D01*
X97130000Y-101576000D01*
X97441000Y-101490000D01*
X98218000Y-101362000D01*
X98737000Y-101433000D01*
X99089000Y-101704000D01*
X99416000Y-102107000D01*
X99475000Y-102220000D01*
X99540000Y-102602000D01*
X99554000Y-103150000D01*
X99528000Y-103818000D01*
X99386000Y-104222000D01*
X99032000Y-104543000D01*
X98706000Y-104753000D01*
X97654000Y-105288000D01*
X96756000Y-105464000D01*
X96099000Y-105362000D01*
X95201000Y-104874000D01*
X94801000Y-104408000D01*
X94492000Y-103604000D01*
X94472000Y-102747000D01*
X94738000Y-102017000D01*
X94836000Y-101890000D01*
X95222000Y-101574000D01*
X95745000Y-101265000D01*
X96175000Y-101096000D01*
X96198000Y-101093000D01*
X96433000Y-101087000D01*
X96443000Y-101094000D01*
G37*
G36*
X93490000Y-78020000D02*
G01*
X93693000Y-78228000D01*
X93866000Y-78454000D01*
X94167000Y-78857000D01*
X94707000Y-79562000D01*
X95451000Y-80521000D01*
X96363000Y-81688000D01*
X97196000Y-82750000D01*
X97754000Y-83462000D01*
X98267000Y-84119000D01*
X98582000Y-84526000D01*
X99057000Y-85141000D01*
X99584000Y-85824000D01*
X100077000Y-86461000D01*
X100450000Y-86941000D01*
X100596000Y-87128000D01*
X100710000Y-87314000D01*
X100635000Y-87396000D01*
X100325000Y-87457000D01*
X99788000Y-87454000D01*
X99236000Y-87397000D01*
X98971000Y-87335000D01*
X98374000Y-87080000D01*
X97655000Y-86717000D01*
X97017000Y-86351000D01*
X96749000Y-86168000D01*
X96360000Y-85863000D01*
X96324000Y-86069000D01*
X96258000Y-86454000D01*
X96224000Y-86660000D01*
X96090000Y-87224000D01*
X96026000Y-87426000D01*
X95707000Y-88143000D01*
X95284000Y-88866000D01*
X94871000Y-89398000D01*
X94807000Y-89459000D01*
X94580000Y-89607000D01*
X94237000Y-89630000D01*
X94233000Y-89630000D01*
X93902000Y-89602000D01*
X93700000Y-89443000D01*
X93643000Y-89379000D01*
X93464000Y-89132000D01*
X93351000Y-88815000D01*
X93283000Y-88318000D01*
X93242000Y-87532000D01*
X93227000Y-87079000D01*
X93189000Y-86138000D01*
X93144000Y-85597000D01*
X93117000Y-85482000D01*
X92969000Y-85370000D01*
X92750000Y-85358000D01*
X92270000Y-85407000D01*
X92072000Y-85446000D01*
X91197000Y-85474000D01*
X90832000Y-85366000D01*
X90363000Y-85004000D01*
X90233000Y-84556000D01*
X90295000Y-84091000D01*
X90635000Y-83627000D01*
X90670000Y-83592000D01*
X91050000Y-83267000D01*
X91563000Y-82984000D01*
X92269000Y-82689000D01*
X93011000Y-82401000D01*
X92972000Y-80365000D01*
X92956000Y-79202000D01*
X92963000Y-78475000D01*
X92990000Y-78182000D01*
X93253000Y-77989000D01*
X93490000Y-78020000D01*
G37*
G36*
X101717000Y-106008000D02*
G01*
X101552000Y-106259000D01*
X101211000Y-106727000D01*
X100653000Y-107468000D01*
X100355000Y-107860000D01*
X99765000Y-108653000D01*
X99190000Y-109456000D01*
X98820000Y-109997000D01*
X98340000Y-110690000D01*
X97748000Y-111502000D01*
X97393000Y-111969000D01*
X96887000Y-112634000D01*
X96556000Y-113118000D01*
X96295000Y-113583000D01*
X96161000Y-113851000D01*
X95788000Y-114552000D01*
X95327000Y-115338000D01*
X95180000Y-115573000D01*
X94652000Y-116423000D01*
X94016000Y-117481000D01*
X93358000Y-118600000D01*
X92765000Y-119632000D01*
X92333000Y-120413000D01*
X91908000Y-121151000D01*
X91425000Y-121916000D01*
X91352000Y-122024000D01*
X90940000Y-122629000D01*
X90594000Y-123140000D01*
X90525000Y-123242000D01*
X90186000Y-123652000D01*
X89945000Y-123692000D01*
X89944000Y-123692000D01*
X89901000Y-123635000D01*
X89944000Y-123494000D01*
X90116000Y-123182000D01*
X90462000Y-122610000D01*
X90635000Y-122330000D01*
X91061000Y-121621000D01*
X91609000Y-120687000D01*
X92183000Y-119691000D01*
X92388000Y-119330000D01*
X93000000Y-118260000D01*
X93676000Y-117100000D01*
X94290000Y-116061000D01*
X94426000Y-115834000D01*
X94914000Y-115015000D01*
X95343000Y-114276000D01*
X95634000Y-113750000D01*
X95677000Y-113668000D01*
X95854000Y-113323000D01*
X96026000Y-113025000D01*
X96263000Y-112668000D01*
X96635000Y-112144000D01*
X97084000Y-111524000D01*
X97620000Y-110780000D01*
X98140000Y-110049000D01*
X98391000Y-109693000D01*
X98896000Y-109001000D01*
X99424000Y-108325000D01*
X99465000Y-108276000D01*
X99866000Y-107816000D01*
X100375000Y-107264000D01*
X100904000Y-106710000D01*
X101365000Y-106247000D01*
X101671000Y-105963000D01*
X101744000Y-105918000D01*
X101717000Y-106008000D01*
G37*
G36*
X85051000Y-103333000D02*
G01*
X84923000Y-103415000D01*
X84735000Y-103512000D01*
X84665000Y-103596000D01*
X84895000Y-103608000D01*
X85168000Y-103646000D01*
X85223000Y-103724000D01*
X85225000Y-103907000D01*
X85001000Y-103983000D01*
X84512000Y-104074000D01*
X84466000Y-104081000D01*
X82907000Y-104437000D01*
X81418000Y-105009000D01*
X80180000Y-105727000D01*
X80138000Y-105758000D01*
X79524000Y-106284000D01*
X78872000Y-106944000D01*
X78359000Y-107556000D01*
X78285000Y-107663000D01*
X77506000Y-109167000D01*
X77164000Y-110655000D01*
X77261000Y-112113000D01*
X77392000Y-112594000D01*
X77848000Y-113691000D01*
X78424000Y-114552000D01*
X79015000Y-115236000D01*
X79589000Y-115744000D01*
X79947000Y-116002000D01*
X81373000Y-116808000D01*
X82988000Y-117354000D01*
X83339000Y-117437000D01*
X83827000Y-117539000D01*
X84075000Y-117580000D01*
X84166000Y-117719000D01*
X84105000Y-117839000D01*
X83851000Y-117835000D01*
X83289000Y-117704000D01*
X83245000Y-117693000D01*
X82505000Y-117449000D01*
X81606000Y-117085000D01*
X80762000Y-116694000D01*
X80298000Y-116439000D01*
X79190000Y-115650000D01*
X78215000Y-114774000D01*
X77699000Y-114184000D01*
X77213000Y-113370000D01*
X76808000Y-112400000D01*
X76634000Y-111752000D01*
X76572000Y-110438000D01*
X76751000Y-109274000D01*
X76956000Y-108724000D01*
X77297000Y-108026000D01*
X77662000Y-107401000D01*
X77771000Y-107247000D01*
X78671000Y-106258000D01*
X79845000Y-105338000D01*
X80283000Y-105050000D01*
X81107000Y-104557000D01*
X81834000Y-104209000D01*
X82720000Y-103883000D01*
X82721000Y-103883000D01*
X83322000Y-103695000D01*
X84016000Y-103498000D01*
X84643000Y-103336000D01*
X85046000Y-103251000D01*
X85095000Y-103247000D01*
X85051000Y-103333000D01*
G37*
G36*
X104554000Y-105569000D02*
G01*
X104554000Y-105591000D01*
X104458000Y-105877000D01*
X104195000Y-106481000D01*
X103801000Y-107324000D01*
X103317000Y-108330000D01*
X102778000Y-109420000D01*
X102223000Y-110517000D01*
X101690000Y-111544000D01*
X101222000Y-112413000D01*
X100646000Y-113470000D01*
X100196000Y-114339000D01*
X99810000Y-115156000D01*
X99428000Y-116055000D01*
X98986000Y-117170000D01*
X98723000Y-117853000D01*
X98313000Y-118905000D01*
X97882000Y-119986000D01*
X97507000Y-120897000D01*
X97434000Y-121071000D01*
X97113000Y-121834000D01*
X96846000Y-122486000D01*
X96713000Y-122826000D01*
X96453000Y-123460000D01*
X96165000Y-124051000D01*
X95936000Y-124424000D01*
X95913000Y-124448000D01*
X95630000Y-124580000D01*
X95536000Y-124543000D01*
X95519000Y-124301000D01*
X95734000Y-123778000D01*
X95779000Y-123687000D01*
X96039000Y-123133000D01*
X96358000Y-122410000D01*
X96469000Y-122146000D01*
X96778000Y-121423000D01*
X97062000Y-120779000D01*
X97141000Y-120608000D01*
X97291000Y-120276000D01*
X97476000Y-119838000D01*
X97726000Y-119222000D01*
X98068000Y-118356000D01*
X98532000Y-117171000D01*
X98719000Y-116691000D01*
X99169000Y-115618000D01*
X99724000Y-114418000D01*
X100291000Y-113281000D01*
X100709000Y-112519000D01*
X101178000Y-111685000D01*
X101739000Y-110622000D01*
X102436000Y-109249000D01*
X102591000Y-108939000D01*
X103057000Y-108022000D01*
X103528000Y-107126000D01*
X103956000Y-106340000D01*
X104291000Y-105754000D01*
X104486000Y-105456000D01*
X104504000Y-105438000D01*
X104554000Y-105569000D01*
G37*
G36*
X87044000Y-77563000D02*
G01*
X87038000Y-77653000D01*
X86951000Y-77807000D01*
X86721000Y-78115000D01*
X86285000Y-78671000D01*
X86221000Y-78752000D01*
X85839000Y-79251000D01*
X85593000Y-79646000D01*
X85347000Y-80167000D01*
X85269000Y-80344000D01*
X84927000Y-81192000D01*
X84749000Y-81855000D01*
X84682000Y-82471000D01*
X84705000Y-83189000D01*
X84909000Y-83834000D01*
X85037000Y-84101000D01*
X85523000Y-84858000D01*
X86183000Y-85439000D01*
X86629000Y-85714000D01*
X87511000Y-86103000D01*
X88478000Y-86356000D01*
X89051000Y-86413000D01*
X89501000Y-86488000D01*
X89718000Y-86656000D01*
X89602000Y-86838000D01*
X89581000Y-86848000D01*
X89380000Y-87047000D01*
X89122000Y-87223000D01*
X88480000Y-87405000D01*
X88022000Y-87499000D01*
X87514000Y-87554000D01*
X86889000Y-87574000D01*
X86407000Y-87552000D01*
X86360000Y-87544000D01*
X85412000Y-87323000D01*
X84736000Y-87087000D01*
X84163000Y-86773000D01*
X84018000Y-86678000D01*
X83122000Y-85898000D01*
X82477000Y-84901000D01*
X82293000Y-84488000D01*
X82087000Y-83872000D01*
X82009000Y-83244000D01*
X82014000Y-82608000D01*
X82056000Y-81951000D01*
X82151000Y-81467000D01*
X82187000Y-81342000D01*
X82826000Y-79956000D01*
X83823000Y-78788000D01*
X85098000Y-77919000D01*
X85829000Y-77611000D01*
X86471000Y-77446000D01*
X86912000Y-77443000D01*
X87044000Y-77563000D01*
G37*
G36*
X106816000Y-105262000D02*
G01*
X106857000Y-105370000D01*
X106854000Y-105651000D01*
X106802000Y-106224000D01*
X106781000Y-106419000D01*
X106699000Y-107259000D01*
X106609000Y-108270000D01*
X106555000Y-108913000D01*
X106466000Y-109964000D01*
X106363000Y-111100000D01*
X106306000Y-111691000D01*
X106206000Y-112757000D01*
X106097000Y-114028000D01*
X105984000Y-115425000D01*
X105873000Y-116873000D01*
X105769000Y-118296000D01*
X105678000Y-119616000D01*
X105605000Y-120756000D01*
X105557000Y-121641000D01*
X105537000Y-122193000D01*
X105540000Y-122312000D01*
X105534000Y-122604000D01*
X105434000Y-122709000D01*
X105088000Y-122836000D01*
X104908000Y-122775000D01*
X104897000Y-122503000D01*
X104911000Y-122318000D01*
X104979000Y-121593000D01*
X105074000Y-120517000D01*
X105186000Y-119185000D01*
X105309000Y-117688000D01*
X105434000Y-116121000D01*
X105526000Y-114941000D01*
X105627000Y-113674000D01*
X105729000Y-112467000D01*
X105823000Y-111436000D01*
X105898000Y-110698000D01*
X105915000Y-110552000D01*
X106015000Y-109668000D01*
X106118000Y-108643000D01*
X106166000Y-108108000D01*
X106242000Y-107256000D01*
X106318000Y-106482000D01*
X106359000Y-106108000D01*
X106428000Y-105623000D01*
X106505000Y-105402000D01*
X106588000Y-105312000D01*
X106764000Y-105223000D01*
X106816000Y-105262000D01*
G37*
D12*
%TO.C,D8*%
X85054000Y-85124000D02*
X85054000Y-85280000D01*
X85054000Y-87440000D02*
X85054000Y-87596000D01*
X85054000Y-85124484D02*
G75*
G02*
X88285437Y-85280000I1560000J-1235516D01*
G01*
X85573039Y-85280000D02*
G75*
G02*
X87654961Y-85280000I1040961J-1080000D01*
G01*
X87654961Y-87440000D02*
G75*
G02*
X85573039Y-87440000I-1040961J1080000D01*
G01*
X88285437Y-87440000D02*
G75*
G02*
X85054000Y-87595516I-1671437J1080000D01*
G01*
%TO.C,D6*%
X111216000Y-104428000D02*
X111216000Y-104584000D01*
X111216000Y-106744000D02*
X111216000Y-106900000D01*
X111216000Y-104428484D02*
G75*
G02*
X114447437Y-104584000I1560000J-1235516D01*
G01*
X111735039Y-104584000D02*
G75*
G02*
X113816961Y-104584000I1040961J-1080000D01*
G01*
X113816961Y-106744000D02*
G75*
G02*
X111735039Y-106744000I-1040961J1080000D01*
G01*
X114447437Y-106744000D02*
G75*
G02*
X111216000Y-106899516I-1671437J1080000D01*
G01*
%TO.C,D1*%
X111216000Y-99348000D02*
X111216000Y-99504000D01*
X111216000Y-101664000D02*
X111216000Y-101820000D01*
X111216000Y-99348484D02*
G75*
G02*
X114447437Y-99504000I1560000J-1235516D01*
G01*
X111735039Y-99504000D02*
G75*
G02*
X113816961Y-99504000I1040961J-1080000D01*
G01*
X113816961Y-101664000D02*
G75*
G02*
X111735039Y-101664000I-1040961J1080000D01*
G01*
X114447437Y-101664000D02*
G75*
G02*
X111216000Y-101819516I-1671437J1080000D01*
G01*
%TO.C,D7*%
X93436000Y-83092000D02*
X93436000Y-83248000D01*
X93436000Y-85408000D02*
X93436000Y-85564000D01*
X93436000Y-83092484D02*
G75*
G02*
X96667437Y-83248000I1560000J-1235516D01*
G01*
X93955039Y-83248000D02*
G75*
G02*
X96036961Y-83248000I1040961J-1080000D01*
G01*
X96036961Y-85408000D02*
G75*
G02*
X93955039Y-85408000I-1040961J1080000D01*
G01*
X96667437Y-85408000D02*
G75*
G02*
X93436000Y-85563516I-1671437J1080000D01*
G01*
%TO.C,R2*%
X107313787Y-108113846D02*
X106985044Y-108085086D01*
X104584214Y-107875039D02*
X104912958Y-107903803D01*
X106743790Y-114628957D02*
X107313787Y-108113846D01*
X106415045Y-114600197D02*
X106743790Y-114628957D01*
X104342961Y-114418913D02*
X104014215Y-114390153D01*
X104014215Y-114390153D02*
X104584214Y-107875039D01*
%TO.C,D3*%
X108676000Y-109000000D02*
X108676000Y-109156000D01*
X108676000Y-111316000D02*
X108676000Y-111472000D01*
X108676000Y-109000484D02*
G75*
G02*
X111907437Y-109156000I1560000J-1235516D01*
G01*
X109195039Y-109156000D02*
G75*
G02*
X111276961Y-109156000I1040961J-1080000D01*
G01*
X111276961Y-111316000D02*
G75*
G02*
X109195039Y-111316000I-1040961J1080000D01*
G01*
X111907437Y-111316000D02*
G75*
G02*
X108676000Y-111471516I-1671437J1080000D01*
G01*
%TO.C,TP3*%
X106486000Y-124146000D02*
X106486000Y-124266000D01*
X106486000Y-121606000D02*
X106486000Y-122936000D01*
X105156000Y-121606000D02*
X106486000Y-121606000D01*
X103826000Y-124266000D02*
X106486000Y-124266000D01*
X103826000Y-124146000D02*
X103826000Y-124266000D01*
%TD*%
M02*
