%TF.GenerationSoftware,KiCad,Pcbnew,9.0.6*%
%TF.CreationDate,2026-01-21T19:46:04+05:30*%
%TF.ProjectId,Photonic,50686f74-6f6e-4696-932e-6b696361645f,rev?*%
%TF.SameCoordinates,Original*%
%TF.FileFunction,Soldermask,Bot*%
%TF.FilePolarity,Negative*%
%FSLAX46Y46*%
G04 Gerber Fmt 4.6, Leading zero omitted, Abs format (unit mm)*
G04 Created by KiCad (PCBNEW 9.0.6) date 2026-01-21 19:46:04*
%MOMM*%
%LPD*%
G01*
G04 APERTURE LIST*
G04 Aperture macros list*
%AMRoundRect*
0 Rectangle with rounded corners*
0 $1 Rounding radius*
0 $2 $3 $4 $5 $6 $7 $8 $9 X,Y pos of 4 corners*
0 Add a 4 corners polygon primitive as box body*
4,1,4,$2,$3,$4,$5,$6,$7,$8,$9,$2,$3,0*
0 Add four circle primitives for the rounded corners*
1,1,$1+$1,$2,$3*
1,1,$1+$1,$4,$5*
1,1,$1+$1,$6,$7*
1,1,$1+$1,$8,$9*
0 Add four rect primitives between the rounded corners*
20,1,$1+$1,$2,$3,$4,$5,0*
20,1,$1+$1,$4,$5,$6,$7,0*
20,1,$1+$1,$6,$7,$8,$9,0*
20,1,$1+$1,$8,$9,$2,$3,0*%
%AMRotRect*
0 Rectangle, with rotation*
0 The origin of the aperture is its center*
0 $1 length*
0 $2 width*
0 $3 Rotation angle, in degrees counterclockwise*
0 Add horizontal line*
21,1,$1,$2,0,0,$3*%
G04 Aperture macros list end*
%ADD10R,1.700000X1.700000*%
%ADD11C,1.600000*%
%ADD12RoundRect,0.250000X0.135067X-0.766001X0.766001X0.135067X-0.135067X0.766001X-0.766001X-0.135067X0*%
%ADD13RotRect,1.295400X1.295400X350.000000*%
%ADD14C,1.295400*%
%ADD15RoundRect,0.102000X-0.748319X-0.432042X0.432042X-0.748319X0.748319X0.432042X-0.432042X0.748319X0*%
%ADD16C,1.426000*%
%ADD17R,1.800000X1.800000*%
%ADD18C,1.800000*%
%ADD19RoundRect,0.250000X-0.550000X-0.550000X0.550000X-0.550000X0.550000X0.550000X-0.550000X0.550000X0*%
G04 APERTURE END LIST*
D10*
%TO.C,TP1*%
X90424000Y-122936000D03*
%TD*%
D11*
%TO.C,U1*%
X80855225Y-121689607D03*
X82935871Y-123146492D03*
X85016517Y-124603376D03*
X87097162Y-126060261D03*
X82726511Y-132302199D03*
X80645864Y-130845313D03*
X78565220Y-129388431D03*
D12*
X76484572Y-127931546D03*
%TD*%
D13*
%TO.C,U2*%
X81453333Y-100776943D03*
D14*
X81012265Y-103278354D03*
X80571198Y-105779765D03*
X80130133Y-108281177D03*
X79689066Y-110782589D03*
X79248000Y-113284000D03*
X78806933Y-115785412D03*
X78365867Y-118286824D03*
X85870102Y-119610023D03*
X86311169Y-117108610D03*
X86752235Y-114607200D03*
X87193301Y-112105788D03*
X87634367Y-109604376D03*
X88075434Y-107102964D03*
X88516501Y-104601553D03*
X88957567Y-102100141D03*
%TD*%
D15*
%TO.C,RV1*%
X101686547Y-137518599D03*
D16*
X104797401Y-135722547D03*
X106593453Y-138833401D03*
%TD*%
D17*
%TO.C,D9*%
X84582000Y-78740000D03*
D18*
X87122000Y-78740000D03*
%TD*%
D17*
%TO.C,D10*%
X110490000Y-94488000D03*
D18*
X113030000Y-94488000D03*
%TD*%
D10*
%TO.C,TP2*%
X96012000Y-123952000D03*
%TD*%
D11*
%TO.C,R1*%
X101509021Y-106809371D03*
X96610979Y-112646629D03*
%TD*%
D17*
%TO.C,D5*%
X81280000Y-71120000D03*
D18*
X83820000Y-71120000D03*
%TD*%
D17*
%TO.C,D2*%
X81280000Y-96012000D03*
D18*
X83820000Y-96012000D03*
%TD*%
D19*
%TO.C,C1*%
X100616000Y-94488000D03*
D11*
X102616000Y-94488000D03*
%TD*%
D17*
%TO.C,D4*%
X95758000Y-103124000D03*
D18*
X98298000Y-103124000D03*
%TD*%
D19*
%TO.C,C2*%
X95028000Y-96520000D03*
D11*
X97028000Y-96520000D03*
%TD*%
D17*
%TO.C,D8*%
X85344000Y-86360000D03*
D18*
X87884000Y-86360000D03*
%TD*%
D17*
%TO.C,D6*%
X111506000Y-105664000D03*
D18*
X114046000Y-105664000D03*
%TD*%
D17*
%TO.C,D1*%
X111506000Y-100584000D03*
D18*
X114046000Y-100584000D03*
%TD*%
D17*
%TO.C,D7*%
X93726000Y-84328000D03*
D18*
X96266000Y-84328000D03*
%TD*%
D11*
%TO.C,R2*%
X105996066Y-107456497D03*
X105331938Y-115047501D03*
%TD*%
D17*
%TO.C,D3*%
X108966000Y-110236000D03*
D18*
X111506000Y-110236000D03*
%TD*%
D10*
%TO.C,TP3*%
X105156000Y-122936000D03*
%TD*%
M02*
