%TF.GenerationSoftware,KiCad,Pcbnew,9.0.6*%
%TF.CreationDate,2026-01-21T19:46:08+05:30*%
%TF.ProjectId,Photonic,50686f74-6f6e-4696-932e-6b696361645f,rev?*%
%TF.SameCoordinates,Original*%
%TF.FileFunction,Plated,1,2,PTH,Drill*%
%TF.FilePolarity,Positive*%
%FSLAX46Y46*%
G04 Gerber Fmt 4.6, Leading zero omitted, Abs format (unit mm)*
G04 Created by KiCad (PCBNEW 9.0.6) date 2026-01-21 19:46:08*
%MOMM*%
%LPD*%
G01*
G04 APERTURE LIST*
%TA.AperFunction,ViaDrill*%
%ADD10C,0.300000*%
%TD*%
%TA.AperFunction,ComponentDrill*%
%ADD11C,0.714000*%
%TD*%
%TA.AperFunction,ComponentDrill*%
%ADD12C,0.787400*%
%TD*%
%TA.AperFunction,ComponentDrill*%
%ADD13C,0.800000*%
%TD*%
%TA.AperFunction,ComponentDrill*%
%ADD14C,0.900000*%
%TD*%
%TA.AperFunction,ComponentDrill*%
%ADD15C,1.000000*%
%TD*%
G04 APERTURE END LIST*
D10*
X80264000Y-112268000D03*
X82296000Y-109728000D03*
X83220000Y-107696000D03*
X87376000Y-122428000D03*
X87884000Y-120396000D03*
X88484000Y-120961687D03*
X89408000Y-118364000D03*
X92456000Y-108204000D03*
X92456000Y-119380000D03*
X92456000Y-121412000D03*
X92964000Y-102108000D03*
X93472000Y-104648000D03*
X93980000Y-108712000D03*
X98044000Y-115824000D03*
X99568000Y-105664000D03*
X99568000Y-118872000D03*
X100584000Y-114300000D03*
X101600000Y-100076000D03*
X106128735Y-112224735D03*
X108204000Y-98044000D03*
D11*
%TO.C,RV1*%
X101686547Y-137518599D03*
X104797401Y-135722547D03*
X106593453Y-138833401D03*
D12*
%TO.C,U2*%
X78365867Y-118286824D03*
X78806933Y-115785412D03*
X79248000Y-113284000D03*
X79689066Y-110782589D03*
X80130133Y-108281177D03*
X80571198Y-105779765D03*
X81012265Y-103278354D03*
X81453333Y-100776943D03*
X85870102Y-119610023D03*
X86311169Y-117108610D03*
X86752235Y-114607200D03*
X87193301Y-112105788D03*
X87634367Y-109604376D03*
X88075434Y-107102964D03*
X88516501Y-104601553D03*
X88957567Y-102100141D03*
D13*
%TO.C,U1*%
X76484572Y-127931546D03*
X78565220Y-129388431D03*
X80645864Y-130845313D03*
X80855225Y-121689607D03*
X82726511Y-132302199D03*
X82935871Y-123146492D03*
X85016517Y-124603376D03*
X87097162Y-126060261D03*
%TO.C,C2*%
X95028000Y-96520000D03*
%TO.C,R1*%
X96610979Y-112646629D03*
%TO.C,C2*%
X97028000Y-96520000D03*
%TO.C,C1*%
X100616000Y-94488000D03*
%TO.C,R1*%
X101509021Y-106809371D03*
%TO.C,C1*%
X102616000Y-94488000D03*
%TO.C,R2*%
X105331938Y-115047501D03*
X105996066Y-107456497D03*
D14*
%TO.C,D5*%
X81280000Y-71120000D03*
%TO.C,D2*%
X81280000Y-96012000D03*
%TO.C,D5*%
X83820000Y-71120000D03*
%TO.C,D2*%
X83820000Y-96012000D03*
%TO.C,D9*%
X84582000Y-78740000D03*
%TO.C,D8*%
X85344000Y-86360000D03*
%TO.C,D9*%
X87122000Y-78740000D03*
%TO.C,D8*%
X87884000Y-86360000D03*
%TO.C,D7*%
X93726000Y-84328000D03*
%TO.C,D4*%
X95758000Y-103124000D03*
%TO.C,D7*%
X96266000Y-84328000D03*
%TO.C,D4*%
X98298000Y-103124000D03*
%TO.C,D3*%
X108966000Y-110236000D03*
%TO.C,D10*%
X110490000Y-94488000D03*
%TO.C,D1*%
X111506000Y-100584000D03*
%TO.C,D6*%
X111506000Y-105664000D03*
%TO.C,D3*%
X111506000Y-110236000D03*
%TO.C,D10*%
X113030000Y-94488000D03*
%TO.C,D1*%
X114046000Y-100584000D03*
%TO.C,D6*%
X114046000Y-105664000D03*
D15*
%TO.C,TP1*%
X90424000Y-122936000D03*
%TO.C,TP2*%
X96012000Y-123952000D03*
%TO.C,TP3*%
X105156000Y-122936000D03*
M02*
