%TF.GenerationSoftware,KiCad,Pcbnew,9.0.6*%
%TF.CreationDate,2026-01-21T19:46:04+05:30*%
%TF.ProjectId,Photonic,50686f74-6f6e-4696-932e-6b696361645f,rev?*%
%TF.SameCoordinates,Original*%
%TF.FileFunction,Soldermask,Top*%
%TF.FilePolarity,Negative*%
%FSLAX46Y46*%
G04 Gerber Fmt 4.6, Leading zero omitted, Abs format (unit mm)*
G04 Created by KiCad (PCBNEW 9.0.6) date 2026-01-21 19:46:04*
%MOMM*%
%LPD*%
G01*
G04 APERTURE LIST*
G04 Aperture macros list*
%AMRoundRect*
0 Rectangle with rounded corners*
0 $1 Rounding radius*
0 $2 $3 $4 $5 $6 $7 $8 $9 X,Y pos of 4 corners*
0 Add a 4 corners polygon primitive as box body*
4,1,4,$2,$3,$4,$5,$6,$7,$8,$9,$2,$3,0*
0 Add four circle primitives for the rounded corners*
1,1,$1+$1,$2,$3*
1,1,$1+$1,$4,$5*
1,1,$1+$1,$6,$7*
1,1,$1+$1,$8,$9*
0 Add four rect primitives between the rounded corners*
20,1,$1+$1,$2,$3,$4,$5,0*
20,1,$1+$1,$4,$5,$6,$7,0*
20,1,$1+$1,$6,$7,$8,$9,0*
20,1,$1+$1,$8,$9,$2,$3,0*%
%AMRotRect*
0 Rectangle, with rotation*
0 The origin of the aperture is its center*
0 $1 length*
0 $2 width*
0 $3 Rotation angle, in degrees counterclockwise*
0 Add horizontal line*
21,1,$1,$2,0,0,$3*%
G04 Aperture macros list end*
%ADD10C,0.000000*%
%ADD11R,1.700000X1.700000*%
%ADD12C,1.600000*%
%ADD13RoundRect,0.250000X0.135067X-0.766001X0.766001X0.135067X-0.135067X0.766001X-0.766001X-0.135067X0*%
%ADD14RotRect,1.295400X1.295400X350.000000*%
%ADD15C,1.295400*%
%ADD16RoundRect,0.102000X-0.748319X-0.432042X0.432042X-0.748319X0.748319X0.432042X-0.432042X0.748319X0*%
%ADD17C,1.426000*%
%ADD18R,1.800000X1.800000*%
%ADD19C,1.800000*%
%ADD20RoundRect,0.250000X-0.550000X-0.550000X0.550000X-0.550000X0.550000X0.550000X-0.550000X0.550000X0*%
G04 APERTURE END LIST*
D10*
%TO.C,*%
G36*
X104836500Y-93501000D02*
G01*
X105075500Y-93524000D01*
X105634500Y-93561000D01*
X105992500Y-93553000D01*
X106288500Y-93534000D01*
X106845500Y-93523000D01*
X107511500Y-93520000D01*
X108136500Y-93525000D01*
X108567500Y-93537000D01*
X108673500Y-93550000D01*
X108570500Y-93708000D01*
X108436500Y-93867000D01*
X107914500Y-94732000D01*
X107805500Y-95275000D01*
X107778500Y-95692000D01*
X108004500Y-95907000D01*
X108779500Y-96364000D01*
X109253500Y-96456000D01*
X109513500Y-96461000D01*
X109757500Y-96400000D01*
X110152500Y-96219000D01*
X110443500Y-96074000D01*
X111161500Y-95746000D01*
X111615500Y-95632000D01*
X111921500Y-95710000D01*
X112008500Y-95774000D01*
X112273500Y-96072000D01*
X112462500Y-96331000D01*
X112745500Y-96691000D01*
X113056500Y-96889000D01*
X113723500Y-97067000D01*
X114247500Y-97054000D01*
X114605500Y-96856000D01*
X114779500Y-96684000D01*
X115123500Y-96388000D01*
X115209500Y-96367000D01*
X115416500Y-96594000D01*
X115622500Y-97124000D01*
X115792500Y-97818000D01*
X115893500Y-98535000D01*
X115893500Y-99136000D01*
X115881500Y-99214000D01*
X115734500Y-99450000D01*
X115344500Y-99438000D01*
X115270500Y-99422000D01*
X114911500Y-99369000D01*
X114612500Y-99433000D01*
X114071500Y-99732000D01*
X113747500Y-100260000D01*
X113559500Y-100775000D01*
X113305500Y-101544000D01*
X113042500Y-102393000D01*
X112825500Y-103148000D01*
X112822500Y-103159000D01*
X112540500Y-103965000D01*
X112183500Y-104581000D01*
X111575500Y-105520000D01*
X110945500Y-106561000D01*
X110343500Y-107616000D01*
X109815500Y-108597000D01*
X109411500Y-109417000D01*
X109177500Y-109986000D01*
X109142500Y-110129000D01*
X109149500Y-110338000D01*
X109249500Y-110356000D01*
X109431500Y-110261000D01*
X109744500Y-109908000D01*
X109775500Y-109869000D01*
X110480500Y-108933000D01*
X111170500Y-107922000D01*
X111734500Y-107003000D01*
X111920500Y-106658000D01*
X112224500Y-106141000D01*
X112635500Y-105535000D01*
X112686500Y-105467000D01*
X113402500Y-104496000D01*
X114094500Y-103551000D01*
X114705500Y-102710000D01*
X115177500Y-102053000D01*
X115452500Y-101658000D01*
X115477500Y-101619000D01*
X115705500Y-101337000D01*
X115779500Y-101294000D01*
X116128500Y-101368000D01*
X116154500Y-101403000D01*
X116347500Y-101853000D01*
X116568500Y-102553000D01*
X116632500Y-102792000D01*
X116801500Y-104143000D01*
X116666500Y-105729000D01*
X116425500Y-106870000D01*
X116011500Y-108271000D01*
X115565500Y-109286000D01*
X115070500Y-109963000D01*
X114719500Y-110283000D01*
X114251500Y-110622000D01*
X113588500Y-111043000D01*
X113127500Y-111347000D01*
X112603500Y-111739000D01*
X111916500Y-112298000D01*
X111313500Y-112805000D01*
X110949500Y-113108000D01*
X110542500Y-113438000D01*
X110029500Y-113841000D01*
X109351500Y-114364000D01*
X108445500Y-115056000D01*
X107251500Y-115963000D01*
X107127500Y-116057000D01*
X106665500Y-116402000D01*
X106390500Y-116593000D01*
X106360500Y-116608000D01*
X106367500Y-116393000D01*
X106406500Y-115842000D01*
X106468500Y-115063000D01*
X106543500Y-114161000D01*
X106622500Y-113244000D01*
X106698500Y-112418000D01*
X106741500Y-111984000D01*
X106812500Y-111252000D01*
X106903500Y-110263000D01*
X106996500Y-109204000D01*
X107018500Y-108957000D01*
X107102500Y-107974000D01*
X107182500Y-107080000D01*
X107242500Y-106426000D01*
X107255500Y-106294000D01*
X107298500Y-105790000D01*
X107306500Y-105533000D01*
X107305500Y-105530000D01*
X107140500Y-105481000D01*
X106990500Y-105628000D01*
X106903500Y-105956000D01*
X106806500Y-106638000D01*
X106696500Y-107709000D01*
X106626500Y-108494000D01*
X106536500Y-109465000D01*
X106431500Y-110467000D01*
X106377500Y-110939000D01*
X106301500Y-111651000D01*
X106209500Y-112646000D01*
X106116500Y-113760000D01*
X106070500Y-114356000D01*
X105997500Y-115330000D01*
X105933500Y-116139000D01*
X105888500Y-116678000D01*
X105871500Y-116843000D01*
X105818500Y-116969000D01*
X105642500Y-117150000D01*
X105263500Y-117455000D01*
X104638500Y-117930000D01*
X103846500Y-118519000D01*
X103042500Y-119108000D01*
X102543500Y-119467000D01*
X101501500Y-120223000D01*
X100794500Y-120770000D01*
X100386500Y-121140000D01*
X100240500Y-121363000D01*
X100238500Y-121383000D01*
X100295500Y-121584000D01*
X100349500Y-121577000D01*
X100518500Y-121579000D01*
X100558500Y-121599000D01*
X100753500Y-121649000D01*
X100940500Y-121540000D01*
X101220500Y-121361000D01*
X101772500Y-121015000D01*
X102489500Y-120568000D01*
X102682500Y-120449000D01*
X103522500Y-119926000D01*
X104317500Y-119426000D01*
X104910500Y-119047000D01*
X104959500Y-119016000D01*
X105431500Y-118715000D01*
X105702500Y-118556000D01*
X105726500Y-118547000D01*
X105717500Y-118758000D01*
X105677500Y-119291000D01*
X105616500Y-120027000D01*
X105545500Y-120843000D01*
X105475500Y-121621000D01*
X105414500Y-122239000D01*
X105397500Y-122400000D01*
X105361500Y-122889000D01*
X105445500Y-123054000D01*
X105679500Y-123017000D01*
X105954500Y-122845000D01*
X105994500Y-122459000D01*
X105988500Y-122393000D01*
X105987500Y-121997000D01*
X106021500Y-121264000D01*
X106084500Y-120297000D01*
X106095500Y-120146000D01*
X106159500Y-119282000D01*
X106209500Y-118611000D01*
X106235500Y-118236000D01*
X106238500Y-118193000D01*
X106398500Y-118043000D01*
X106810500Y-117707000D01*
X107196500Y-117407000D01*
X107875500Y-116876000D01*
X108709500Y-116212000D01*
X109460500Y-115606000D01*
X110380500Y-114863000D01*
X111173500Y-114235000D01*
X111780500Y-113770000D01*
X112140500Y-113513000D01*
X112212500Y-113478000D01*
X112196500Y-113694000D01*
X112138500Y-114280000D01*
X112045500Y-115160000D01*
X111926500Y-116263000D01*
X111825500Y-117164000D01*
X111680500Y-118483000D01*
X111545500Y-119729000D01*
X111433500Y-120800000D01*
X111354500Y-121593000D01*
X111327500Y-121883000D01*
X111249500Y-122817000D01*
X111168500Y-123798000D01*
X111152500Y-123994000D01*
X111046500Y-125167000D01*
X110898500Y-126620000D01*
X110703500Y-128403000D01*
X110454500Y-130565000D01*
X110378500Y-131217000D01*
X110203500Y-132707000D01*
X110071500Y-133853000D01*
X109973500Y-134752000D01*
X109897500Y-135502000D01*
X109833500Y-136201000D01*
X109772500Y-136944000D01*
X109738500Y-137383000D01*
X109578500Y-139342000D01*
X109423500Y-140987000D01*
X109277500Y-142291000D01*
X109143500Y-143223000D01*
X109025500Y-143756000D01*
X108971500Y-143865000D01*
X108593500Y-144041000D01*
X107974500Y-144174000D01*
X107315500Y-144229000D01*
X106988500Y-144211000D01*
X106443500Y-144124000D01*
X105875500Y-144011000D01*
X105115500Y-143836000D01*
X104738500Y-143745000D01*
X103903500Y-143544000D01*
X103152500Y-143366000D01*
X102757500Y-143274000D01*
X101928500Y-143039000D01*
X101059500Y-142730000D01*
X100782500Y-142614000D01*
X100460500Y-142494000D01*
X99925500Y-142313000D01*
X99877500Y-142297000D01*
X99227500Y-142067000D01*
X98295500Y-141711000D01*
X97209500Y-141282000D01*
X96094500Y-140830000D01*
X95079500Y-140406000D01*
X94519500Y-140162000D01*
X93085500Y-139508000D01*
X91449500Y-138736000D01*
X89757500Y-137916000D01*
X88156500Y-137119000D01*
X86794500Y-136418000D01*
X86615500Y-136324000D01*
X85995500Y-135988000D01*
X85262500Y-135583000D01*
X84513500Y-135162000D01*
X83846500Y-134783000D01*
X83360500Y-134500000D01*
X83154500Y-134369000D01*
X83153500Y-134366000D01*
X83328500Y-134429000D01*
X83397500Y-134463000D01*
X83632500Y-134573000D01*
X83650500Y-134578000D01*
X83557500Y-134411000D01*
X83291500Y-133989000D01*
X83105500Y-133703000D01*
X81829500Y-131613000D01*
X80846500Y-129674000D01*
X80439500Y-128712000D01*
X79832500Y-126850000D01*
X79366500Y-124774000D01*
X79356500Y-124703000D01*
X95972500Y-124703000D01*
X96029500Y-124763000D01*
X96264500Y-124742000D01*
X96334500Y-124675000D01*
X96613500Y-124242000D01*
X96948500Y-123527000D01*
X97073500Y-123217000D01*
X97288500Y-122681000D01*
X97601500Y-121924000D01*
X97863500Y-121300000D01*
X98210500Y-120462000D01*
X98634500Y-119405000D01*
X99057500Y-118327000D01*
X99153500Y-118078000D01*
X99633500Y-116839000D01*
X100017500Y-115888000D01*
X100366500Y-115094000D01*
X100739500Y-114328000D01*
X101196500Y-113461000D01*
X101780500Y-112395000D01*
X102085500Y-111821000D01*
X102496500Y-111017000D01*
X102973500Y-110066000D01*
X103477500Y-109047000D01*
X103968500Y-108043000D01*
X104406500Y-107134000D01*
X104752500Y-106401000D01*
X104966500Y-105925000D01*
X105015500Y-105787000D01*
X104974500Y-105691000D01*
X104835500Y-105879000D01*
X104538500Y-106393000D01*
X104120500Y-107158000D01*
X103622500Y-108102000D01*
X103082500Y-109153000D01*
X102854500Y-109606000D01*
X102362500Y-110576000D01*
X101880500Y-111502000D01*
X101484500Y-112241000D01*
X101343500Y-112494000D01*
X100560500Y-113941000D01*
X99819500Y-115498000D01*
X99058500Y-117301000D01*
X98761500Y-118050000D01*
X98367500Y-119049000D01*
X97997500Y-119964000D01*
X97703500Y-120671000D01*
X97573500Y-120967000D01*
X97262500Y-121662000D01*
X96936500Y-122422000D01*
X96910500Y-122484000D01*
X96599500Y-123199000D01*
X96294500Y-123853000D01*
X96264500Y-123914000D01*
X96018500Y-124448000D01*
X95972500Y-124703000D01*
X79356500Y-124703000D01*
X79244500Y-123862000D01*
X90381500Y-123862000D01*
X90548500Y-123911000D01*
X90711500Y-123827000D01*
X90948500Y-123488000D01*
X91245500Y-123030000D01*
X91647500Y-122434000D01*
X91734500Y-122308000D01*
X92178500Y-121627000D01*
X92577500Y-120959000D01*
X92618500Y-120883000D01*
X93126500Y-119972000D01*
X93775500Y-118844000D01*
X94472500Y-117660000D01*
X95121500Y-116581000D01*
X95527500Y-115928000D01*
X95982500Y-115179000D01*
X96386500Y-114463000D01*
X96566500Y-114111000D01*
X96834500Y-113577000D01*
X97041500Y-113220000D01*
X97051500Y-113206000D01*
X97269500Y-112919000D01*
X97655500Y-112416000D01*
X97937500Y-112050000D01*
X98512500Y-111278000D01*
X99095500Y-110454000D01*
X99284500Y-110175000D01*
X99728500Y-109532000D01*
X100323500Y-108705000D01*
X100946500Y-107864000D01*
X101004500Y-107786000D01*
X101588500Y-107014000D01*
X101945500Y-106535000D01*
X102117500Y-106290000D01*
X102146500Y-106219000D01*
X102073500Y-106259000D01*
X102034500Y-106287000D01*
X101611500Y-106665000D01*
X101011500Y-107296000D01*
X100324500Y-108076000D01*
X99641500Y-108904000D01*
X99051500Y-109675000D01*
X98922500Y-109856000D01*
X98513500Y-110434000D01*
X97986500Y-111170000D01*
X97649500Y-111637000D01*
X97015500Y-112521000D01*
X96595500Y-113139000D01*
X96330500Y-113580000D01*
X96201500Y-113843000D01*
X96026500Y-114172000D01*
X95684500Y-114769000D01*
X95238500Y-115526000D01*
X95073500Y-115800000D01*
X94501500Y-116754000D01*
X93987500Y-117627000D01*
X93454500Y-118548000D01*
X92827500Y-119647000D01*
X92363500Y-120467000D01*
X91873500Y-121313000D01*
X91316500Y-122248000D01*
X91051500Y-122682000D01*
X90685500Y-123288000D01*
X90443500Y-123718000D01*
X90381500Y-123862000D01*
X79244500Y-123862000D01*
X79096500Y-122754000D01*
X79024500Y-122001000D01*
X78948500Y-121352000D01*
X78925500Y-121189000D01*
X78812500Y-120457000D01*
X78761500Y-119992000D01*
X78760500Y-119620000D01*
X78789500Y-119240000D01*
X78842500Y-118748000D01*
X78881500Y-118503000D01*
X78994500Y-118504000D01*
X79334500Y-118727000D01*
X79395500Y-118771000D01*
X80185500Y-119310000D01*
X80866500Y-119707000D01*
X81086500Y-119810000D01*
X81250500Y-119867000D01*
X81467500Y-119901000D01*
X81837500Y-119917000D01*
X82462500Y-119920000D01*
X83287500Y-119915000D01*
X84292500Y-119904000D01*
X84937500Y-119881000D01*
X85305500Y-119841000D01*
X85482500Y-119776000D01*
X85527500Y-119727000D01*
X85568500Y-119450000D01*
X85551500Y-119050000D01*
X85518500Y-118890000D01*
X85237500Y-118619000D01*
X84855500Y-118510000D01*
X84582500Y-118442000D01*
X84597500Y-118357000D01*
X84650500Y-118089000D01*
X84548500Y-117845000D01*
X84522500Y-117833000D01*
X84257500Y-117774000D01*
X83960500Y-117714000D01*
X82026500Y-117142000D01*
X80360500Y-116231000D01*
X79808500Y-115808000D01*
X79299500Y-115292000D01*
X78746500Y-114604000D01*
X78323500Y-113962000D01*
X78283500Y-113888000D01*
X77896500Y-112937000D01*
X77643500Y-111958000D01*
X77622500Y-111820000D01*
X77632500Y-111398000D01*
X77999500Y-111398000D01*
X78058500Y-112327000D01*
X78126500Y-112606000D01*
X78704500Y-113910000D01*
X79583500Y-115028000D01*
X80834500Y-116045000D01*
X80904500Y-116092000D01*
X81822500Y-116636000D01*
X82760500Y-117010000D01*
X83765500Y-117269000D01*
X84433500Y-117392000D01*
X84735500Y-117386000D01*
X84760500Y-117365000D01*
X84587500Y-117273000D01*
X84112500Y-117087000D01*
X83695500Y-116937000D01*
X82955500Y-116666000D01*
X82317500Y-116410000D01*
X82100500Y-116312000D01*
X80690500Y-115431000D01*
X79602500Y-114334000D01*
X78872500Y-113074000D01*
X78541500Y-111702000D01*
X78533500Y-111578000D01*
X78566500Y-110842000D01*
X78799500Y-110107000D01*
X78905500Y-109871000D01*
X79769500Y-108530000D01*
X80996500Y-107390000D01*
X82353500Y-106584000D01*
X83110500Y-106268000D01*
X84012500Y-105945000D01*
X84845500Y-105689000D01*
X85205500Y-105602000D01*
X85639500Y-105484000D01*
X85743500Y-105402000D01*
X85765500Y-105243000D01*
X85501500Y-105191000D01*
X84931500Y-105253000D01*
X84171500Y-105408000D01*
X83340500Y-105637000D01*
X83154500Y-105696000D01*
X81594500Y-106366000D01*
X80262500Y-107301000D01*
X79182500Y-108400000D01*
X78631500Y-109132000D01*
X78291500Y-109868000D01*
X78125500Y-110445000D01*
X77999500Y-111398000D01*
X77632500Y-111398000D01*
X77655500Y-110450000D01*
X78089500Y-109019000D01*
X78691500Y-107911000D01*
X79108500Y-107387000D01*
X79708500Y-106755000D01*
X80325500Y-106184000D01*
X80543500Y-106008000D01*
X81539500Y-105403000D01*
X82784500Y-104859000D01*
X84084500Y-104451000D01*
X85071500Y-104267000D01*
X85526500Y-104190000D01*
X85676500Y-104056000D01*
X85682500Y-103996000D01*
X85680500Y-103991000D01*
X92793500Y-103991000D01*
X92902500Y-104260000D01*
X93298500Y-104576000D01*
X93406500Y-104645000D01*
X93795500Y-104910000D01*
X94307500Y-105279000D01*
X94317500Y-105287000D01*
X94960500Y-105735000D01*
X95537500Y-106103000D01*
X96152500Y-106471000D01*
X96764500Y-106438000D01*
X97481500Y-106391000D01*
X98014500Y-106350000D01*
X98541500Y-106286000D01*
X98842500Y-106183000D01*
X98886500Y-106158000D01*
X99132500Y-105990000D01*
X99155500Y-105965000D01*
X99350500Y-105825000D01*
X99631500Y-105655000D01*
X100364500Y-105064000D01*
X100762500Y-104617000D01*
X101008500Y-104350000D01*
X101302500Y-103985000D01*
X101330500Y-103887000D01*
X101378500Y-103782000D01*
X101625500Y-103938000D01*
X102023500Y-104179000D01*
X102318500Y-104216000D01*
X102353500Y-104185000D01*
X102345500Y-103855000D01*
X102132500Y-103332000D01*
X101798500Y-102802000D01*
X101246500Y-102142000D01*
X100700500Y-101596000D01*
X100563500Y-101482000D01*
X99961500Y-101090000D01*
X99177500Y-100670000D01*
X98778500Y-100485000D01*
X98407500Y-100342000D01*
X98045500Y-100281000D01*
X97627500Y-100258000D01*
X96993500Y-100257000D01*
X96587500Y-100319000D01*
X95680500Y-100701000D01*
X94711500Y-101357000D01*
X94347500Y-101672000D01*
X93997500Y-102065000D01*
X93577500Y-102630000D01*
X93177500Y-103232000D01*
X92887500Y-103737000D01*
X92793500Y-103991000D01*
X85680500Y-103991000D01*
X85627500Y-103867000D01*
X85348500Y-103845000D01*
X85210500Y-103850000D01*
X84988500Y-103861000D01*
X85257500Y-103688000D01*
X85488500Y-103522000D01*
X85507500Y-103496000D01*
X85290500Y-103524000D01*
X84800500Y-103636000D01*
X84191500Y-103795000D01*
X83617500Y-103960000D01*
X83423500Y-104023000D01*
X82965500Y-104171000D01*
X82753500Y-104223000D01*
X82752500Y-104222000D01*
X82911500Y-104133000D01*
X83369500Y-103960000D01*
X84000500Y-103747000D01*
X84678500Y-103537000D01*
X85149500Y-103406000D01*
X85543500Y-103303000D01*
X85117500Y-103328000D01*
X83770500Y-103557000D01*
X82291500Y-104053000D01*
X80842500Y-104746000D01*
X79581500Y-105566000D01*
X79172500Y-105908000D01*
X78875500Y-106156000D01*
X78783500Y-106149000D01*
X78783500Y-106148000D01*
X78786500Y-105780000D01*
X78850500Y-105302000D01*
X78922500Y-105042000D01*
X79208500Y-104733000D01*
X79815500Y-104240000D01*
X80678500Y-103607000D01*
X81735500Y-102875000D01*
X82923500Y-102087000D01*
X84177500Y-101285000D01*
X85436500Y-100510000D01*
X86636500Y-99806000D01*
X87391500Y-99386000D01*
X88971500Y-98587000D01*
X90856500Y-97723000D01*
X92920500Y-96847000D01*
X95040500Y-96008000D01*
X97090500Y-95258000D01*
X98793500Y-94696000D01*
X100280500Y-94258000D01*
X101527500Y-93943000D01*
X102706500Y-93709000D01*
X103377500Y-93602000D01*
X104019500Y-93512000D01*
X104435500Y-93482000D01*
X104836500Y-93501000D01*
G37*
G36*
X81766500Y-133489000D02*
G01*
X81791500Y-133542000D01*
X81657500Y-133490000D01*
X81602500Y-133412000D01*
X81766500Y-133489000D01*
G37*
G36*
X76765500Y-130091000D02*
G01*
X77192500Y-130391000D01*
X77606500Y-130691000D01*
X78570500Y-131379000D01*
X79744500Y-132175000D01*
X81099500Y-133066000D01*
X81417500Y-133286000D01*
X81487500Y-133355000D01*
X81285500Y-133246000D01*
X80819500Y-132961000D01*
X80297500Y-132632000D01*
X79622500Y-132197000D01*
X79058500Y-131827000D01*
X78798500Y-131651000D01*
X78324500Y-131311000D01*
X77758500Y-130891000D01*
X77208500Y-130476000D01*
X76783500Y-130147000D01*
X76593500Y-129987000D01*
X76592500Y-129983000D01*
X76765500Y-130091000D01*
G37*
G36*
X76488500Y-129856000D02*
G01*
X76455500Y-129887000D01*
X76404500Y-129856000D01*
X76387500Y-129801000D01*
X76488500Y-129856000D01*
G37*
G36*
X74099500Y-127689000D02*
G01*
X74182500Y-127779000D01*
X74099500Y-127800000D01*
X74015500Y-127710000D01*
X74091500Y-127682000D01*
X74099500Y-127689000D01*
G37*
G36*
X77219500Y-121617000D02*
G01*
X77204500Y-121647000D01*
X77084500Y-121856000D01*
X77071500Y-121834000D01*
X77150500Y-121643000D01*
X77261500Y-121470000D01*
X77268500Y-121467000D01*
X77219500Y-121617000D01*
G37*
G36*
X77356500Y-121259000D02*
G01*
X77321500Y-121239000D01*
X77325500Y-121228000D01*
X77394500Y-121160000D01*
X77356500Y-121259000D01*
G37*
G36*
X77477500Y-120124000D02*
G01*
X77491500Y-120186000D01*
X77549500Y-120534000D01*
X77482500Y-120465000D01*
X77469500Y-120437000D01*
X77409500Y-120101000D01*
X77409500Y-120061000D01*
X77422500Y-119911000D01*
X77477500Y-120124000D01*
G37*
G36*
X77390500Y-118455000D02*
G01*
X77396500Y-119028000D01*
X77390500Y-119233000D01*
X77378500Y-119291000D01*
X77371500Y-118977000D01*
X77371500Y-118828000D01*
X77375500Y-118428000D01*
X77386500Y-118388000D01*
X77390500Y-118455000D01*
G37*
G36*
X79537500Y-116352000D02*
G01*
X79926500Y-116603000D01*
X81901500Y-117645000D01*
X82321500Y-117808000D01*
X82812500Y-117999000D01*
X82941500Y-118070000D01*
X82685500Y-118003000D01*
X82460500Y-117929000D01*
X81673500Y-117621000D01*
X80821500Y-117226000D01*
X80442500Y-117024000D01*
X80088500Y-116801000D01*
X79694500Y-116526000D01*
X79408500Y-116307000D01*
X79355500Y-116244000D01*
X79537500Y-116352000D01*
G37*
G36*
X77334500Y-116758000D02*
G01*
X77341500Y-117374000D01*
X77334500Y-117619000D01*
X77323500Y-117703000D01*
X77316500Y-117406000D01*
X77316500Y-117189000D01*
X77319500Y-116755000D01*
X77329500Y-116674000D01*
X77334500Y-116758000D01*
G37*
G36*
X77279500Y-114589000D02*
G01*
X77286500Y-115261000D01*
X77279500Y-115700000D01*
X77269500Y-115831000D01*
X77263500Y-115573000D01*
X77261500Y-115161000D01*
X77264500Y-114642000D01*
X77272500Y-114466000D01*
X77279500Y-114589000D01*
G37*
G36*
X77403500Y-113913000D02*
G01*
X77551500Y-114197000D01*
X77601500Y-114355000D01*
X77599500Y-114356000D01*
X77554500Y-114314000D01*
X77440500Y-114115000D01*
X77375500Y-114000000D01*
X77271500Y-113769000D01*
X77285500Y-113751000D01*
X77403500Y-113913000D01*
G37*
G36*
X77054500Y-111537000D02*
G01*
X77052500Y-111704000D01*
X77026500Y-111619000D01*
X77026500Y-111606000D01*
X77051500Y-111528000D01*
X77054500Y-111537000D01*
G37*
G36*
X77091500Y-110217000D02*
G01*
X77047500Y-110607000D01*
X77015500Y-110911000D01*
X76967500Y-111383000D01*
X76982500Y-110798000D01*
X77014500Y-110322000D01*
X77058500Y-110104000D01*
X77104500Y-110087000D01*
X77091500Y-110217000D01*
G37*
G36*
X78356500Y-107342000D02*
G01*
X78246500Y-107459000D01*
X78238500Y-107418000D01*
X78330500Y-107293000D01*
X78388500Y-107280000D01*
X78356500Y-107342000D01*
G37*
G36*
X112475500Y-92472000D02*
G01*
X112871500Y-92737000D01*
X113536500Y-93259000D01*
X113997500Y-93768000D01*
X114212500Y-94078000D01*
X114615500Y-94731000D01*
X114808500Y-95141000D01*
X114849500Y-95371000D01*
X114934500Y-95711000D01*
X114941500Y-95722000D01*
X114990500Y-95858000D01*
X114842500Y-96040000D01*
X114732500Y-96144000D01*
X114180500Y-96587000D01*
X113772500Y-96710000D01*
X113579500Y-96660000D01*
X113308500Y-96462000D01*
X112882500Y-96081000D01*
X112801500Y-96003000D01*
X112298500Y-95549000D01*
X111929500Y-95343000D01*
X111531500Y-95305000D01*
X111435500Y-95310000D01*
X111012500Y-95403000D01*
X110414500Y-95666000D01*
X109738500Y-96028000D01*
X109395500Y-96172000D01*
X109172500Y-96169000D01*
X108521500Y-95918000D01*
X108323500Y-95736000D01*
X108207500Y-95554000D01*
X108184500Y-95270000D01*
X108191500Y-95070000D01*
X108221500Y-94676000D01*
X108318500Y-94475000D01*
X108404500Y-94380000D01*
X108967500Y-93850000D01*
X109597500Y-93338000D01*
X110126500Y-92980000D01*
X110219500Y-92931000D01*
X110886500Y-92687000D01*
X111471500Y-92579000D01*
X111494500Y-92579000D01*
X111843500Y-92497000D01*
X111927500Y-92463000D01*
X112200500Y-92383000D01*
X112475500Y-92472000D01*
G37*
G36*
X101303500Y-92075000D02*
G01*
X101507500Y-92431000D01*
X101515500Y-92528000D01*
X101446500Y-92744000D01*
X101390500Y-92765000D01*
X101202500Y-92786000D01*
X101084500Y-92742000D01*
X100895500Y-92507000D01*
X100846500Y-92170000D01*
X100953500Y-91997000D01*
X101303500Y-92075000D01*
G37*
G36*
X92760500Y-91982000D02*
G01*
X92818500Y-92245000D01*
X92702500Y-92567000D01*
X92370500Y-92669000D01*
X92064500Y-92656000D01*
X91998500Y-92608000D01*
X91904500Y-92297000D01*
X92073500Y-91968000D01*
X92442500Y-91897000D01*
X92760500Y-91982000D01*
G37*
G36*
X99294500Y-89111000D02*
G01*
X99516500Y-89246000D01*
X99528500Y-89536000D01*
X99400500Y-89715000D01*
X99276500Y-89734000D01*
X99058500Y-89689000D01*
X99015500Y-89605000D01*
X98963500Y-89262000D01*
X99019500Y-89103000D01*
X99294500Y-89111000D01*
G37*
G36*
X82526500Y-88541000D02*
G01*
X82571500Y-88772000D01*
X82497500Y-89037000D01*
X82483500Y-89044000D01*
X82221500Y-89019000D01*
X82204500Y-88981000D01*
X82091500Y-88730000D01*
X82076500Y-88498000D01*
X82236500Y-88467000D01*
X82526500Y-88541000D01*
G37*
G36*
X87639500Y-81934000D02*
G01*
X87659500Y-81995000D01*
X87626500Y-82217000D01*
X87364500Y-82286000D01*
X87237500Y-82187000D01*
X87248500Y-81912000D01*
X87435500Y-81856000D01*
X87639500Y-81934000D01*
G37*
G36*
X81930500Y-78747000D02*
G01*
X81936500Y-78768000D01*
X81897500Y-79082000D01*
X81789500Y-79122000D01*
X81587500Y-79007000D01*
X81579500Y-78991000D01*
X81576500Y-78691000D01*
X81740500Y-78633000D01*
X81930500Y-78747000D01*
G37*
G36*
X89107500Y-73581000D02*
G01*
X89297500Y-73779000D01*
X89375500Y-74019000D01*
X89368500Y-74036000D01*
X89147500Y-74067000D01*
X88890500Y-73960000D01*
X88740500Y-73695000D01*
X88922500Y-73549000D01*
X89107500Y-73581000D01*
G37*
G36*
X82712500Y-65193000D02*
G01*
X82721500Y-65431000D01*
X82712500Y-65498000D01*
X82633500Y-65726000D01*
X82551500Y-65744000D01*
X82360500Y-65678000D01*
X82293500Y-65423000D01*
X82361500Y-65180000D01*
X82381500Y-65167000D01*
X82667500Y-65156000D01*
X82712500Y-65193000D01*
G37*
%TD*%
D11*
%TO.C,TP1*%
X90424000Y-122936000D03*
%TD*%
D12*
%TO.C,U1*%
X80855225Y-121689607D03*
X82935871Y-123146492D03*
X85016517Y-124603376D03*
X87097162Y-126060261D03*
X82726511Y-132302199D03*
X80645864Y-130845313D03*
X78565220Y-129388431D03*
D13*
X76484572Y-127931546D03*
%TD*%
D14*
%TO.C,U2*%
X81453333Y-100776943D03*
D15*
X81012265Y-103278354D03*
X80571198Y-105779765D03*
X80130133Y-108281177D03*
X79689066Y-110782589D03*
X79248000Y-113284000D03*
X78806933Y-115785412D03*
X78365867Y-118286824D03*
X85870102Y-119610023D03*
X86311169Y-117108610D03*
X86752235Y-114607200D03*
X87193301Y-112105788D03*
X87634367Y-109604376D03*
X88075434Y-107102964D03*
X88516501Y-104601553D03*
X88957567Y-102100141D03*
%TD*%
D16*
%TO.C,RV1*%
X101686547Y-137518599D03*
D17*
X104797401Y-135722547D03*
X106593453Y-138833401D03*
%TD*%
D18*
%TO.C,D9*%
X84582000Y-78740000D03*
D19*
X87122000Y-78740000D03*
%TD*%
D18*
%TO.C,D10*%
X110490000Y-94488000D03*
D19*
X113030000Y-94488000D03*
%TD*%
D11*
%TO.C,TP2*%
X96012000Y-123952000D03*
%TD*%
D12*
%TO.C,R1*%
X101509021Y-106809371D03*
X96610979Y-112646629D03*
%TD*%
D18*
%TO.C,D5*%
X81280000Y-71120000D03*
D19*
X83820000Y-71120000D03*
%TD*%
D18*
%TO.C,D2*%
X81280000Y-96012000D03*
D19*
X83820000Y-96012000D03*
%TD*%
D20*
%TO.C,C1*%
X100616000Y-94488000D03*
D12*
X102616000Y-94488000D03*
%TD*%
D18*
%TO.C,D4*%
X95758000Y-103124000D03*
D19*
X98298000Y-103124000D03*
%TD*%
D20*
%TO.C,C2*%
X95028000Y-96520000D03*
D12*
X97028000Y-96520000D03*
%TD*%
D18*
%TO.C,D8*%
X85344000Y-86360000D03*
D19*
X87884000Y-86360000D03*
%TD*%
D18*
%TO.C,D6*%
X111506000Y-105664000D03*
D19*
X114046000Y-105664000D03*
%TD*%
D18*
%TO.C,D1*%
X111506000Y-100584000D03*
D19*
X114046000Y-100584000D03*
%TD*%
D18*
%TO.C,D7*%
X93726000Y-84328000D03*
D19*
X96266000Y-84328000D03*
%TD*%
D12*
%TO.C,R2*%
X105996066Y-107456497D03*
X105331938Y-115047501D03*
%TD*%
D18*
%TO.C,D3*%
X108966000Y-110236000D03*
D19*
X111506000Y-110236000D03*
%TD*%
D11*
%TO.C,TP3*%
X105156000Y-122936000D03*
%TD*%
M02*
