%TF.GenerationSoftware,KiCad,Pcbnew,9.0.6*%
%TF.CreationDate,2026-01-21T19:46:04+05:30*%
%TF.ProjectId,Photonic,50686f74-6f6e-4696-932e-6b696361645f,rev?*%
%TF.SameCoordinates,Original*%
%TF.FileFunction,Copper,L2,Bot*%
%TF.FilePolarity,Positive*%
%FSLAX46Y46*%
G04 Gerber Fmt 4.6, Leading zero omitted, Abs format (unit mm)*
G04 Created by KiCad (PCBNEW 9.0.6) date 2026-01-21 19:46:04*
%MOMM*%
%LPD*%
G01*
G04 APERTURE LIST*
G04 Aperture macros list*
%AMRoundRect*
0 Rectangle with rounded corners*
0 $1 Rounding radius*
0 $2 $3 $4 $5 $6 $7 $8 $9 X,Y pos of 4 corners*
0 Add a 4 corners polygon primitive as box body*
4,1,4,$2,$3,$4,$5,$6,$7,$8,$9,$2,$3,0*
0 Add four circle primitives for the rounded corners*
1,1,$1+$1,$2,$3*
1,1,$1+$1,$4,$5*
1,1,$1+$1,$6,$7*
1,1,$1+$1,$8,$9*
0 Add four rect primitives between the rounded corners*
20,1,$1+$1,$2,$3,$4,$5,0*
20,1,$1+$1,$4,$5,$6,$7,0*
20,1,$1+$1,$6,$7,$8,$9,0*
20,1,$1+$1,$8,$9,$2,$3,0*%
%AMRotRect*
0 Rectangle, with rotation*
0 The origin of the aperture is its center*
0 $1 length*
0 $2 width*
0 $3 Rotation angle, in degrees counterclockwise*
0 Add horizontal line*
21,1,$1,$2,0,0,$3*%
G04 Aperture macros list end*
%TA.AperFunction,ComponentPad*%
%ADD10R,1.700000X1.700000*%
%TD*%
%TA.AperFunction,ComponentPad*%
%ADD11C,1.600000*%
%TD*%
%TA.AperFunction,ComponentPad*%
%ADD12RoundRect,0.250000X0.135067X-0.766001X0.766001X0.135067X-0.135067X0.766001X-0.766001X-0.135067X0*%
%TD*%
%TA.AperFunction,ComponentPad*%
%ADD13RotRect,1.295400X1.295400X350.000000*%
%TD*%
%TA.AperFunction,ComponentPad*%
%ADD14C,1.295400*%
%TD*%
%TA.AperFunction,ComponentPad*%
%ADD15RotRect,1.222000X1.222000X345.000000*%
%TD*%
%TA.AperFunction,ComponentPad*%
%ADD16C,1.222000*%
%TD*%
%TA.AperFunction,ComponentPad*%
%ADD17R,1.800000X1.800000*%
%TD*%
%TA.AperFunction,ComponentPad*%
%ADD18C,1.800000*%
%TD*%
%TA.AperFunction,ComponentPad*%
%ADD19RoundRect,0.250000X-0.550000X-0.550000X0.550000X-0.550000X0.550000X0.550000X-0.550000X0.550000X0*%
%TD*%
%TA.AperFunction,ViaPad*%
%ADD20C,0.600000*%
%TD*%
%TA.AperFunction,Conductor*%
%ADD21C,0.200000*%
%TD*%
G04 APERTURE END LIST*
D10*
%TO.P,TP1,1,1*%
%TO.N,+5V*%
X90424000Y-122936000D03*
%TD*%
D11*
%TO.P,U1,8,VCC*%
%TO.N,+5V*%
X80855225Y-121689607D03*
%TO.P,U1,7,DIS*%
%TO.N,Net-(U1-DIS)*%
X82935871Y-123146492D03*
%TO.P,U1,6,THR*%
%TO.N,/TR*%
X85016517Y-124603376D03*
%TO.P,U1,5,CV*%
%TO.N,Net-(U1-CV)*%
X87097162Y-126060261D03*
%TO.P,U1,4,R*%
%TO.N,+5V*%
X82726511Y-132302199D03*
%TO.P,U1,3,Q*%
%TO.N,/out*%
X80645864Y-130845313D03*
%TO.P,U1,2,TR*%
%TO.N,/TR*%
X78565220Y-129388431D03*
D12*
%TO.P,U1,1,GND*%
%TO.N,GND*%
X76484572Y-127931546D03*
%TD*%
D13*
%TO.P,U2,1,Q5*%
%TO.N,Net-(D6-A)*%
X81453333Y-100776943D03*
D14*
%TO.P,U2,2,Q1*%
%TO.N,Net-(D10-A)*%
X81012265Y-103278354D03*
%TO.P,U2,3,Q0*%
%TO.N,Net-(D1-A)*%
X80571198Y-105779765D03*
%TO.P,U2,4,Q2*%
%TO.N,Net-(D9-A)*%
X80130133Y-108281177D03*
%TO.P,U2,5,Q6*%
%TO.N,Net-(D5-A)*%
X79689066Y-110782589D03*
%TO.P,U2,6,Q7*%
%TO.N,Net-(D4-A)*%
X79248000Y-113284000D03*
%TO.P,U2,7,Q3*%
%TO.N,Net-(D8-A)*%
X78806933Y-115785412D03*
%TO.P,U2,8,VSS*%
%TO.N,GND*%
X78365867Y-118286824D03*
%TO.P,U2,9,Q8*%
%TO.N,Net-(D3-A)*%
X85870102Y-119610023D03*
%TO.P,U2,10,Q4*%
%TO.N,Net-(D7-A)*%
X86311169Y-117108610D03*
%TO.P,U2,11,Q9*%
%TO.N,Net-(D2-A)*%
X86752235Y-114607200D03*
%TO.P,U2,12,Cout*%
%TO.N,unconnected-(U2-Cout-Pad12)*%
X87193301Y-112105788D03*
%TO.P,U2,13,CKEN*%
%TO.N,GND*%
X87634367Y-109604376D03*
%TO.P,U2,14,CLK*%
%TO.N,/out*%
X88075434Y-107102964D03*
%TO.P,U2,15,Reset*%
%TO.N,GND*%
X88516501Y-104601553D03*
%TO.P,U2,16,VDD*%
%TO.N,+5V*%
X88957567Y-102100141D03*
%TD*%
D15*
%TO.P,RV1,1,1*%
%TO.N,Net-(U1-DIS)*%
X101686547Y-137518599D03*
D16*
%TO.P,RV1,2,2*%
X104797401Y-135722547D03*
%TO.P,RV1,3,3*%
%TO.N,/TR*%
X106593453Y-138833401D03*
%TD*%
D17*
%TO.P,D9,1,K*%
%TO.N,Net-(D1-K)*%
X84582000Y-78740000D03*
D18*
%TO.P,D9,2,A*%
%TO.N,Net-(D9-A)*%
X87122000Y-78740000D03*
%TD*%
D17*
%TO.P,D10,1,K*%
%TO.N,Net-(D1-K)*%
X110490000Y-94488000D03*
D18*
%TO.P,D10,2,A*%
%TO.N,Net-(D10-A)*%
X113030000Y-94488000D03*
%TD*%
D10*
%TO.P,TP2,1,1*%
%TO.N,GND*%
X96012000Y-123952000D03*
%TD*%
D11*
%TO.P,R1,2*%
%TO.N,Net-(U1-DIS)*%
X101509021Y-106809371D03*
%TO.P,R1,1*%
%TO.N,+5V*%
X96610979Y-112646629D03*
%TD*%
D17*
%TO.P,D5,1,K*%
%TO.N,Net-(D1-K)*%
X81280000Y-71120000D03*
D18*
%TO.P,D5,2,A*%
%TO.N,Net-(D5-A)*%
X83820000Y-71120000D03*
%TD*%
D17*
%TO.P,D2,1,K*%
%TO.N,Net-(D1-K)*%
X81280000Y-96012000D03*
D18*
%TO.P,D2,2,A*%
%TO.N,Net-(D2-A)*%
X83820000Y-96012000D03*
%TD*%
D19*
%TO.P,C1,1*%
%TO.N,/TR*%
X100616000Y-94488000D03*
D11*
%TO.P,C1,2*%
%TO.N,GND*%
X102616000Y-94488000D03*
%TD*%
D17*
%TO.P,D4,1,K*%
%TO.N,Net-(D1-K)*%
X95758000Y-103124000D03*
D18*
%TO.P,D4,2,A*%
%TO.N,Net-(D4-A)*%
X98298000Y-103124000D03*
%TD*%
D19*
%TO.P,C2,1*%
%TO.N,GND*%
X95028000Y-96520000D03*
D11*
%TO.P,C2,2*%
%TO.N,Net-(U1-CV)*%
X97028000Y-96520000D03*
%TD*%
D17*
%TO.P,D8,1,K*%
%TO.N,Net-(D1-K)*%
X85344000Y-86360000D03*
D18*
%TO.P,D8,2,A*%
%TO.N,Net-(D8-A)*%
X87884000Y-86360000D03*
%TD*%
D17*
%TO.P,D6,1,K*%
%TO.N,Net-(D1-K)*%
X111506000Y-105664000D03*
D18*
%TO.P,D6,2,A*%
%TO.N,Net-(D6-A)*%
X114046000Y-105664000D03*
%TD*%
D17*
%TO.P,D1,1,K*%
%TO.N,Net-(D1-K)*%
X111506000Y-100584000D03*
D18*
%TO.P,D1,2,A*%
%TO.N,Net-(D1-A)*%
X114046000Y-100584000D03*
%TD*%
D17*
%TO.P,D7,1,K*%
%TO.N,Net-(D1-K)*%
X93726000Y-84328000D03*
D18*
%TO.P,D7,2,A*%
%TO.N,Net-(D7-A)*%
X96266000Y-84328000D03*
%TD*%
D11*
%TO.P,R2,2*%
%TO.N,GND*%
X105996066Y-107456497D03*
%TO.P,R2,1*%
%TO.N,Net-(D1-K)*%
X105331938Y-115047501D03*
%TD*%
D17*
%TO.P,D3,1,K*%
%TO.N,Net-(D1-K)*%
X108966000Y-110236000D03*
D18*
%TO.P,D3,2,A*%
%TO.N,Net-(D3-A)*%
X111506000Y-110236000D03*
%TD*%
D10*
%TO.P,TP3,1,1*%
%TO.N,/out*%
X105156000Y-122936000D03*
%TD*%
D20*
%TO.N,Net-(U1-DIS)*%
X100584000Y-114300000D03*
X88484000Y-120961687D03*
X92456000Y-121412000D03*
X98044000Y-115824000D03*
X89408000Y-118364000D03*
%TO.N,Net-(D3-A)*%
X92456000Y-119380000D03*
%TO.N,Net-(D6-A)*%
X106128735Y-112224735D03*
X108204000Y-98044000D03*
%TO.N,/out*%
X99568000Y-118872000D03*
%TO.N,Net-(U1-CV)*%
X92964000Y-102108000D03*
X87884000Y-120396000D03*
X93980000Y-108712000D03*
X87376000Y-122428000D03*
X93472000Y-104648000D03*
%TO.N,/TR*%
X101600000Y-100076000D03*
X99568000Y-105664000D03*
%TO.N,Net-(D4-A)*%
X92456000Y-108204000D03*
X80264000Y-112268000D03*
X83220000Y-107696000D03*
%TO.N,Net-(D8-A)*%
X82296000Y-109728000D03*
%TD*%
D21*
%TO.N,Net-(U1-DIS)*%
X89408000Y-118364000D02*
X89408000Y-120037687D01*
X98044000Y-115824000D02*
X92456000Y-121412000D01*
X89408000Y-120037687D02*
X88484000Y-120961687D01*
X101509021Y-113374979D02*
X100584000Y-114300000D01*
X101509021Y-106809371D02*
X101509021Y-113374979D01*
%TO.N,Net-(D3-A)*%
X111506000Y-110236000D02*
X112707000Y-109035000D01*
X115247000Y-101081471D02*
X115247000Y-100086529D01*
X98967000Y-105415057D02*
X98967000Y-112869000D01*
X112707000Y-109035000D02*
X112707000Y-103621471D01*
X112707000Y-103621471D02*
X115247000Y-101081471D01*
X110305000Y-99383000D02*
X104625000Y-105063000D01*
X114543471Y-99383000D02*
X110305000Y-99383000D01*
X115247000Y-100086529D02*
X114543471Y-99383000D01*
X104625000Y-105063000D02*
X99319057Y-105063000D01*
X99319057Y-105063000D02*
X98967000Y-105415057D01*
X98967000Y-112869000D02*
X92456000Y-119380000D01*
%TO.N,Net-(D6-A)*%
X114046000Y-109474000D02*
X111295265Y-112224735D01*
X81553276Y-100677000D02*
X81453333Y-100776943D01*
X114046000Y-105664000D02*
X114046000Y-109474000D01*
X111295265Y-112224735D02*
X106128735Y-112224735D01*
X108204000Y-98044000D02*
X105571000Y-100677000D01*
X105571000Y-100677000D02*
X81553276Y-100677000D01*
%TO.N,/out*%
X105156000Y-122936000D02*
X103632000Y-122936000D01*
X103632000Y-122936000D02*
X99568000Y-118872000D01*
%TO.N,Net-(U1-CV)*%
X93472000Y-102616000D02*
X92964000Y-102108000D01*
X93472000Y-104648000D02*
X93472000Y-102616000D01*
X87097162Y-126060261D02*
X84916352Y-126060261D01*
X84916352Y-126060261D02*
X83915517Y-125059426D01*
X87884000Y-120396000D02*
X87884000Y-114808000D01*
X85634843Y-122428000D02*
X87376000Y-122428000D01*
X83915517Y-125059426D02*
X83915517Y-124147326D01*
X83915517Y-124147326D02*
X85634843Y-122428000D01*
X87884000Y-114808000D02*
X93980000Y-108712000D01*
%TO.N,/TR*%
X91058624Y-124603376D02*
X85016517Y-124603376D01*
X100616000Y-99092000D02*
X101600000Y-100076000D01*
X100616000Y-94488000D02*
X100616000Y-99092000D01*
X99568000Y-105664000D02*
X99568000Y-116094000D01*
X99568000Y-116094000D02*
X91058624Y-124603376D01*
%TO.N,Net-(D4-A)*%
X79248000Y-113284000D02*
X80264000Y-112268000D01*
X89802253Y-105550253D02*
X92456000Y-108204000D01*
X83220000Y-107696000D02*
X85365747Y-105550253D01*
X85365747Y-105550253D02*
X89802253Y-105550253D01*
%TO.N,Net-(D8-A)*%
X87884000Y-86360000D02*
X80023498Y-94220502D01*
X82296000Y-106162902D02*
X82296000Y-109728000D01*
X80023498Y-103890400D02*
X82296000Y-106162902D01*
X80023498Y-94220502D02*
X80023498Y-103890400D01*
%TO.N,Net-(D9-A)*%
X80130133Y-108281177D02*
X79622498Y-107773542D01*
X79622498Y-107773542D02*
X79622498Y-86239502D01*
X79622498Y-86239502D02*
X87122000Y-78740000D01*
%TO.N,Net-(D1-A)*%
X80571198Y-105779765D02*
X81311275Y-106519842D01*
X81646700Y-133403199D02*
X83182561Y-133403199D01*
X81311275Y-106519842D02*
X81311275Y-119676507D01*
X81311275Y-119676507D02*
X79754225Y-121233557D01*
X79754225Y-121233557D02*
X79754225Y-130179902D01*
X79754225Y-130179902D02*
X79544864Y-130389263D01*
X79544864Y-130389263D02*
X79544864Y-131301363D01*
X79544864Y-131301363D02*
X81646700Y-133403199D01*
X83182561Y-133403199D02*
X110305000Y-106280760D01*
X110305000Y-106280760D02*
X110305000Y-104325000D01*
X110305000Y-104325000D02*
X114046000Y-100584000D01*
%TO.N,Net-(D10-A)*%
X81012265Y-103278354D02*
X83139178Y-101151441D01*
X83139178Y-101151441D02*
X106366559Y-101151441D01*
X106366559Y-101151441D02*
X113030000Y-94488000D01*
%TO.N,+5V*%
X96610979Y-112646629D02*
X96610979Y-109753553D01*
X96610979Y-109753553D02*
X88957567Y-102100141D01*
X90424000Y-122936000D02*
X90424000Y-118833608D01*
X90424000Y-118833608D02*
X96610979Y-112646629D01*
X80855225Y-121689607D02*
X89177607Y-121689607D01*
X89177607Y-121689607D02*
X90424000Y-122936000D01*
X82726511Y-132302199D02*
X82726511Y-131170829D01*
X82726511Y-131170829D02*
X80855225Y-129299543D01*
X80855225Y-129299543D02*
X80855225Y-121689607D01*
%TD*%
M02*
